<?xml version="1.0" encoding="UTF-8" standalone="no"?>
<svg
   version="1.1"
   id="Layer_1"
   viewBox="0 0 1024 1024"
     preserveAspectRatio="xMidYMid meet"
   sodipodi:docname="botella_vidrio.svg"
   inkscape:version="1.4.2 (f4327f4, 2025-05-13)"
   xmlns:inkscape="http://www.inkscape.org/namespaces/inkscape"
   xmlns:sodipodi="http://sodipodi.sourceforge.net/DTD/sodipodi-0.dtd"
   xmlns="http://www.w3.org/2000/svg"
   xmlns:svg="http://www.w3.org/2000/svg">
  <defs
     id="defs2" />
  <sodipodi:namedview
     id="namedview2"
     pagecolor="#ffffff"
     bordercolor="#000000"
     borderopacity="0.25"
     inkscape:showpageshadow="2"
     inkscape:pageopacity="0.0"
     inkscape:pagecheckerboard="0"
     inkscape:deskcolor="#d1d1d1"
     inkscape:zoom="0.76464844"
     inkscape:cx="408.03065"
     inkscape:cy="512"
     inkscape:window-width="1920"
     inkscape:window-height="1001"
     inkscape:window-x="-9"
     inkscape:window-y="-9"
     inkscape:window-maximized="1"
     inkscape:current-layer="Layer_1" />
  <path
     fill="#000000"
     opacity="1"
     stroke="none"
     d="m 555.47939,939.00402 c -16.77786,0.70939 -33.11398,0.66478 -49.42429,-0.56278 -29.42148,-2.21425 -58.80829,-5.00965 -87.49328,-13.21382 -8.72492,-2.49548 -17.22183,-5.65051 -24.95386,-10.65514 -7.65634,-4.9557 -11.65799,-11.51064 -11.53415,-20.93738 0.30844,-23.4845 0.42871,-46.98891 -0.0427,-70.49011 -0.92301,-46.01225 -0.33451,-91.99332 -1.11835,-137.99408 -0.61923,-36.34277 -0.51297,-72.66159 -0.81824,-108.99267 -0.22958,-27.33031 -0.99127,-54.6786 -0.71704,-81.98908 0.22318,-22.22243 4.61987,-43.51651 16.37094,-62.59442 6.10395,-9.90982 13.99784,-18.2252 22.31641,-26.21029 7.70264,-7.39387 15.828,-14.35821 22.61175,-22.6827 9.48417,-11.63831 14.44522,-25.06592 14.48279,-40.20982 0.12692,-51.15706 0.0407,-102.32045 0.0829,-153.48009 0.002,-2.78599 -0.43051,-5.13846 -2.61325,-7.25299 -3.35508,-3.25021 -4.33521,-7.47946 -4.33512,-11.97254 3.7e-4,-13.99837 -0.006,-27.99695 -0.0421,-41.99626 -0.0176,-6.80375 3.08115,-11.64745 8.82538,-14.94872 10.694,-6.14598 22.68921,-7.8041 34.74704,-9.08506 17.55456,-1.86487 35.17709,-1.71167 52.8197,0.41225 12.28253,1.47864 24.48239,3.47783 36.13077,8.1018 13.40707,5.32214 16.88446,10.48634 16.89679,24.6349 0.0106,12.16555 -0.0497,24.3295 0.0246,36.49634 0.0299,4.89034 -1.16398,9.22759 -4.73853,12.58679 -1.70383,1.60119 -2.2449,3.46547 -2.24268,5.76119 0.0508,52.49524 -0.18527,104.98464 0.2237,157.48667 0.1344,17.25636 8.08603,31.90306 19.87713,44.58781 10.23081,11.00611 21.59507,20.9315 31.02842,32.70118 14.7702,18.42816 22.18414,39.57096 23.88574,62.56164 2.18384,29.50509 0.60699,58.94942 0.22717,88.41514 -0.41223,31.981 0.0876,64.00068 -0.49792,95.97219 -0.84796,46.29754 -0.18653,92.64597 -1.15448,138.93121 -0.6269,29.97745 -0.39417,59.97227 -0.42755,89.96165 -0.009,7.94757 -3.05268,13.67206 -9.37964,17.92428 -11.63477,7.81946 -25.13495,10.64467 -38.6561,13.09966 -19.73331,3.58278 -39.7865,4.88919 -60.36203,5.63325 M 574.14804,347.6677 c 0,-51.01559 0,-102.03117 0,-153.79312 -34.05984,6.7666 -66.96646,4.66493 -99.88867,-0.26814 -1.13141,2.84327 -0.71613,5.5452 -0.71726,8.16972 -0.0197,45.15409 0.0178,90.30976 0.005,135.46404 -0.007,23.12088 -6.28906,43.76414 -22.01193,60.93887 -9.56262,10.44563 -20.65466,19.27926 -30.22049,29.71423 -14.97256,16.333 -22.92242,35.88705 -23.37543,57.98293 -0.94522,46.10907 -0.41394,92.27646 0.43961,138.44245 0.78885,42.66587 0.30731,85.30593 1.01337,127.97559 0.75283,45.4962 0.51092,90.98159 0.73724,136.47245 0.0511,10.26995 0.49985,10.7988 9.99735,14.87579 18.54159,7.95909 38.43069,9.97236 57.77975,14.14906 16.17172,3.49087 32.82855,3.81535 49.2876,4.37833 28.31292,0.96842 56.58523,0.38044 84.57455,-3.56218 13.12888,-1.84931 26.17917,-4.09786 38.41947,-9.39396 4.94134,-2.13805 7.05877,-5.25501 7.06482,-11.01327 0.0483,-45.98055 -0.17755,-91.96676 0.66595,-137.92879 0.87073,-47.44669 0.14514,-94.95783 1.10284,-142.41191 0.57783,-28.63427 0.24237,-57.31071 0.58637,-85.9577 0.15387,-12.81318 0.60004,-25.57725 -0.15906,-38.44135 -1.55719,-26.38732 -11.37927,-48.97236 -30.36767,-67.83556 -7.90662,-7.8545 -15.89109,-15.6633 -23.33329,-23.94589 -13.59414,-15.12905 -20.76498,-32.9089 -21.59979,-54.01158 M 557.38271,133.50264 c -3.21695,0.7403 -6.95633,0.18047 -9.70023,3.71122 8.02759,0.84471 14.79804,-1.55664 21.48938,-4.11047 1.5748,-0.60104 2.00754,-2.50862 2.43149,-4.11703 0.52738,-2.00064 -0.69321,-3.16511 -2.23544,-4.02341 -1.92417,-1.07086 -3.40183,-0.17824 -3.95874,1.56417 -1.18204,3.69831 -3.97376,5.4541 -8.02646,6.97552 m -59.51926,-13.51756 c 7.31287,2.93027 14.52249,3.32626 21.62461,-0.16159 -5.2789,-3.37765 -11.00687,-3.40264 -16.69641,-2.83757 -1.86304,0.18503 -4.53888,-0.34774 -4.9282,2.99916 m -11.57031,1.97807 c -1.45773,0.29917 -3.34634,-0.57514 -4.26205,1.3932 4.73681,2.29211 7.06655,2.25561 10.14325,-0.16165 -1.45179,-1.66139 -3.39103,-0.95392 -5.8812,-1.23155 z"
     id="path1" />
  <path
     fill="#000000"
     opacity="1"
     stroke="none"
     d="m 546.19875,764.39664 c -27.34442,9.50069 -55.24475,0.7583 -75.35489,-23.28749 -15.29248,-18.28529 -23.84433,-39.45866 -27.39545,-62.51663 -4.77664,-31.0153 -1.31771,-60.83949 12.96527,-88.56459 10.19452,-19.78882 24.58799,-35.42796 46.42307,-42.61549 25.18799,-8.29117 53.13034,1.15372 72.19598,24.19908 17.97937,21.73228 26.44184,46.95076 28.80793,74.42072 2.39413,27.79544 -2.24018,54.05141 -15.16187,78.39839 -9.51697,17.93182 -22.77466,32.14998 -42.48004,39.96601 M 487.85546,614.80605 c 7.26272,-9.96911 16.54382,-17.75521 26.65097,-24.67062 3.68609,-2.52203 7.11581,-5.32523 8.70407,-9.78091 2.20697,-6.19136 -1.58829,-12.01032 -8.18668,-12.48628 -5.52926,-0.39882 -9.97592,2.16911 -14.1524,5.12588 -13.82126,9.785 -23.03385,23.39048 -29.97309,38.51075 -13.98449,30.47147 -11.82836,62.21121 -3.77429,94.25472 0.2309,0.91878 0.68827,1.96062 2.37189,1.76908 1.12405,-1.41269 0.84039,-3.32735 0.55747,-5.03575 -1.12855,-6.81456 -0.91758,-13.65096 -1.0759,-20.47639 -0.56211,-24.23024 4.00567,-46.9328 18.87796,-67.21048 z"
     id="path2" />
</svg>
