<?xml version="1.0" encoding="UTF-8" standalone="no"?>
<!-- Created with Inkscape (http://www.inkscape.org/) -->

<svg
   viewBox="0 0 1024 1024"
     preserveAspectRatio="xMidYMid meet"
   version="1.1"
   id="svg1"
   inkscape:version="1.4.2 (f4327f4, 2025-05-13)"
   sodipodi:docname="vaso_plastico.svg"
   xmlns:inkscape="http://www.inkscape.org/namespaces/inkscape"
   xmlns:sodipodi="http://sodipodi.sourceforge.net/DTD/sodipodi-0.dtd"
   xmlns="http://www.w3.org/2000/svg"
   xmlns:svg="http://www.w3.org/2000/svg">
  <sodipodi:namedview
     id="namedview1"
     pagecolor="#ffffff"
     bordercolor="#000000"
     borderopacity="0.25"
     inkscape:showpageshadow="2"
     inkscape:pageopacity="0.0"
     inkscape:pagecheckerboard="0"
     inkscape:deskcolor="#d1d1d1"
     inkscape:document-units="mm"
     inkscape:zoom="0.17438447"
     inkscape:cx="1585.577"
     inkscape:cy="1878.0342"
     inkscape:window-width="1920"
     inkscape:window-height="1001"
     inkscape:window-x="-9"
     inkscape:window-y="-9"
     inkscape:window-maximized="1"
     inkscape:current-layer="layer1" />
  <defs
     id="defs1" />
  <g
     inkscape:label="Layer 1"
     inkscape:groupmode="layer"
     id="layer1">
    <path
       fill="#000000"
       opacity="1"
       stroke="none"
       d="m 647.91795,659.91763 c -0.72807,37.72178 -1.39775,74.89779 -2.20811,112.06973 -0.41517,19.04359 -1.09536,38.07906 -1.62871,57.11922 -0.22482,8.036 -6.22625,16.13159 -15.20123,19.38566 -8.84045,3.20525 -17.82738,5.86913 -26.77988,8.6367 -28.7487,8.88729 -57.86685,15.61614 -87.44514,19.24679 -31.90241,3.916 -63.78672,3.69844 -95.57456,-2.00344 -5.31943,-0.95409 -8.22117,-3.83525 -9.88107,-10.19035 -27.7128,-106.09996 -54.32444,-212.57402 -79.7983,-319.43667 -7.33139,-30.75468 -14.5018,-61.56279 -21.54384,-92.40941 -1.08231,-4.73983 -2.74366,-7.26033 -7.14939,-8.03041 -7.38686,-1.29116 -11.93615,-6.63083 -13.34804,-15.38242 -2.54242,-15.76446 -5.43219,-31.46348 -7.58992,-47.29918 -3.24837,-23.83957 6.93546,-40.27822 22.48184,-53.57692 19.28533,-16.49743 41.30633,-25.9551 63.87192,-33.86396 33.42854,-11.71596 67.71711,-18.61056 102.25151,-23.9544 12.8129,-1.98261 25.64464,-3.80089 38.48001,-5.57725 2.45613,-0.33999 3.26032,-1.50463 3.00398,-4.38423 -2.74038,-30.80337 -5.61275,-61.59388 -8.00833,-92.43468 -1.22261,-15.73942 -3.56271,-31.54432 -0.66352,-47.39104 4.91552,-26.862661 17.61384,-37.784855 40.80815,-35.01668 34.62468,4.132329 68.46837,12.459394 101.16121,26.56453 13.00216,5.60967 12.67185,2.74701 7.95286,19.36015 -5.62689,19.81017 -12.24727,23.47673 -28.82918,15.78379 -22.40462,-10.39435 -45.5344,-15.86095 -69.67722,-15.35272 -11.40027,0.23996 -15.00977,5.29801 -13.41585,18.74754 4.0279,33.98196 8.02862,67.96887 11.85639,101.98204 0.60261,5.3539 2.02754,8.41463 7.16858,8.51778 9.74039,0.19542 19.48004,0.76561 29.20846,1.41889 22.53151,1.51301 43.79,7.63725 60.62755,26.47701 16.30236,18.24094 24.45501,39.94453 17.6896,66.77472 -1.51884,6.02365 -0.0761,11.94522 0.73459,17.7424 1.72082,12.32224 0.5881,23.14849 -9.03914,30.73783 -1.51196,1.19196 -1.75997,2.914 -1.85063,4.8712 -0.58663,12.67843 -1.44269,25.34461 -1.82087,38.03068 -1.13016,37.89834 -2.06962,75.80449 -3.10477,113.70676 -0.89776,32.8616 -1.82453,65.722 -2.73895,99.13034 M 371.63078,594.50374 c 3.45321,-3.03901 7.02464,-5.8575 10.88504,-8.15973 22.58337,-13.4674 46.25085,-14.34834 70.50427,-8.28446 22.13738,5.53477 43.04381,15.42382 64.01441,25.02507 24.46698,11.20192 49.41111,19.31635 76.04632,17.10789 11.33537,-0.9399 22.70011,-2.20448 32.8078,-9.04944 6.47751,-4.38669 10.94051,-10.41143 11.39954,-19.96212 0.69905,-14.55302 0.57831,-29.1214 1.18927,-43.68136 1.19,-28.356 1.5,-56.76135 2.32777,-85.14012 0.32633,-11.19282 1.18527,-22.3638 1.55366,-33.55591 0.14865,-4.47982 0.90209,-9.10742 -0.54931,-13.81048 -1.22371,0.6466 -2.1055,1.06182 -2.94888,1.56544 -51.49847,30.75938 -106.64598,43.98111 -163.99254,46.08672 -18.99706,0.69754 -38.01988,0.57172 -57.03799,-0.84608 -23.92166,-1.78337 -47.70334,-4.84821 -71.41542,-8.81283 -8.94814,-1.49603 -17.89157,-3.03055 -27.71788,-4.69691 12.46009,54.86681 25.19286,108.60866 38.58225,163.2343 4.77663,-6.63111 8.85533,-12.09999 14.35169,-17.01998 m 73.20113,64.52385 c -1.90899,0.15858 -3.83574,0.17721 -5.72479,0.49812 -15.14647,2.57088 -26.48148,12.38101 -35.61163,26.10274 -7.05221,10.59882 -11.30129,22.81033 -15.10404,35.42371 -1.91009,6.33483 -1.42675,11.66087 0.22118,17.63207 3.13812,11.36452 5.8448,22.89106 8.79258,34.32838 7.69144,29.84388 15.44453,59.66623 23.09206,89.52554 0.91445,3.5705 2.20161,5.38155 5.78246,5.90109 12.38577,1.79694 24.82484,2.84342 37.25883,2.87047 29.93579,0.0653 59.56774,-3.82677 88.9426,-10.60992 21.94958,-5.06841 43.64243,-11.33042 65.08404,-18.74406 6.90462,-2.38748 13.76175,-6.47725 14.18199,-15.9936 1.11168,-25.17641 1.46881,-50.39923 2.06781,-75.60553 0.65227,-27.44798 1.24836,-54.89792 1.8303,-82.34811 0.0362,-1.58935 0.58375,-3.35361 -0.63124,-4.80573 -1.98296,-0.0841 -3.1193,1.69193 -4.51124,2.81789 -28.29222,22.8805 -59.42343,30.97748 -93.34797,24.55747 -14.96553,-2.83206 -28.75594,-9.83995 -42.69102,-16.37087 -15.71029,-7.36299 -31.3067,-15.31648 -49.63264,-15.17966 M 434.15463,428.43625 c 21.08989,0.0479 42.12974,-1.09481 63.14785,-3.16819 25.47785,-2.51346 50.74322,-6.56065 75.57786,-13.76282 24.56161,-7.12297 47.78819,-17.72636 67.72942,-36.61031 12.90462,-12.22004 16.92601,-28.30763 13.65263,-46.61944 -4.60586,-25.76372 -19.07502,-41.95687 -39.33751,-51.74386 -19.45864,-9.39887 -40.17906,-7.06616 -60.47199,-8.66679 -0.25745,-0.0211 -0.53626,0.3455 -0.89015,0.5896 -0.0942,0.45648 -0.35172,1.00713 -0.29369,1.5066 2.26577,19.19914 4.45214,38.41287 6.93798,57.57338 0.53264,4.10701 -0.41768,6.23959 -3.57032,7.83302 -10.28896,5.2005 -20.8999,6.44206 -31.88068,4.13372 -8.31724,-1.74848 -8.26432,-1.73468 -9.05618,-11.05563 -1.4971,-17.6285 -3.14865,-35.23976 -4.53698,-52.8796 -0.2937,-3.74198 -1.48296,-4.76925 -4.54822,-4.34045 -34.38574,4.81126 -68.7363,9.8765 -102.5568,18.86602 -25.11308,6.67506 -49.92524,14.52377 -73.07423,28.10356 -12.20993,7.16266 -23.66022,15.73147 -31.88321,28.93829 -10.81181,17.36473 -8.9445,36.24308 4.75562,50.54948 8.71028,9.09591 19.24398,13.77806 30.24289,17.40326 32.41873,10.68483 65.6145,13.46753 100.05643,13.35016 M 553.55077,623.7226 c -17.97459,-3.99738 -35.06449,-11.28001 -52.04163,-19.0262 -20.52208,-9.36354 -40.96114,-18.82571 -63.0699,-22.3929 -34.00575,-5.48669 -65.02746,13.71838 -74.6482,44.88231 -0.98694,3.19791 -1.48985,5.75704 -0.70014,8.92621 5.17802,20.78228 10.26032,41.59711 15.46771,62.36923 0.39921,1.59189 0.26468,3.76954 2.03117,4.58551 0.23208,-0.17254 0.42134,-0.23358 0.48515,-0.37262 0.82777,-1.80701 1.61638,-3.63885 2.45575,-5.43841 9.80094,-21.01462 23.18235,-37.13987 43.89263,-42.65916 13.46481,-3.58829 26.95717,-2.46846 40.36217,1.06729 16.79874,4.43094 32.12722,13.50793 48.07789,20.61954 15.36909,6.85228 31.04021,10.93389 47.72075,9.35248 24.28424,-2.30227 45.34112,-13.00996 63.89696,-31.18069 5.60802,-5.49138 10.19214,-11.16462 8.61963,-20.68594 -0.31908,-1.93138 0.39993,-4.06786 0.43474,-6.11467 0.0653,-3.79046 0.71029,-7.65352 -0.4971,-11.80403 -9.32487,5.38313 -18.92675,7.95221 -28.76103,9.60597 -17.71971,2.97953 -35.34477,2.09311 -53.72655,-1.73396 M 357.32841,447.6626 c 27.18596,4.74103 54.5427,7.58437 81.98937,8.6275 30.3756,1.15448 60.66562,-0.72233 90.70075,-6.59604 37.14825,-7.2647 72.66271,-20.23866 105.73084,-41.65194 3.25017,-2.10456 7.22008,-3.35111 8.30274,-8.51296 0.23931,-1.149 1.4623,-1.39967 2.43763,-1.38692 4.78317,0.0626 6.23785,-4.08466 7.14901,-8.28145 0.93184,-4.29282 0.60298,-8.76951 0.19217,-13.81515 -1.16931,0.87944 -1.84336,1.29358 -2.42747,1.83926 -20.10767,18.78242 -43.27407,30.17389 -67.88063,37.78043 -47.89117,14.80474 -96.90452,18.82562 -146.17204,19.69773 -22.04348,0.39044 -44.09313,-0.53598 -65.97635,-4.02919 -25.03695,-3.99654 -49.94845,-8.67825 -72.4089,-23.56929 -0.55039,-0.36499 -1.14865,-0.65276 -2.12764,0.42515 1.0671,6.73479 2.194,13.82581 3.31399,20.91839 0.97535,6.17901 4.32342,9.20561 9.4855,10.10765 15.62182,2.72967 31.23092,5.55413 47.69211,8.44683 M 516.71616,195.48006 c 0.66099,7.78372 1.31763,15.56797 1.98332,23.35115 1.50616,17.60436 3.01087,35.20889 4.52755,52.81201 1.43655,16.67516 2.64612,33.38571 4.51304,49.99503 0.43147,3.83947 -2.18563,9.83282 3.20233,11.47287 3.86221,1.17559 7.92711,-0.0699 11.77554,-1.47455 0.45576,-0.16619 0.87709,-0.47071 1.33647,-0.61216 3.10914,-0.95746 3.77773,-3.39004 3.34408,-6.83636 -1.36874,-10.87089 -2.62435,-21.76135 -3.9068,-32.64696 -5.719,-48.53786 -11.43727,-97.07583 -17.12616,-145.61855 -0.20667,-1.75998 -0.43329,-3.28574 -2.09935,-3.95584 -3.71426,-1.494 -7.40933,-3.05192 -11.401,-4.70315 -0.34081,5.69306 -0.28644,10.86206 0.18492,16.06379 1.24656,13.70402 2.37237,27.42307 3.66606,42.15272 m 62.39767,-68.79587 c 16.80963,2.81714 33.1769,7.66946 48.86288,15.28633 3.95758,1.92161 6.07468,0.74348 7.50834,-3.40921 1.43328,-4.15051 2.8332,-8.32994 4.00289,-12.58857 1.92639,-7.01253 1.76214,-7.24115 -4.0609,-9.64314 -20.04566,-8.26847 -40.51373,-14.71884 -61.45642,-18.952333 -8.72298,-1.763273 -17.4561,-3.845072 -26.81179,-3.944353 -0.0761,9.366746 2.61022,17.624076 4.00326,26.134266 0.61784,3.77438 2.33139,5.12165 5.65446,5.05159 7.1849,-0.1518 14.33029,0.82321 22.29728,2.06542 m -50.82045,-13.33518 c 2.77664,4.8895 4.74038,10.79453 11.49925,12.68183 -2.50324,-11.47313 -4.67112,-21.86443 -6.08628,-32.379987 -8.03733,0.476078 -9.88033,3.25553 -7.85206,11.531877 0.61277,2.50039 1.42784,4.93292 2.43909,8.16628 m -12.4612,16.93196 c 3.65591,2.28985 7.13741,5.37325 11.81798,3.89065 -4.66208,-5.44693 -8.69905,-11.03697 -12.39194,-17.28562 -0.22843,4.51425 -4.82341,8.73127 0.57396,13.39497 z"
       id="path1"
       style="stroke-width:1.03731" />
  </g>
</svg>
