<?xml version="1.0" encoding="UTF-8" standalone="no"?>
<!-- Created with Inkscape (http://www.inkscape.org/) -->

<svg
   viewBox="0 0 1024 1024"
     preserveAspectRatio="xMidYMid meet"
   version="1.1"
   id="svg1"
   inkscape:version="1.4.2 (f4327f4, 2025-05-13)"
   sodipodi:docname="bateria.svg"
   xmlns:inkscape="http://www.inkscape.org/namespaces/inkscape"
   xmlns:sodipodi="http://sodipodi.sourceforge.net/DTD/sodipodi-0.dtd"
   xmlns="http://www.w3.org/2000/svg"
   xmlns:svg="http://www.w3.org/2000/svg">
  <sodipodi:namedview
     id="namedview1"
     pagecolor="#ffffff"
     bordercolor="#000000"
     borderopacity="0.25"
     inkscape:showpageshadow="2"
     inkscape:pageopacity="0.0"
     inkscape:pagecheckerboard="0"
     inkscape:deskcolor="#d1d1d1"
     inkscape:document-units="mm"
     inkscape:zoom="0.17438447"
     inkscape:cx="1235.7752"
     inkscape:cy="2107.4124"
     inkscape:window-width="1920"
     inkscape:window-height="1001"
     inkscape:window-x="-9"
     inkscape:window-y="-9"
     inkscape:window-maximized="1"
     inkscape:current-layer="layer1" />
  <defs
     id="defs1" />
  <g
     inkscape:label="Layer 1"
     inkscape:groupmode="layer"
     id="layer1">
    <path
       fill="#505050"
       opacity="1"
       stroke="none"
       d="m 759.65138,522.59449 c 0.0462,0.81126 0.13327,1.62252 0.13327,2.43379 0.004,87.58868 -5e-5,175.1773 0.025,262.76596 10e-4,3.45088 -0.48671,6.80456 -2.33714,9.94597 -4.54347,7.71327 -12.14961,12.22877 -22.92484,13.30695 -1.76538,0.17661 -3.5618,0.22609 -5.3438,0.22609 -135.781,0.009 -271.56197,0.009 -407.34301,0.0131 -3.39933,1.3e-4 -6.79277,-0.13696 -10.03004,-0.98945 -11.14332,-2.93434 -17.90306,-8.9185 -19.92631,-18.07604 -0.31944,-1.44634 -0.38941,-2.94152 -0.39149,-4.41429 -0.025,-16.6448 -0.0167,-33.28962 -0.0167,-49.93444 0,-70.72193 0,-141.44383 10e-4,-212.16575 4e-5,-0.88739 0.0209,-1.7748 0.31029,-2.87028 1.59662,-0.22019 2.91219,-0.24313 4.22771,-0.24313 135.8319,-0.001 271.66381,-0.001 407.49575,-0.001 18.70618,3e-5 37.41233,0.003 56.11852,0.003 M 590.31738,665.59462 c -0.0854,-2.48794 0.18534,-4.98659 -0.18991,-7.62115 -1.27302,-0.0164 -2.38247,-0.04 -3.49196,-0.04 -40.60708,-0.003 -81.21416,-0.001 -121.82128,-0.001 -0.65796,0 -1.31869,-0.0295 -1.97309,0.009 -0.52681,0.0295 -1.04593,0.14352 -1.49349,0.20873 -0.10119,0.27195 -0.19908,0.41289 -0.1995,0.55405 -0.0124,4.7326 -0.0167,9.46518 -10e-4,14.19774 10e-4,0.26377 0.19742,0.52699 0.31696,0.82591 0.57538,0.023 1.03535,0.0551 1.49537,0.0547 42.20286,-0.0164 84.40569,-0.0334 126.60852,-0.0538 0.0908,0 0.192,-0.023 0.26947,-0.0586 0.0745,-0.0354 0.12455,-0.10283 0.22698,-0.19234 0.0478,-0.0833 0.18617,-0.21331 0.18784,-0.34424 0.0333,-2.36536 0.0466,-4.73087 0.0654,-7.53948 z"
       id="path2"
       style="stroke-width:0.12511" />
    <path
       fill="#f7a235"
       opacity="1"
       stroke="none"
       d="m 687.38794,179.47657 c 1.03101,0.0331 2.06212,0.0944 3.09315,0.0947 14.10428,0.007 28.20858,-0.007 42.31287,0.0131 3.00673,0.003 6.01306,0.11174 9.01995,0.15368 10.12163,0.14155 21.0974,5.59213 25.20781,14.66601 1.0817,2.38799 1.71735,4.83546 1.66616,7.38139 -0.0166,0.73954 0,1.47948 0,2.21921 9e-5,86.9944 0,173.98878 -10e-4,260.98317 -4e-5,0.96134 -0.0292,1.92265 -0.33195,3.09274 -1.22911,0.21363 -2.16917,0.22281 -3.10919,0.22281 -153.80127,10e-4 -307.60259,10e-4 -461.4039,-0.003 -1.12644,0 -2.25286,-0.0531 -3.3793,-0.0813 -0.0209,-0.96128 -0.0587,-1.92262 -0.0587,-2.88392 -0.003,-87.36885 10e-4,-174.73769 -0.0209,-262.10656 -0.001,-3.06444 0.45077,-6.04514 1.77941,-8.92909 3.90394,-8.47366 14.30887,-14.31967 25.03445,-14.55313 3.00637,-0.0656 6.01323,-0.15761 9.02005,-0.16187 14.95118,-0.023 29.90253,-0.0197 45.28728,0.0197 2.0279,0.0131 3.62236,-0.0442 5.21685,-0.0442 99.00174,-0.003 198.00351,-0.003 297.00529,-0.007 1.22019,-3e-5 2.44043,-0.0479 3.66067,-0.0735 m -91.74481,153.4681 c 1.10209,-0.0459 2.23102,0.11699 3.43199,-0.19725 0.33152,-1.28147 0.13826,-2.53407 0.16992,-3.77225 0.0333,-1.33065 0.008,-2.66235 0.008,-3.99355 0,-1.2573 0.0292,-2.51513 -0.008,-3.77167 -0.0416,-1.30839 0.19034,-2.63486 -0.18867,-4.00026 -0.60037,-0.0557 -1.05035,-0.12748 -1.50191,-0.1337 -1.22166,-0.0164 -2.44393,-0.007 -3.66605,-0.007 -15.32298,0 -30.64601,0.003 -45.96899,-0.007 -1.00733,0 -2.04178,0.10479 -3.20183,-0.21528 -0.15951,-2.3991 -0.0546,-4.75167 -0.0729,-7.10058 -0.0167,-2.36652 -0.004,-4.73319 -0.004,-7.09986 0,-2.29263 0,-4.58532 0,-6.87799 0,-2.36663 0,-4.73326 0,-7.09992 0,-2.36664 0.0292,-4.7336 -0.008,-7.09979 -0.0375,-2.34737 0.187,-4.70332 -0.15494,-7.03571 -0.38817,-0.11239 -0.64219,-0.24968 -0.89658,-0.25034 -6.0156,-0.0131 -12.0312,-0.0131 -18.04684,10e-4 -0.25489,0 -0.50954,0.14089 -0.77439,0.2192 -0.51378,0.78467 -0.28696,1.61277 -0.2882,2.40795 -0.0167,11.83312 -0.0124,23.6663 -0.0124,35.49945 0,1.10934 0.025,2.21945 -0.0167,3.32771 -0.0167,0.41194 -0.20284,0.81959 -0.33862,1.32911 -1.15705,0 -2.18371,0 -3.21035,0 -9.3066,0 -18.61319,-4e-5 -27.91978,0 -6.7685,0 -13.53695,-0.007 -20.30532,0.009 -0.81611,10e-4 -1.70194,-0.18643 -2.44297,0.34294 -0.0491,0.19922 -0.14827,0.41538 -0.14911,0.63164 -0.0124,4.58522 -0.0209,9.17044 -0.004,13.7556 0.001,0.33766 0.19159,0.67486 0.33194,1.13791 1.06015,0 1.98714,-2e-5 2.91417,-2e-5 8.08451,0 16.16903,0 24.25352,2e-5 7.99056,0 15.98109,-0.007 23.97156,0.009 0.90587,0.003 1.87693,-0.20413 2.83498,0.36627 0.025,0.67207 0.0778,1.40061 0.0799,2.12921 0.008,3.32806 0.004,6.65616 0.004,9.98422 0,9.24466 -0.008,18.48932 0.0124,27.73394 10e-4,0.79204 -0.26115,1.62723 0.36693,2.42083 1.54363,0.34516 3.14538,0.13597 4.72497,0.17006 1.69083,0.0367 3.38392,0.009 5.07603,0.009 1.59809,0 3.19741,0.0295 4.79394,-0.009 1.65286,-0.0403 3.34024,0.19135 5.10283,-0.20774 0.0375,-0.91157 0.0987,-1.71189 0.0991,-2.51221 0.004,-12.49878 0,-24.99755 0.0124,-37.49632 10e-4,-0.79243 -0.16535,-1.61054 0.17285,-2.31053 0.31694,-0.11502 0.48017,-0.22642 0.64377,-0.22675 16.54347,-0.0262 33.08699,-0.0429 50.17747,-0.0606 z"
       id="path3"
       style="stroke-width:0.12511" />
    <path
       fill="#e6e7e9"
       opacity="1"
       stroke="none"
       d="m 300.22182,483.5413 c 1.15801,-0.19102 2.28442,-0.13827 3.41091,-0.13827 153.80127,0.003 307.60258,0.003 461.40386,0.003 0.94002,0 1.88008,-0.009 3.07929,-0.023 0.26905,7.03494 0.27863,14.07864 0.2603,21.34 -18.73396,0.21626 -37.44011,0.21364 -56.14631,0.21364 -135.83194,0 -271.66379,0 -407.49573,0.001 -1.31553,4e-5 -2.63111,0.023 -4.20141,0.0494 -0.2957,-0.42659 -0.37234,-0.8676 -0.37234,-1.30863 0.004,-6.63952 0.0167,-13.27898 0.0612,-20.13781 z"
       id="path4"
       style="stroke-width:0.12511" />
    <path
       fill="#e6e7e9"
       opacity="1"
       stroke="none"
       d="m 700.56915,174.54795 c -1.22578,0.23854 -2.44602,0.28638 -3.66625,0.28638 -99.00178,0.003 -198.00356,0.003 -297.00529,0.007 -1.5945,6e-5 -3.18895,0.056 -4.95593,0.009 -0.16825,-2.22086 -0.19158,-4.36559 -0.14451,-6.5093 0.0167,-0.72825 0.2095,-1.45412 0.3232,-2.18095 0.57013,-3.64757 3.44034,-6.2067 6.85632,-8.33132 2.34764,-1.46017 5.16601,-2.25372 8.35458,-2.2488 28.66625,0.0442 57.33269,0.0229 86.53021,0.0262 34.40165,0.003 68.2721,0.007 102.14255,0.007 28.74339,-0.003 57.48687,0.001 86.23022,-0.0164 2.71677,-10e-4 5.09091,0.69976 7.41035,1.74958 4.28029,1.93736 6.56945,4.93383 7.68689,8.58794 0.1945,0.63558 0.22908,1.31191 0.23741,1.97019 0.025,2.14287 0.008,4.28607 0,6.64218 z"
       id="path5"
       style="stroke-width:0.12511" />
    <path
       fill="#cdd2d6"
       opacity="1"
       stroke="none"
       d="m 596.04336,149.35486 c -33.86887,0.20676 -67.73932,0.20544 -101.87949,0.20479 -0.26531,-4.50962 -0.0429,-9.02843 -0.31986,-13.52816 -0.25573,-4.15019 4.42389,-8.25361 10.54641,-8.23555 11.65435,0.0344 23.30896,0.009 34.96348,0.009 15.13203,-9e-5 30.26409,-0.003 45.39611,0.009 1.11607,0.001 2.28375,4.2e-4 3.33889,0.24116 3.91786,0.89292 6.36788,2.95757 7.44822,6.05617 0.3765,1.0796 0.52011,2.16073 0.51169,3.27771 -0.0292,3.91881 -0.008,7.83789 -0.004,11.96486 z"
       id="path7"
       style="stroke-width:0.12511" />
  </g>
</svg>
