<?xml version="1.0" encoding="UTF-8" standalone="no"?>
<!-- Created with Inkscape (http://www.inkscape.org/) -->

<svg
   viewBox="0 0 1024 1024"
     preserveAspectRatio="xMidYMid meet"
   version="1.1"
   id="svg1"
   inkscape:version="1.4.2 (f4327f4, 2025-05-13)"
   sodipodi:docname="bolsa_basura.svg"
   xmlns:inkscape="http://www.inkscape.org/namespaces/inkscape"
   xmlns:sodipodi="http://sodipodi.sourceforge.net/DTD/sodipodi-0.dtd"
   xmlns="http://www.w3.org/2000/svg"
   xmlns:svg="http://www.w3.org/2000/svg">
  <sodipodi:namedview
     id="namedview1"
     pagecolor="#ffffff"
     bordercolor="#000000"
     borderopacity="0.25"
     inkscape:showpageshadow="2"
     inkscape:pageopacity="0.0"
     inkscape:pagecheckerboard="0"
     inkscape:deskcolor="#d1d1d1"
     inkscape:document-units="mm"
     inkscape:zoom="0.17438447"
     inkscape:cx="2743.937"
     inkscape:cy="1981.2544"
     inkscape:window-width="1920"
     inkscape:window-height="1001"
     inkscape:window-x="-9"
     inkscape:window-y="-9"
     inkscape:window-maximized="1"
     inkscape:current-layer="layer1" />
  <defs
     id="defs1" />
  <g
     inkscape:label="Layer 1"
     inkscape:groupmode="layer"
     id="layer1">
    <path
       fill="#56ae72"
       opacity="1"
       stroke="none"
       d="m 584.25374,121.83211 c 0.73222,-0.90441 1.44394,-1.82953 2.20104,-2.70868 1.35986,-1.579 3.13732,-2.36701 5.00024,-2.93481 1.76885,-0.53913 3.55546,-1.01244 5.34101,-1.4846 12.26795,-3.2441 24.53661,-6.48498 36.80764,-9.71533 2.6434,-0.69589 5.30234,-1.27451 8.04437,-1.30848 4.2969,-0.0532 7.96771,1.57683 11.11095,4.70103 2.26102,2.24726 4.07681,4.87814 5.65512,7.71168 3.94716,7.08618 6.94628,14.63991 9.26607,22.50536 2.6349,8.93392 4.34643,18.09339 5.49101,27.38747 0.89962,7.30442 1.59048,14.62626 1.9394,21.98615 0.31586,6.66428 0.64304,13.32792 0.97384,19.99133 0.30496,6.1446 0.5537,12.2936 0.94676,18.43163 0.89722,14.01264 2.50659,27.92384 4.99754,41.72043 2.47325,13.69836 5.58403,27.22158 9.08726,40.64468 3.98191,15.25735 8.45904,30.34902 12.9605,45.43299 4.7964,16.07248 9.62765,32.13374 13.9763,48.35833 4.17119,15.56227 7.86994,31.25198 10.62501,47.18662 1.25106,7.23633 2.3688,14.50144 3.06269,21.83135 0.60378,6.37687 1.21058,12.7542 1.7232,19.14012 0.28403,3.53856 0.40313,7.09382 0.55288,10.64369 0.62516,14.81799 0.61496,29.64501 0.44481,44.47178 -0.1324,11.53028 -0.41326,23.05858 -0.54018,34.58898 -0.12604,11.44286 -0.27681,22.88885 -0.16194,34.33044 0.0853,8.4907 0.48679,16.98211 0.91875,25.46291 0.3304,6.48685 0.82877,12.96856 1.43189,19.43292 0.84419,9.04865 1.88549,18.07271 3.0889,27.07765 1.6735,12.52298 3.92689,24.92763 6.15502,37.34024 1.94434,10.83182 3.3066,21.73015 2.64411,32.80081 -0.52892,8.83802 -2.51094,17.25936 -6.51015,25.0597 -5.25421,10.24804 -13.21558,16.74594 -23.52214,19.98744 -5.2487,1.65074 -10.62957,2.48855 -16.08422,2.61945 -4.07781,0.098 -8.16319,0.0733 -12.23948,-0.0767 -3.35317,-0.12329 -6.6981,-0.50885 -10.04648,-0.78222 -2.23253,-0.18224 -4.46389,-0.3801 -6.69682,-0.5561 -5.26377,-0.41508 -10.52928,-0.80465 -15.79186,-1.23593 -5.18202,-0.42473 -10.36072,-0.89749 -15.54215,-1.33075 -2.47147,-0.20675 -4.94509,-0.38898 -7.41949,-0.54962 -3.67234,-0.23845 -7.34631,-0.44882 -11.01964,-0.66935 -4.71105,-0.2829 -9.42227,-0.56396 -14.13339,-0.84579 -0.23973,-0.0144 -0.47927,-0.0322 -0.7191,-0.0406 -13.27566,-0.46056 -26.55355,-0.90162 -39.83583,-0.49359 -6.79476,0.20872 -13.59187,0.52117 -20.37227,1.03127 -7.33518,0.55184 -14.65304,1.3542 -21.95504,2.34089 -11.2672,1.52231 -22.46689,3.47979 -33.63806,5.66556 -16.83348,3.29345 -33.55207,7.19837 -50.30157,10.9428 -11.27023,2.51943 -22.55372,4.97837 -33.86352,7.27822 -9.42521,1.91664 -18.88327,3.66152 -28.40511,4.944 -5.39327,0.72633 -10.79122,1.4153 -16.19244,2.06922 -7.15573,0.86624 -14.33852,1.29175 -21.53129,1.65049 -5.92132,0.29537 -11.83967,0.40436 -17.75407,0.19431 -6.31088,-0.22403 -12.62125,-0.53805 -18.91116,-1.26977 -5.1689,-0.60133 -10.32502,-1.26903 -15.4442,-2.24192 -2.36407,-0.44932 -4.68765,-1.0958 -6.90845,-2.11704 -3.92312,-1.80416 -6.79843,-4.77436 -8.64168,-8.95432 -1.28652,-2.91736 -2.09259,-6.00018 -2.74057,-9.12594 -1.68823,-8.14378 -2.52183,-16.39165 -2.54278,-24.7491 -0.0143,-5.64239 0.13406,-11.27702 0.65994,-16.88105 0.56586,-6.02946 1.27578,-12.0497 2.12826,-18.03966 1.53492,-10.78508 3.28977,-21.53346 4.82235,-32.31893 0.92436,-6.50469 1.6747,-13.03722 2.16591,-19.60714 0.66623,-8.91101 0.999,-17.83065 0.7035,-26.75892 -0.23204,-7.01183 -0.45356,-14.0307 -1.17287,-21.01636 -0.59398,-5.7684 -1.01795,-11.55803 -1.65605,-17.3202 -0.61885,-5.58879 -1.38824,-11.15869 -2.13973,-16.72925 -0.83246,-6.1706 -1.70718,-12.33472 -2.58636,-18.49776 -0.87915,-6.16279 -1.81667,-12.31586 -2.6726,-18.48233 -0.76089,-5.48168 -1.46833,-10.97252 -2.15608,-16.46564 -0.61248,-4.89223 -1.20431,-9.78843 -1.73245,-14.69204 -0.39852,-3.69996 -0.75619,-7.40874 -1.00191,-11.1237 -0.56614,-8.55885 -1.07658,-17.11956 -1.10037,-25.71024 -0.0197,-7.11504 0.18015,-14.22106 0.64007,-21.31089 0.49883,-7.68975 1.23268,-15.35837 2.13714,-23.01086 1.68639,-14.26819 3.90224,-28.44001 6.26149,-42.59042 1.80463,-10.8239 3.62805,-21.64586 5.26916,-32.49955 1.3309,-8.80197 2.43333,-17.64529 3.58037,-26.47888 0.91382,-7.03737 1.50828,-14.1104 1.95599,-21.20259 0.51349,-8.13396 0.91164,-16.27132 0.72077,-24.42217 -0.17647,-7.53627 -0.47651,-15.06991 -1.1998,-22.57606 -0.41512,-4.30831 -0.70701,-8.63082 -1.13913,-12.93693 -0.50982,-5.08029 -1.11629,-10.14913 -1.67119,-15.2242 -0.39511,-3.61331 -0.77852,-7.22819 -1.15914,-10.84333 -0.41683,-3.95901 -0.83379,-7.91806 -1.23241,-11.87927 -0.22534,-2.23927 -0.44739,-4.48007 -0.611,-6.72529 -0.24553,-3.36912 -0.4106,-6.74517 -0.65903,-10.11398 -0.68946,-9.35027 -0.7299,-18.71812 -0.31947,-28.07182 0.62284,-14.19442 3.01813,-28.0177 7.86052,-41.30034 2.55617,-7.01153 7.13968,-11.12076 13.99077,-12.23963 6.95464,-1.13584 13.90594,-2.30999 20.88078,-3.28142 6.73768,-0.93838 13.49245,-1.78035 20.26033,-2.40067 5.41522,-0.49631 10.85519,-0.87053 16.30093,-0.59862 2.55327,0.12747 5.10096,0.38562 7.99343,0.69165 0.79021,0.2881 1.2358,0.4764 1.68656,0.64879 1.6131,0.61692 2.67815,1.82037 3.2944,3.53619 0.72778,2.02638 1.31331,4.08744 1.31616,6.28553 0.004,3.38112 -0.0129,6.76232 -0.0308,10.14344 -0.003,0.51872 -0.0316,1.04056 -0.0914,1.55513 -0.26791,2.30956 -0.55901,4.61599 -0.82675,6.92561 -0.21841,1.88413 -0.3761,3.77748 -0.6313,5.6555 -0.40575,2.98558 -0.87758,5.96053 -1.30758,8.94235 -0.36882,2.55764 -0.69893,5.12197 -1.08082,7.67726 -0.57263,3.83086 -1.2264,7.64826 -1.74987,11.4867 -0.43056,3.15722 -0.68034,6.343 -1.08655,9.5046 -0.40656,3.16427 -0.86239,6.31931 -0.91897,9.52209 -0.006,0.34587 -0.0153,0.69659 -0.0711,1.03581 -0.61825,3.75643 -0.51138,7.57433 -0.76804,11.35959 -0.23329,3.44125 0.0386,6.90235 0.31185,10.36073 0.27275,3.45192 0.63487,6.87053 1.34034,10.24073 1.62429,7.75991 3.79605,15.35978 5.8199,23.00177 1.76039,6.6471 3.48205,13.30494 4.90976,20.04565 0.85504,4.03701 1.51604,8.11099 2.05699,12.21985 0.53126,4.0351 0.93033,8.05493 0.88018,12.12914 -0.0342,2.77405 -0.0298,5.54863 -0.0489,8.32292 -0.004,0.60656 0.0166,1.22086 -0.0621,1.818 -0.47309,3.5867 -0.92344,7.17825 -1.47559,10.75108 -0.54644,3.53608 -0.60135,7.0491 0.088,10.56092 0.79182,4.03332 2.84783,6.92698 6.55225,8.19436 1.3601,0.46529 2.78592,0.89817 4.19589,0.9586 2.95087,0.12656 5.89364,0.33477 8.84028,0.52216 2.95015,0.18758 5.91806,0.0462 8.87819,0.0491 4.71064,-0.14887 9.42486,-0.21845 14.13104,-0.46647 5.98261,-0.31538 11.9669,-0.66828 17.93534,-1.20293 6.04611,-0.54153 12.08233,-1.24657 18.1073,-2.02225 6.8169,-0.87768 13.61818,-1.89959 20.42304,-2.88478 6.33029,-0.91642 12.65757,-1.85759 18.98394,-2.80568 5.21884,-0.78206 10.43017,-1.62447 15.65266,-2.37611 4.43172,-0.63777 8.87213,-1.20762 13.31324,-1.76472 5.23433,-0.65662 10.47213,-1.28113 15.71134,-1.89048 1.98471,-0.23083 3.9754,-0.41203 5.96693,-0.5602 3.42638,-0.25488 6.85583,-0.46155 10.28345,-0.69771 1.75368,-0.12083 3.5061,-0.26168 5.68999,-0.42245 8.02955,-0.0281 15.62882,-0.0836 23.22678,-10e-4 3.50659,0.038 7.01076,0.34509 10.51593,0.5317 0.15948,0.008 0.31843,0.0315 0.47734,0.0503 2.60992,0.30967 5.2215,0.60522 7.82938,0.93424 2.13318,0.2691 4.26243,0.57518 6.39274,0.8708 1.0104,0.14024 2.02914,0.47183 3.08686,-0.18649 -0.0435,-0.52644 -0.0288,-1.04549 -0.13649,-1.53274 -0.57532,-2.60463 -1.21196,-5.19361 -1.77071,-7.80227 -1.65673,-7.73449 -3.16083,-15.50114 -4.36184,-23.33841 -0.70422,-4.59567 -1.41202,-9.18701 -1.89176,-13.81753 -0.1599,-1.54306 -0.34885,-3.08268 -0.53678,-4.62214 -0.27107,-2.22161 -0.61865,-4.43491 -0.81417,-6.66403 -0.24887,-2.83656 -0.37833,-5.68541 -0.55975,-8.52898 -0.0164,-0.25919 -0.0129,-0.52265 -0.0572,-0.77655 -0.6466,-3.75247 -0.43496,-7.57584 -0.79577,-11.35706 -0.25402,-2.66108 -0.0867,-5.36914 -0.11131,-8.05619 -0.006,-0.6064 0.0793,-1.24332 -0.0609,-1.81326 -0.46209,-1.87948 -0.31292,-3.78707 -0.33075,-5.68647 -0.021,-2.2535 -0.007,-4.50752 10e-4,-6.76125 0.003,-0.60593 -0.0702,-1.2445 0.0775,-1.81115 0.37816,-1.45007 0.29776,-2.91983 0.31551,-4.38826 0.0252,-2.08017 -0.0143,-4.16288 0.0665,-6.24027 0.0936,-2.41434 0.29805,-4.82337 0.43379,-7.23607 0.19407,-3.45005 0.36908,-6.90144 0.55417,-10.35211 0.01,-0.17265 0.0285,-0.34587 0.0577,-0.51594 0.56788,-3.32218 0.48647,-6.70579 0.78399,-10.05514 0.22144,-2.49254 0.0712,-5.02335 0.0963,-7.53698 0.0551,-5.53855 -0.0235,-11.0595 -0.95239,-16.54045 -0.57697,-3.40398 -1.25805,-6.76802 -2.19062,-10.07764 -2.19513,-7.79033 -5.14842,-15.27033 -7.90487,-22.83171 -2.40432,-6.59552 -4.69172,-13.22954 -6.01271,-20.21055 -0.64561,-3.41174 -1.17158,-6.79326 -0.36227,-10.25825 0.0552,-0.23618 -0.25062,-0.57137 -0.38854,-0.86057 m -255.27371,68.94887 c 5.8952,-6.48294 11.65741,-13.1011 17.21899,-19.92235 1.80009,-2.20784 3.56,-4.45418 5.36249,-6.65969 0.74587,-0.91266 1.04317,-1.93019 0.82207,-3.11678 -0.22551,-1.21013 -0.92661,-1.97357 -1.97189,-2.40885 -1.05592,-0.43973 -1.86597,0.0459 -2.59152,0.80598 -0.34391,0.36032 -0.6392,0.77474 -0.96075,1.16053 -5.25259,6.30204 -10.40047,12.71131 -15.7809,18.88246 -11.32219,12.98603 -23.23574,25.31222 -35.77274,36.92282 -0.48499,0.44914 -0.96198,0.91883 -1.38259,1.43623 -0.43957,0.5407 -0.62706,1.20592 -0.48172,1.93674 0.42881,2.15592 2.77142,3.30685 4.52457,2.19371 0.47738,-0.30307 0.88858,-0.73458 1.31281,-1.12902 2.3043,-2.14255 4.6032,-4.292 7.19918,-6.19656 0.40953,0.66101 0.17142,1.29947 0.004,1.98122 -1.47987,6.03142 -2.29667,12.15446 -2.15666,18.41378 0.0562,2.51235 0.0129,5.0272 0.0223,7.5409 0.003,0.606 -0.015,1.21881 0.0592,1.81651 0.27512,2.2152 0.58075,4.42606 0.88234,6.63735 0.34839,2.55447 0.51755,5.15854 1.09476,7.65129 1.39353,6.01842 2.46434,12.1139 4.03326,18.09586 1.9346,7.37625 3.52824,14.86176 5.1224,22.33684 0.74952,3.51447 1.48131,7.04118 1.8664,10.65238 0.17223,1.61503 0.19512,3.27715 0.55789,4.86369 0.54966,2.4043 0.46309,4.85995 0.17329,7.22629 -0.23268,1.90009 -0.3037,3.77726 -0.35343,5.67262 -0.0159,0.60637 0.0983,1.24571 -0.0406,1.81444 -0.68748,2.81536 -0.29491,5.68559 -0.46175,8.52453 -0.12604,2.14623 -0.40253,4.28229 -0.61932,6.42199 -0.25989,2.56485 -0.57422,5.1245 -0.77288,7.69478 -0.10645,1.37725 -0.028,2.7721 -0.0172,4.15887 0.009,1.12109 0.12519,2.21733 0.30251,3.33588 0.29698,1.87304 0.75072,3.70621 1.04993,5.56689 0.59586,3.70556 1.71691,7.14664 3.49107,10.38649 1.91149,3.49048 4.31402,6.37084 7.58009,8.44096 2.90103,1.83874 6.01044,2.7117 9.32017,2.77042 1.09652,0.0194 2.21742,-0.23479 3.29438,-0.51298 3.14519,-0.81231 6.07934,-2.09937 8.38669,-4.69518 0.94315,-1.06111 1.8961,-2.11468 2.8871,-3.12254 1.90343,-1.93573 3.12393,-4.39701 4.23732,-6.86358 1.0096,-2.23667 1.69525,-4.66345 2.36186,-7.05927 0.98929,-3.55534 1.6023,-7.21878 1.70626,-10.92578 0.12876,-4.58974 0.0345,-9.18698 0.0229,-13.78095 -0.001,-0.6897 -0.0578,-1.38154 -0.12462,-2.06826 -0.0999,-1.02518 -0.23465,-2.04631 -0.34915,-3.06986 -0.067,-0.59852 -0.0946,-1.20389 -0.19019,-1.79663 -0.23245,-1.44056 -0.49225,-2.87594 -0.74473,-4.31271 -0.594,-3.381 -1.1116,-6.78061 -1.80486,-10.13759 -0.90271,-4.37095 -1.93628,-8.71008 -2.94428,-13.05516 -1.60905,-6.93589 -3.32438,-13.84469 -4.62214,-20.86912 -0.81145,-4.39233 -1.45862,-8.81268 -2.08988,-13.22788 -0.48468,-3.38986 -1.07124,-6.79824 -1.07021,-10.26144 6e-5,-0.257 -0.0605,-0.51389 -0.0917,-0.77099 -0.28001,-2.30119 -0.60463,-4.59733 -0.82736,-6.90502 -0.23157,-2.3991 -0.3634,-4.80947 -0.54307,-7.21456 -0.0129,-0.17116 -0.0671,-0.33814 -0.0901,-0.50896 -0.27412,-2.04184 -0.57832,-4.07974 -0.80908,-6.12734 -0.22151,-1.96566 -0.29789,-3.95225 -0.56049,-5.91038 -0.41094,-3.06392 -0.87647,-6.12153 -1.40843,-9.16342 -0.5767,-3.29805 -1.20029,-6.58911 -1.9072,-9.85688 -0.63549,-2.93769 -1.29989,-5.87896 -2.15865,-8.7458 -0.78572,-2.62318 -1.72096,-5.2155 -2.82495,-7.69891 -1.11984,-2.51914 -2.78087,-4.62037 -5.15313,-5.9407 -0.48595,-0.27048 -0.91337,-0.66457 -1.21821,-1.30731 m 264.08375,516.55973 c -1.48967,-1.00407 -3.01575,-1.95068 -4.46029,-3.0259 -2.10165,-1.56418 -4.11784,-3.26309 -6.21826,-4.8293 -3.87619,-2.89031 -7.54114,-6.07596 -11.20625,-9.26358 -1.3033,-1.13335 -2.63267,-2.2322 -3.91862,-3.38809 -2.32989,-2.09431 -4.65461,-4.19617 -6.94616,-6.33931 -1.75033,-1.63697 -3.40195,-3.39977 -5.17655,-5.00397 -2.57142,-2.32448 -5.16505,-4.61701 -7.53948,-7.18281 -0.22642,-0.24467 -0.45735,-0.48565 -0.6986,-0.71299 -2.28316,-2.15305 -4.59007,-4.27714 -6.84803,-6.46074 -2.14268,-2.07207 -4.22429,-4.2182 -6.35308,-6.30735 -1.35857,-1.33325 -2.74139,-2.63852 -4.1366,-3.92672 -1.81766,-1.67845 -3.67116,-3.31155 -5.48536,-4.99438 -1.51395,-1.40438 -2.95252,-2.90688 -4.49688,-4.26953 -2.96301,-2.61418 -5.94642,-5.20367 -8.97788,-7.72352 -4.23386,-3.51932 -8.46676,-7.04473 -12.79441,-10.42571 -7.85198,-6.13407 -16.2783,-11.25632 -24.86186,-16.06059 -5.25233,-2.93978 -10.63041,-5.61566 -15.95211,-8.40985 -0.14393,-0.0756 -0.28753,-0.15213 -0.4329,-0.22454 -3.77146,-1.87834 -7.589,-3.6562 -11.30428,-5.65692 -6.08314,-3.2758 -12.0936,-6.70982 -18.14665,-10.05166 -4.27286,-2.35904 -8.33274,-5.11316 -12.38778,-7.86722 -5.34317,-3.62893 -10.24161,-7.93137 -15.12179,-12.23487 -2.53232,-2.23302 -4.86713,-4.74011 -7.20507,-7.21869 -3.71743,-3.94101 -7.39207,-7.93086 -11.0279,-11.96041 -2.17477,-2.41037 -4.24138,-4.93551 -6.35568,-7.40996 -0.10859,-0.12703 -0.20878,-0.26252 -0.31249,-0.3945 -1.70389,-2.16773 -3.40524,-4.33774 -5.11243,-6.50242 -1.19088,-1.50999 -2.42472,-2.98202 -3.57671,-4.52587 -1.60133,-2.14607 -3.12257,-4.36206 -4.71692,-6.51436 -2.24366,-3.02884 -4.55006,-6.0033 -6.77821,-9.0452 -1.73554,-2.36947 -3.45401,-4.74776 -5.46034,-6.86327 -1.14682,-1.20925 -2.24638,-2.47167 -3.40613,-3.66573 -0.69069,-0.71113 -1.46583,-1.32503 -2.18745,-2.00207 -2.2568,-2.1173 -4.86682,-3.58543 -7.57801,-4.87027 -2.0583,-0.97543 -4.16669,-1.71687 -6.44736,-1.75385 -0.54988,-0.009 -1.09629,-0.18687 -1.64664,-0.26823 -0.55058,-0.0814 -1.13518,-0.29822 -1.65082,-0.17963 -2.09981,0.48294 -4.26604,0.50834 -6.33747,1.19877 -3.8855,1.295 -7.07175,3.75199 -9.43362,7.23173 -2.45871,3.62246 -3.65325,7.83202 -3.62509,12.38762 0.01,1.64739 -0.004,3.29499 0.01,4.9423 0.004,0.60527 0.0146,1.21668 0.0949,1.81382 0.26299,1.95691 0.57164,3.90657 0.83878,5.86291 0.18596,1.36194 0.31978,2.7322 0.49972,4.09524 0.25841,1.95785 0.53077,3.91355 0.80956,5.86817 0.3641,2.5524 0.73689,5.10338 1.11226,7.65388 0.36284,2.46555 0.68584,4.93943 1.11174,7.39217 0.70527,4.06118 1.44655,8.11574 2.23158,12.15965 1.19451,6.15371 2.34754,12.31948 3.68542,18.43723 1.78066,8.14256 3.60791,16.27504 5.83478,24.29513 1.44573,5.20698 2.6742,10.4877 4.21517,15.66012 2.62256,8.80314 5.28706,17.59277 8.3387,26.24022 2.25303,6.38453 4.62212,12.70898 7.38622,18.85423 1.1212,2.4928 2.30315,4.9536 3.42826,7.44438 2.0045,4.43764 4.4369,8.60515 6.86914,12.76975 1.87605,3.2122 3.95206,6.27001 6.12257,9.26467 2.56384,3.53722 5.25724,6.94164 8.12851,10.18064 2.54451,2.87042 5.36457,5.41772 8.22101,7.91155 2.54283,2.22013 5.02332,4.54538 7.70253,6.55647 6.1642,4.62706 12.43896,9.08243 18.93373,13.15434 4.76543,2.98774 9.54709,5.94664 14.36001,8.84323 4.11785,2.47839 8.28604,4.8589 12.43983,7.26666 4.51261,2.61578 9.21222,4.7999 13.90791,6.98661 4.69537,2.18665 9.51602,4.03247 14.46136,5.40388 3.92295,1.08786 7.90956,1.96791 11.9112,2.6354 2.02469,0.33773 4.07449,0.87261 6.17349,0.63963 0.4639,-0.0514 0.94756,0.0978 1.42132,0.16159 0.78728,0.10593 1.57362,0.30952 2.3609,0.31231 6.72094,0.024 13.44196,0.0163 20.16299,0.004 0.63556,-10e-4 1.27229,-0.0823 1.9062,-0.15086 0.94736,-0.10252 1.8921,-0.31866 2.83902,-0.32604 4.64048,-0.0363 9.28138,-0.039 13.92196,-0.0122 1.98839,0.0115 3.99791,-0.23406 5.9495,0.45332 0.29201,0.1029 0.63565,0.0356 0.9555,0.0434 2.14901,0.0521 4.3149,-0.18134 6.42692,0.49303 0.29628,0.0946 0.63851,0.006 0.95618,0.0388 1.89951,0.19786 3.80375,0.35945 5.6954,0.62521 1.80911,0.25413 3.60662,0.60869 5.40588,0.94025 2.42625,0.44709 4.85418,0.88645 7.27263,1.37947 3.59298,0.73254 7.18302,1.48376 10.76561,2.27374 4.20564,0.92728 8.40137,1.90774 12.60255,2.85917 4.20137,0.95144 8.40127,1.91086 12.60731,2.83759 3.11319,0.68585 6.23286,1.33818 9.35418,1.97977 1.95207,0.40131 3.90057,0.93193 5.87204,1.08787 2.86365,0.2267 5.63957,1.01506 8.50803,1.25098 2.68245,0.22072 5.33527,0.90937 8.05206,0.90714 0.39839,0 0.83347,-0.0455 1.18853,0.10475 1.23906,0.52465 2.52289,0.3564 3.79506,0.40499 2.06707,0.079 4.15454,-0.22961 6.19176,0.45822 0.43977,0.14856 0.95391,0.0476 1.43377,0.0461 2.47062,-0.007 4.92312,-0.08 7.39326,-0.42747 2.59234,-0.36478 5.23205,-0.088 7.86659,-0.50566 2.4294,-0.38516 4.8791,-0.66001 7.31254,-1.08685 5.35894,-0.93994 10.59049,-2.42224 15.73801,-4.24399 3.56623,-1.26209 7.02738,-2.82888 10.38358,-4.6705 3.02589,-1.66041 5.82677,-3.68065 8.00849,-6.4786 3.26176,-4.18295 5.04139,-8.88883 3.98637,-14.57555 -0.64071,-3.45389 -2.12084,-6.33842 -4.36779,-8.72032 -1.94187,-2.05854 -4.2938,-3.62342 -6.79974,-4.76159 -2.12645,-0.96578 -4.35082,-1.72945 -6.58687,-2.35008 -4.46792,-1.24 -9.0413,-1.90413 -13.59762,-2.64856 -2.3559,-0.38479 -4.70284,-0.83449 -7.05295,-1.2607 -2.42776,-0.44036 -4.85359,-0.89388 -7.282,-1.32999 -2.35081,-0.42227 -4.70607,-0.81589 -7.0554,-1.24736 -2.34865,-0.43128 -4.68855,-0.9198 -7.03942,-1.33539 -2.35228,-0.41585 -4.72254,-0.71782 -7.0672,-1.17609 -1.40362,-0.2742 -2.84208,-0.57597 -4.14485,-1.17311 -3.601,-1.6505 -7.16853,-3.39584 -10.69198,-5.23288 -2.58884,-1.34955 -5.12193,-2.83688 -7.61704,-4.38202 -3.11487,-1.92896 -6.16527,-3.98019 -9.53745,-6.18266 m 91.08679,-126.73443 c 0.35425,-1.60172 0.37394,-3.2502 0.57886,-4.86761 0.3676,-2.90172 0.8695,-5.7804 0.86386,-8.72445 -10e-4,-0.43159 -0.0418,-0.9034 0.0977,-1.28762 0.45593,-1.25676 0.34774,-2.55766 0.37305,-3.85171 0.0129,-0.69296 -0.11317,-1.43453 0.0707,-2.07004 0.59075,-2.0417 0.34001,-4.124 0.41252,-6.19085 0.0363,-1.03717 -0.0767,-2.11729 0.1573,-3.09991 0.26653,-1.11892 0.30743,-2.21873 0.3083,-3.34141 0.006,-7.28234 -0.004,-14.56475 0.0129,-21.8471 0.004,-1.89618 -0.16148,-3.80705 0.40466,-5.66944 0.14394,-0.47352 0.0627,-1.03204 0.063,-1.55147 0.003,-4.33477 0.009,-8.66945 -0.004,-13.0042 -0.003,-0.68841 -0.0781,-1.37814 -0.14572,-2.06439 -0.0927,-0.94006 -0.23437,-1.87497 -0.31199,-2.81623 -0.1984,-2.4037 -0.27711,-4.82416 -0.5826,-7.21095 -0.33777,-2.63916 -0.87695,-5.24782 -1.32392,-7.87071 -0.92631,-5.43478 -2.10961,-10.79583 -3.73763,-16.04192 -0.47961,-1.54535 -0.99852,-3.07889 -1.20341,-4.73899 -0.13992,-1.13315 -0.31862,-2.40171 -1.26878,-3.2585 -0.2257,-0.20359 -0.33613,-0.58793 -0.44321,-0.91104 -1.83955,-5.55311 -4.21825,-10.84341 -6.76593,-16.04084 -1.42034,-2.89751 -2.99823,-5.70775 -4.57687,-8.50987 -2.91203,-5.16908 -6.32552,-9.95268 -9.79993,-14.68301 -1.04111,-1.4175 -2.09994,-2.83964 -3.29176,-4.10345 -3.53782,-3.75172 -6.85824,-7.73433 -10.67416,-11.19518 -2.51188,-2.27813 -5.07861,-4.44442 -7.75924,-6.4704 -2.9834,-2.25488 -6.2451,-3.36462 -9.91221,-3.11638 -2.11759,0.14343 -4.06942,0.72249 -5.88856,1.89966 -1.742,1.12729 -3.14646,2.67825 -4.47163,4.28817 -3.00398,3.64952 -4.74346,7.90215 -5.17841,12.82443 -0.19758,2.23544 -0.53102,4.42254 0.0166,6.6468 0.11975,0.48657 0.0115,1.03603 0.0318,1.55535 0.0209,0.51752 0.0295,1.04239 0.11775,1.54887 0.78252,4.49571 1.90465,8.89859 3.14986,13.26514 1.57683,5.52944 3.23275,11.03313 4.75061,16.58135 1.24469,4.5492 2.40181,9.12951 3.47786,13.72898 0.95714,4.09167 1.71058,8.23882 2.62476,12.34301 1.23144,5.52866 2.1949,11.11494 3.16176,16.70087 0.40993,2.36824 0.75767,4.7496 1.10612,7.12984 0.44751,3.05768 0.88182,6.11788 1.29333,9.18146 0.24026,1.78859 0.41416,3.5876 0.63747,5.37898 0.25496,2.04514 0.6462,4.07903 0.76834,6.13249 0.1332,2.23893 0.77679,4.42564 0.55336,6.69728 -0.0242,0.24549 0.101,0.50446 0.13091,0.76075 0.1093,0.93822 0.23314,1.87567 0.30202,2.81777 0.0567,0.77612 -0.11074,1.60928 0.0916,2.32767 0.47984,1.70303 0.36561,3.42701 0.40271,5.15191 0.0129,0.60569 -0.0794,1.25986 0.0989,1.80667 0.46889,1.43875 0.34404,2.90829 0.37482,4.37371 0.0182,0.86648 -0.14135,1.78502 0.0711,2.5896 0.4958,1.87744 0.23591,3.79314 0.45114,5.66646 0.28632,2.4911 0.48783,4.9759 0.49798,7.48293 10e-4,0.16884 0.0761,0.33576 0.0966,0.50637 0.11202,0.93763 0.23732,1.87427 0.31903,2.81515 0.0598,0.6886 0.007,1.39129 0.0957,2.07398 0.26376,2.04354 0.58354,4.07859 0.85925,6.12049 0.23004,1.70348 0.35929,3.42625 0.65657,5.11499 0.52064,2.95891 1.1611,5.89271 1.70631,8.84685 1.19451,6.47257 3.03821,12.69867 5.83757,18.58008 1.81428,3.81162 4.09335,7.19439 7.34982,9.71912 3.44926,2.67434 7.13078,4.59849 11.52943,4.25626 0.47751,-0.0372 0.96229,-0.0421 1.43916,-0.001 1.99515,0.17144 3.79027,-0.50337 5.4824,-1.54385 2.39844,-1.47476 4.37133,-3.48775 5.93269,-5.93337 3.53434,-5.53657 4.92698,-11.93736 6.15701,-18.38493 0.46608,-2.44271 0.81611,-4.91233 1.1839,-7.37585 0.43108,-2.88713 0.82373,-5.78105 1.24128,-9.13668 M 373.26461,427.50984 c -0.22419,2.41316 -0.5494,4.82134 -0.65087,7.24056 -0.19237,4.58736 -0.36237,9.17227 -0.18154,13.77615 0.23529,5.99134 0.85593,11.91183 1.92006,17.79301 3.94422,21.79734 14.06037,39.57334 29.70795,53.77688 7.45415,6.76625 15.60201,12.39525 24.1228,17.4205 8.08502,4.76826 16.43654,8.94536 24.8069,13.07788 8.58807,4.23998 17.19019,8.44648 25.58603,13.1264 13.08655,7.29447 25.09765,16.2991 36.18544,26.76334 9.42337,8.89341 18.17221,18.54447 26.85157,28.26766 8.84588,9.90974 17.68275,19.82559 27.03539,29.18496 9.13052,9.13718 18.86274,17.43976 29.19179,24.92237 12.47304,9.03588 25.64806,16.66198 39.49002,22.925 6.273,2.8382 12.61277,5.49845 19.1375,7.59275 1.29439,0.41553 2.64439,0.71063 3.98742,0.85063 5.13382,0.535 8.33305,-2.51003 9.71218,-6.35003 2.09836,-5.84261 1.25676,-11.2334 -2.58825,-15.97866 -1.43867,-1.77552 -3.21392,-3.11541 -5.11799,-4.2546 -2.9568,-1.76903 -6.1243,-2.97504 -9.32521,-4.08875 -0.37858,-0.13167 -0.77784,-0.21671 -1.17354,-0.26347 -1.37943,-0.16298 -2.52552,0.73483 -2.83188,2.18983 -0.3702,1.75804 0.21299,3.0954 1.78156,3.76609 1.33653,0.57158 2.73161,0.97988 4.0883,1.49881 2.26841,0.86778 4.46717,1.89511 6.44555,3.41331 1.25794,0.96541 2.3408,2.10814 3.08265,3.58295 1.2656,2.51638 1.37672,5.12428 0.37973,7.76458 -0.68312,1.80885 -2.01115,2.71702 -3.78058,2.59145 -1.18139,-0.0838 -2.38075,-0.35969 -3.50752,-0.76202 -3.11258,-1.1113 -6.20507,-2.2931 -9.28096,-3.51938 -20.86618,-8.31838 -40.14881,-19.79397 -57.94411,-34.2191 -9.75905,-7.91086 -18.79043,-16.72861 -27.39109,-26.06583 -5.99167,-6.5047 -11.89313,-13.10689 -17.82367,-19.67746 -9.28951,-10.29199 -18.687,-20.45747 -28.79431,-29.82572 -11.6065,-10.75771 -24.08486,-20.09631 -37.87312,-27.26433 -9.15594,-4.75988 -18.40355,-9.3139 -27.63055,-13.91198 -9.88868,-4.92795 -19.67505,-10.06365 -28.91631,-16.33295 -9.68866,-6.57293 -18.53904,-14.21593 -25.83481,-23.83787 -5.63997,-7.43823 -10.04066,-15.64703 -12.97119,-24.74218 -2.3548,-7.30822 -3.84258,-14.82931 -4.53259,-22.54451 -0.71242,-7.96609 -0.70865,-15.92241 -0.0129,-23.88437 0.12061,-1.3806 0.27213,-2.75921 0.34945,-4.14267 0.12504,-2.2378 -1.50427,-3.54159 -3.47616,-2.83111 -1.16063,0.41813 -1.90544,1.22998 -2.22287,2.97188 m 273.87537,-157.123 c -0.38409,-10.92381 -0.16401,-21.8466 0.12032,-32.76618 0.25495,-9.79103 0.63107,-19.57839 0.95321,-29.36736 0.006,-0.17325 10e-4,-0.34698 0.009,-0.52012 0.39896,-9.53951 0.0801,-19.06172 -0.49932,-28.58339 -0.42698,-7.01502 -1.27815,-13.96296 -2.48691,-20.86364 -1.54014,-8.79224 -3.84054,-17.34534 -6.93636,-25.64379 -0.29911,-0.80187 -0.6224,-1.59892 -1.00338,-2.35756 -0.47025,-0.93645 -1.25565,-1.28159 -2.22328,-1.17716 -1.70642,0.18417 -3.02437,2.07044 -2.67827,3.91188 0.11031,0.58632 0.38345,1.13543 0.56872,1.70664 1.37773,4.24854 2.90633,8.44826 4.09779,12.75741 3.20771,11.60057 4.6672,23.53813 5.24518,35.59096 0.41509,8.65409 0.58841,17.32306 0.23715,25.99605 -0.37875,9.3526 -0.70153,18.70877 -0.9494,28.06647 -0.25472,9.61765 -0.46297,19.23607 -0.25209,28.86235 0.16533,7.5459 0.61958,15.05901 1.43622,22.55411 1.03404,9.48935 2.76192,18.81706 5.40884,27.93316 3.83362,13.20309 9.5137,25.34475 17.82136,35.94233 1.39679,1.78171 2.95058,3.41776 4.39097,5.16073 1.40328,1.69809 3.12402,1.43604 4.23588,0.32093 1.1866,-1.1901 1.27932,-3.33499 -0.0999,-4.59641 -0.48684,-0.4453 -0.92383,-0.96267 -1.34292,-1.48539 -1.67817,-2.09298 -3.42142,-4.13239 -4.9942,-6.31546 -6.21921,-8.63275 -10.63514,-18.30574 -13.84367,-28.65132 -4.62494,-14.91238 -6.52328,-30.32999 -7.21484,-46.47524 m -244.0137,492.39299 c 4.28419,2.1333 8.51764,4.39769 12.86295,6.37303 9.38334,4.26539 19.09064,7.44305 29.05384,9.69004 0.62056,0.14006 1.27118,0.2413 1.89918,0.20129 1.46793,-0.0936 2.59018,-1.44795 2.69618,-3.13383 0.0821,-1.30561 -0.66863,-2.34989 -2.04404,-2.80391 -0.38029,-0.12546 -0.78022,-0.18034 -1.1696,-0.27478 -1.79312,-0.4351 -3.59373,-0.83754 -5.37718,-1.31513 -13.1776,-3.52897 -25.7578,-8.74243 -37.73213,-15.68223 -17.45108,-10.11388 -32.80723,-23.11198 -46.01622,-39.08841 -12.11514,-14.65343 -21.71503,-31.03117 -28.76562,-49.16294 -0.21687,-0.55768 -0.41207,-1.13252 -0.69124,-1.65286 -0.46765,-0.87159 -1.20397,-1.36245 -2.11891,-1.54627 -2.12237,-0.42632 -3.64873,1.27391 -3.12337,3.52269 0.15584,0.66699 0.41908,1.3084 0.66808,1.94547 2.90313,7.42864 6.2124,14.63774 9.99935,21.58478 9.14244,16.77142 20.43252,31.62677 33.86048,44.57938 10.86759,10.483 22.74619,19.36395 35.99825,26.76368 M 671.54658,408.44182 c -4.40805,-5.73686 -9.19833,-11.07755 -14.30507,-16.08135 -1.89635,-1.85808 -3.90022,-3.58697 -5.84408,-5.38863 -0.85774,-0.79502 -1.83896,-1.03798 -2.91074,-0.77646 -1.09017,0.26599 -1.86514,1.00937 -2.20802,2.15785 -0.33087,1.10809 0.0356,2.03603 0.85321,2.76893 0.49275,0.4417 0.97185,0.90129 1.46613,1.34092 8.25742,7.3442 15.60717,15.64022 22.08701,24.83665 11.29259,16.02665 19.391,33.78354 24.31593,53.22044 2.58859,10.21614 4.2425,20.61368 4.62266,31.22206 0.11474,3.2023 0.195,6.40605 0.2923,9.60911 0.01,0.34605 0.0146,0.69349 0.0465,1.0375 0.0879,0.95016 0.59004,1.58235 1.35223,1.99756 1.83204,0.99793 3.83896,-0.0622 4.21021,-2.26542 0.11346,-0.67379 0.0853,-1.37985 0.085,-2.07117 -0.004,-8.59366 -0.6538,-17.13695 -1.96754,-25.60525 -2.29195,-14.77439 -6.42844,-28.93512 -12.37455,-42.46469 -5.24965,-11.94491 -11.76863,-23.01974 -19.72115,-33.53805 M 355.72801,763.165 c 3.27031,2.33058 6.48008,4.76928 9.82344,6.96953 7.12525,4.68899 14.67995,8.41905 22.54458,11.4073 0.82236,0.31243 1.68118,0.59655 2.54165,0.68732 1.31437,0.13846 2.28927,-0.77645 2.55196,-2.18557 0.33369,-1.79 -0.24194,-3.05755 -1.77391,-3.79874 -0.58153,-0.28131 -1.20858,-0.44977 -1.80168,-0.70562 -3.41245,-1.47169 -6.89672,-2.77856 -10.21857,-4.46134 -22.8193,-11.55916 -40.65813,-29.09223 -53.4488,-52.62952 -0.28372,-0.52212 -0.54767,-1.06271 -0.88054,-1.54647 -0.985,-1.43136 -2.41589,-1.69839 -3.79216,-0.74531 -1.26651,0.87711 -1.74652,2.36127 -1.06825,3.8209 0.71726,1.54378 1.55256,3.02725 2.39221,4.49957 8.6355,15.14265 19.59195,27.96125 33.13007,38.68795 M 620.44278,162.07988 c 1.06762,6.30248 1.70028,12.66607 2.22127,19.04209 0.47933,5.86524 0.64439,11.7481 0.66332,17.63579 10e-4,0.51785 -0.004,1.04557 0.0807,1.55148 0.26352,1.56839 1.44251,2.63591 2.88828,2.53912 1.33923,-0.0897 2.6114,-0.93634 2.73009,-2.71306 0.023,-0.34463 0.0482,-0.69058 0.0451,-1.03561 -0.0817,-9.00478 -0.51251,-17.98195 -1.51601,-26.93076 -1.01211,-9.02574 -2.4416,-17.96291 -4.36893,-26.80909 -0.10988,-0.5042 -0.20015,-1.01841 -0.36275,-1.50308 -0.4948,-1.47523 -1.69389,-2.3097 -2.95374,-2.00961 -1.74512,0.41565 -2.64364,1.64887 -2.49575,3.24838 0.0634,0.68478 0.21,1.36143 0.33425,2.03846 0.88744,4.83314 1.77882,9.66543 2.7342,14.94589 z"
       id="path2"
       style="stroke-width:0.124959" />
  </g>
</svg>
