<?xml version="1.0" encoding="UTF-8" standalone="no"?>
<!-- Created with Inkscape (http://www.inkscape.org/) -->

<svg
   viewBox="0 0 1024 1024"
     preserveAspectRatio="xMidYMid meet"
   version="1.1"
   id="svg1"
   inkscape:version="1.4.2 (f4327f4, 2025-05-13)"
   sodipodi:docname="botella_plastica.svg"
   xmlns:inkscape="http://www.inkscape.org/namespaces/inkscape"
   xmlns:sodipodi="http://sodipodi.sourceforge.net/DTD/sodipodi-0.dtd"
   xmlns="http://www.w3.org/2000/svg"
   xmlns:svg="http://www.w3.org/2000/svg">
  <sodipodi:namedview
     id="namedview1"
     pagecolor="#ffffff"
     bordercolor="#000000"
     borderopacity="0.25"
     inkscape:showpageshadow="2"
     inkscape:pageopacity="0.0"
     inkscape:pagecheckerboard="0"
     inkscape:deskcolor="#d1d1d1"
     inkscape:document-units="mm"
     inkscape:zoom="0.17438447"
     inkscape:cx="1327.5265"
     inkscape:cy="1872.2998"
     inkscape:window-width="1920"
     inkscape:window-height="1001"
     inkscape:window-x="-9"
     inkscape:window-y="-9"
     inkscape:window-maximized="1"
     inkscape:current-layer="layer1" />
  <defs
     id="defs1" />
  <g
     inkscape:label="Layer 1"
     inkscape:groupmode="layer"
     id="layer1">
    <path
       fill="#000000"
       opacity="1"
       stroke="none"
       d="m 367.17075,844.62667 c -6.95756,-17.17918 -12.68721,-34.23442 -13.28398,-51.678 -0.45262,-13.23382 -0.49223,-26.72265 7.73891,-39.32243 4.64888,-7.11631 4.89795,-14.57347 1.46054,-21.80508 -3.92058,-8.24832 -4.61032,-16.64625 -4.63866,-25.13424 -0.0828,-24.86753 0.0579,-49.73558 -0.0528,-74.603 -0.0255,-5.97139 2.15953,-11.38338 7.13093,-16.27918 14.29653,-14.07918 12.81328,-28.25986 -0.19964,-42.12843 -6.97588,-7.43461 -8.89665,-14.31878 -0.45516,-21.75731 2.82931,-2.49309 4.8536,-5.44824 6.8681,-8.31393 6.62497,-9.42418 5.08508,-18.51054 -2.78612,-27.30056 -3.1253,-3.49006 -6.82054,-6.74762 -8.9183,-10.6599 -1.54973,-2.89025 -1.15565,-5.33441 0.73759,-8.23151 5.35518,-8.19459 13.549,-15.60032 14.00881,-25.19064 0.45211,-9.42403 -3.72866,-17.6439 -11.7007,-25.06916 -5.39622,-5.02608 -8.01083,-10.50435 -7.33543,-16.61267 0.83898,-7.58762 -2.49006,-14.99839 -1.55076,-22.59678 2.05122,-16.59333 2.30268,-33.46022 8.80461,-49.53361 13.96609,-34.52546 30.85118,-68.40385 55.92607,-100.13522 12.45847,-15.76582 24.87658,-31.54638 37.22658,-47.35127 2.40371,-3.07611 4.62475,-6.23647 6.53552,-9.46503 1.92626,-3.25471 2.1966,-6.45424 -2.11229,-9.20957 -2.99534,-1.91538 -3.39147,-4.37615 -1.04405,-6.61674 4.19496,-4.00397 0.90721,-4.9505 -4.3035,-5.31329 -0.6682,-0.0464 -1.34827,-0.0393 -2.00748,-0.11665 -5.59986,-0.6581 -6.66038,-2.04505 -3.22786,-5.14707 3.82823,-3.45966 3.50187,-7.6252 5.29193,-11.31442 4.12572,-8.50282 -0.84289,-16.21441 -1.46049,-24.26357 -1.5822,-20.62275 6.471,-20.61642 29.87083,-21.86925 29.37423,-1.57267 59.05685,-1.07866 88.51272,1.06046 15.20007,1.10385 20.73233,5.09673 20.62139,15.23503 -0.0757,6.91353 -0.85361,13.81795 -1.70625,20.71004 -0.81806,6.61233 -0.55696,14.44985 7.21091,20.34362 1.00926,0.76568 1.64987,1.75399 2.52253,2.70606 -3.67666,3.95959 -12.02662,1.591 -15.93614,5.89418 5.32835,3.40618 6.49513,6.86954 -0.46378,10.37207 -2.14226,1.07826 -1.24927,3.48816 -0.30886,5.18136 1.88644,3.39691 3.7077,6.8582 6.27224,10.0272 23.55948,29.11302 47.53166,58.12824 65.26558,89.14115 15.50116,27.1085 29.73286,54.58551 35.12035,83.6763 1.7505,9.45258 3.6414,18.96083 3.83123,28.45863 0.18033,9.02742 -1.56544,18.08888 -2.9024,27.10558 -0.52266,3.52477 -3.71399,6.45709 -6.901,9.23474 -15.71984,13.70047 -17.6976,31.07314 1.94464,46.00554 4.80642,3.65388 5.6208,7.81904 2.0109,12.19946 -1.96285,2.38166 -3.8859,4.78373 -6.02312,7.09323 -13.41636,14.49765 -12.3308,28.68496 3.29597,42.15044 7.92205,6.8264 8.04763,10.21591 0.0817,17.39354 -13.8844,12.5108 -16.9528,29.57075 -0.54775,43.77577 4.9137,4.25475 6.73099,9.01607 6.69366,14.40657 -0.17627,25.47413 -0.27533,50.95033 0.0305,76.4234 0.10968,9.16717 -1.14052,18.10859 -4.5165,26.98664 -2.08455,5.48182 -3.01881,11.40302 0.52927,16.54838 7.64138,11.08081 8.77083,22.84092 9.14012,34.62506 0.71977,22.96577 -3.56703,45.56987 -12.83726,67.70877 -4.3453,10.37744 -14.94552,16.04673 -29.80473,18.94087 -21.47306,4.18241 -43.53061,5.28136 -65.63895,6.24718 -38.48343,1.68105 -77.01064,0.78691 -115.51098,0.62309 -25.32648,-0.1077 -50.39071,-2.30405 -75.0126,-6.71531 -13.27461,-2.37831 -22.3136,-7.31399 -26.35744,-16.29607 -1.49961,-3.33094 -3.29754,-6.6002 -5.13856,-10.24449 M 617.38661,292.64851 c -2.59182,-6.11936 -5.10393,-12.25181 -8.86644,-18.1139 -10.34307,-16.1147 -20.54585,-32.27106 -31.0338,-48.34225 -1.13935,-1.74594 -2.03294,-3.12247 -0.0203,-4.45476 -6.1904,-2.85618 -12.31901,3.16552 -18.83482,-0.52726 4.90166,-2.43987 9.72034,-1.90418 14.59385,-1.59685 3.29257,0.20772 7.16764,0.50982 9.12504,-1.78841 1.82405,-2.14174 -0.33577,-4.38564 -2.28809,-5.81201 -4.83434,-3.53154 -5.75713,-7.5451 -5.67199,-12.10948 0.0554,-2.96533 -1.88949,-6.24448 -7.26245,-5.88808 -9.53716,0.63257 -19.46263,-2.91759 -28.67133,1.19576 -0.53978,0.24109 -1.93266,0.1135 -2.4413,-0.20222 -3.43456,-2.1324 -7.63219,-1.46905 -11.55288,-1.46353 -15.00659,0.0207 -30.01313,0.1531 -45.01888,0.28372 -8.19281,0.0715 -11.98624,4.07054 -8.73203,9.3242 0.58677,0.94722 0.80053,1.5768 0.0407,2.46685 -2.67157,3.13719 -5.21665,6.32362 -7.86724,9.46916 -1.09398,1.29835 -3.08242,2.52404 -1.9573,4.12207 1.73302,2.46118 -0.065,4.38647 -1.45164,6.44062 -14.98084,22.19401 -30.10745,44.3438 -43.16843,67.10546 -24.8715,43.34435 -39.6308,87.96109 -37.15277,134.75654 0.36118,6.82712 -1.78011,14.49033 13.77119,16.69086 -8.27185,2.74023 -4.46495,5.77359 -2.83224,8.4612 8.99164,14.80109 7.86569,28.89443 -6.01266,42.173 -1.78402,1.70686 -2.45776,3.55177 -1.79414,5.59347 1.20554,3.70932 2.44959,7.27099 7.55117,9.75929 6.04685,2.94933 3.2976,7.84205 4.83105,11.81049 4.70642,12.17978 1.67013,23.42083 -8.24843,33.87271 -5.98151,6.30314 -5.30403,10.60219 1.71398,16.37675 4.48947,3.69413 13.11649,6.74292 7.24109,13.22663 -0.38403,0.42361 -0.10824,1.2096 0.11228,1.78263 4.35573,11.31923 0.81683,21.90743 -7.10501,31.89085 -4.00958,5.05308 -5.95011,9.95911 -6.12238,15.87765 -0.79869,27.4407 1.42067,54.86064 0.60659,82.29363 -0.15189,5.12514 -0.31444,10.32455 2.12121,15.32135 4.93782,10.13074 4.90556,19.99862 -0.90551,30.17951 -7.20347,12.6203 -7.03126,25.94681 -5.25901,39.26706 2.18745,16.44213 7.19064,32.66189 8.33838,49.18707 0.37133,5.34395 14.24521,10.60826 20.31939,7.54735 4.80268,-2.42023 10.18275,-3.35827 15.64435,-3.6377 9.57237,-0.48977 15.25066,-4.92834 22.70319,-8.55485 -6.61201,-2.9617 -8.34962,-7.09732 -7.54686,-11.40721 1.17608,-6.31354 3.59944,-12.53564 7.76493,-18.27563 1.802,-2.48335 2.45156,-4.6714 1.57397,-7.35613 -0.7164,-2.19167 -1.95064,-4.70402 1.69076,-6.77714 3.61657,2.32042 2.09624,5.23065 2.76088,7.77768 0.43838,1.67963 -0.47446,4.18593 3.08358,4.4429 4.13328,0.29853 8.83056,0.85041 12.41549,-0.9247 3.5872,-1.7763 7.31805,-2.00589 11.38758,-2.02165 10.14877,-0.0396 20.10375,0.73685 29.73114,3.0218 2.88293,0.68419 5.25092,0.96149 7.63077,-1.14514 2.42849,-2.14998 5.30035,-2.10202 6.519,1.01931 0.38098,0.97586 -0.0783,2.20038 2.26848,2.83075 3.26688,-2.34491 7.67212,-2.06302 12.16276,-1.90915 12.36631,0.42397 25.17573,2.68753 35.9897,-3.88446 1.14661,-0.69688 3.41642,-0.80325 5.14274,-0.7612 6.99671,0.17059 12.41685,-1.71479 17.26516,-5.05947 6.72378,-4.63848 11.54444,-3.5687 13.74416,2.85453 0.50137,1.46367 0.55547,3.00077 0.75439,4.50775 0.16815,1.27422 0.61532,2.64624 2.55326,2.94357 8.50298,1.30427 7.15977,5.58811 6.81115,9.70663 -0.4709,5.56438 -0.90761,11.13555 -1.01296,16.70678 -0.0686,3.63073 4.36613,6.4415 10.52452,6.89169 4.48236,0.32775 6.10054,-1.39356 8.05991,-4.11471 2.15714,-2.99575 2.54884,-5.71342 2.61006,-8.83872 0.0615,-3.14061 0.42821,-6.47979 2.06325,-9.36815 5.42431,-9.58241 10.07868,-19.2441 11.22869,-29.55474 0.16611,-1.49133 0.52444,-3.0152 1.21204,-4.43085 5.51975,-11.36424 4.44325,-22.97924 1.9226,-34.45515 -1.77707,-8.09103 -3.88203,-15.91069 -0.52296,-24.0874 1.34879,-3.28321 2.17958,-7.88373 -0.18846,-10.40755 -5.95367,-6.34552 -2.85922,-13.15795 -4.47983,-19.64994 -1.09641,-4.39139 -2.2569,-8.90946 -1.01133,-13.46951 0.32968,-1.20584 -1.09105,-2.23969 -2.14458,-3.24173 -2.18899,-2.08189 -5.21697,-3.10129 -8.75417,-3.88417 -4.90933,-1.08676 -5.8784,-4.0019 -5.31113,-7.02863 0.41856,-2.23398 3.22698,-3.89866 6.18673,-3.0893 5.76013,1.5751 7.61258,-0.72876 8.58699,-3.47357 2.30216,-6.48526 1.9638,-13.15427 0.65864,-19.66509 -0.82449,-4.11353 -5.26338,-6.06919 -11.89815,-5.05432 -2.74512,0.41992 -5.96139,1.59495 -8.53305,-0.57338 1.48865,-2.61298 4.63938,-2.87253 7.76275,-3.11525 12.23148,-0.95058 18.97548,-8.77602 14.15922,-16.47304 -1.13335,-1.81117 -3.03117,-3.54603 -3.35856,-5.41399 -0.56899,-3.24665 -2.53933,-6.1553 -1.81612,-9.82656 1.29118,-6.55514 0.90415,-13.19658 7.43103,-18.7365 -4.40115,-4.75475 0.81388,-10.25178 -2.8197,-14.7871 1.65256,-1.85289 5.7295,-1.08169 5.86518,-4.109 0.40994,-9.14332 -2.75355,-17.77924 -6.84101,-26.32773 -1.70848,-3.57303 -4.57633,-7.29927 -4.82575,-10.68491 -0.26568,-3.61097 -0.84264,-7.11507 -1.93794,-10.60292 8.83391,-2.56357 9.4951,-3.96909 4.67244,-9.62289 -1.27701,-1.49711 -2.69579,-3.32806 0.51418,-4.24116 4.32732,-1.23109 3.60559,-3.48267 3.29495,-5.67399 -0.19506,-1.37602 -0.86417,-2.82274 0.58866,-3.92746 3.91641,-2.97807 2.12538,-5.29442 -1.05208,-7.95081 -6.31002,-5.27525 -6.36015,-7.29989 -1.60191,-12.47662 0.20573,-0.22354 0.0945,-0.58077 0.14369,-0.97985 -0.687,-1.16471 -3.32103,-1.59866 -3.0613,-3.59808 6.53938,-2.72553 4.06211,-7.28277 2.30618,-10.73306 -1.22499,-2.40674 -0.77741,-3.5972 0.65464,-5.50953 4.51919,-6.03465 3.02613,-12.24734 -3.81148,-16.64895 7.95039,-3.76184 9.08563,-8.99256 6.86728,-14.9165 -0.27279,-0.72901 -0.27483,-1.5029 -0.4394,-2.25226 -1.86958,-8.51011 0.69211,-17.28463 -3.38823,-25.66735 -1.57002,-3.22532 -1.46974,-6.46705 -0.80805,-9.86329 1.30902,-6.71857 3.82407,-13.54238 0.1366,-20.24527 -3.45599,-6.28243 -6.42905,-12.74205 -7.29292,-19.32481 -2.66983,-20.34419 -13.18609,-39.22627 -22.68739,-59.07043 M 478.12753,188.54436 c 5.7986,-0.22801 11.64609,-0.8966 17.38724,-0.60508 21.44329,1.08881 42.90847,0.65932 64.36437,0.79238 2.27972,0.0133 4.9401,0.66356 6.85518,-0.95362 -8.73699,-3.34772 -89.18878,-3.83531 -95.1066,-0.58903 1.36409,1.32374 3.61846,0.90544 6.49981,1.35535 M 369.43812,387.87458 c 0,8.54829 0,17.09658 0,25.64486 -0.0925,-18.06889 7.15367,-35.80124 5.39265,-53.94621 -9.11041,12.80627 -7.939,26.76143 -10.01827,40.34684 2.52497,-4.51578 0.47904,-9.64938 4.18043,-14.48205 0.20116,0.92725 0.29767,1.37217 0.44499,2.43656 m 94.37384,-224.51474 c 5.62759,1.83199 11.02783,-0.71373 17.57091,0.056 -4.03651,-4.00217 0.78061,-4.31923 3.54352,-5.29249 3.01369,-1.06155 4.20667,-2.54682 3.65445,-4.77193 -0.6232,-2.51091 -3.50871,-2.34875 -6.17298,-2.40345 -2.22479,-0.0458 -4.45329,-0.0207 -6.68002,-0.01 -9.01507,0.0399 -9.42979,0.38844 -9.49781,6.33465 -0.0203,1.9398 1.84402,4.30888 -2.41807,6.08844 m 13.80947,6.19569 c 0.59301,-0.88077 1.03146,-1.66749 -0.95917,-2.06288 -7.94836,-1.57881 -13.30419,0.24829 -16.93151,5.83171 8.04868,1.62709 14.76706,0.40242 17.89068,-3.76883 z"
       id="path1"
       style="stroke-width:1.1059" />
    <path
       fill="#000000"
       opacity="1"
       stroke="none"
       d="m 614.53592,650.81262 c -1.28407,0.63692 -2.21708,1.28005 -3.21841,1.33316 -7.19852,0.38178 -12.18165,3.05292 -15.74524,7.02393 -3.57129,3.97976 -8.16674,4.2454 -14.35732,2.99289 -7.82412,-1.58305 -14.16985,-5.08779 -21.77741,-6.88781 -2.93353,-0.69414 -5.7202,-1.54248 -8.84402,-1.94434 -9.02853,-1.16136 -12.60943,-7.08777 -7.60913,-12.20947 1.00925,-1.03375 2.23293,-1.42796 3.95057,-0.87313 4.55347,1.47089 8.6613,0.54048 13.39354,-0.19949 7.87165,-1.23104 16.29822,-1.59449 24.36463,-1.18387 4.18885,0.21324 8.03725,2.99965 11.06217,5.38452 2.12504,1.67527 4.51589,2.7529 7.51485,2.04955 4.30208,-1.00899 6.81704,3.88853 10.9149,1.03447 1.66039,1.21692 1.42866,2.20324 0.35102,3.47973 z"
       id="path2"
       style="stroke-width:1.1059" />
    <path
       fill="#000000"
       opacity="1"
       stroke="none"
       d="m 628.43379,369.22772 c -0.0407,-2.41003 -0.14985,-4.38206 -0.0858,-6.35154 0.0407,-1.298 -0.45769,-2.97078 2.55788,-3.08837 2.65156,-0.1036 3.34078,1.28037 3.64054,2.68784 1.213,5.69584 2.48585,11.38806 3.49363,17.1013 2.0144,11.41964 5.1186,22.77661 4.64441,34.34852 -0.071,1.7407 0.87763,4.25368 -2.3743,4.70999 -3.71867,0.52185 -4.18935,-2.17421 -5.28801,-3.91328 -4.4267,-7.00698 -3.9243,-14.55632 -4.90835,-21.9061 -1.02928,-7.68752 -1.15444,-15.43054 -1.68001,-23.58836 z"
       id="path3"
       style="stroke-width:1.1059" />
    <path
       fill="#000000"
       opacity="1"
       stroke="none"
       d="m 494.90467,389.62089 c 0.89207,-8.47065 0.89267,-16.58516 4.62907,-24.42996 0.19049,17.12729 -0.56564,34.20139 -4.9941,51.1301 -2.69057,-8.80375 -0.16104,-17.53211 0.36524,-26.70014 z"
       id="path4"
       style="stroke-width:1.1059" />
    <path
       fill="#000000"
       opacity="1"
       stroke="none"
       d="m 386.18396,404.11556 c -0.24891,4.45225 -0.098,8.52301 -3.42256,12.26813 0.55066,-16.16322 2.96072,-32.20455 7.0379,-48.16088 2.68407,3.88141 0.61146,7.76322 0.20168,11.61794 -0.41553,3.91308 -1.21616,7.80729 -1.84056,11.71035 -0.64768,4.04847 -1.28642,8.09755 -1.97666,12.56446 z"
       id="path5"
       style="stroke-width:1.1059" />
    <path
       fill="#000000"
       opacity="1"
       stroke="none"
       d="m 615.0347,658.46754 c 2.49779,-1.78559 5.5478,-2.29837 7.47544,-0.83534 2.80673,2.13023 5.96175,2.06375 9.2756,1.67109 1.96553,2.1561 0.61435,3.43854 -1.80866,4.29538 -4.05429,1.43392 -8.34077,2.50646 -12.6809,0.62564 -2.91916,-1.26494 -4.06414,-3.14895 -2.26148,-5.75677 z"
       id="path6"
       style="stroke-width:1.1059" />
    <path
       fill="#000000"
       opacity="1"
       stroke="none"
       d="m 402.70296,409.29117 c 1.63712,-10.3901 3.24639,-20.36888 4.85567,-30.34769 0.85132,0.0556 1.7026,0.1115 2.55381,0.16679 -1.62101,12.16917 -3.24206,24.33835 -4.86313,36.50754 -3.44476,-1.85625 -2.34661,-3.9506 -2.54635,-6.32681 z"
       id="path7"
       style="stroke-width:1.1059" />
    <path
       fill="#000000"
       opacity="1"
       stroke="none"
       d="m 434.1913,394.79648 c -0.86515,7.14248 -0.79118,13.97604 -4.88428,20.38625 -0.99854,-8.85345 0.0888,-17.56228 3.30191,-26.19976 2.09481,1.66256 1.39497,3.58815 1.58237,5.81351 z"
       id="path8"
       style="stroke-width:1.1059" />
    <path
       fill="#000000"
       opacity="1"
       stroke="none"
       d="m 504.85924,659.09557 c 2.39864,0.38013 4.31595,0.66813 6.12913,0.94055 0.88333,2.28222 -0.91166,2.95625 -3.38853,3.17721 -5.10072,0.45538 -7.40527,-2.01024 -9.93258,-4.36164 2.44045,-1.74939 4.54501,-0.2569 7.19198,0.24385 z"
       id="path9"
       style="stroke-width:1.1059" />
    <path
       fill="#000000"
       opacity="1"
       stroke="none"
       d="m 603.84844,792.24778 c -4.13705,-0.51691 -3.68464,-2.02059 -2.403,-3.7019 0.94148,-1.23499 2.04299,-2.46455 4.50049,-2.04134 2.27321,0.39156 2.92332,1.80633 3.14861,3.13473 0.40842,2.40783 -2.26757,2.51206 -5.2461,2.60851 z"
       id="path10"
       style="stroke-width:1.1059" />
    <path
       fill="#000000"
       opacity="1"
       stroke="none"
       d="m 496.70815,688.21127 c -1.78331,-1.15325 -3.43227,-2.01794 -2.64174,-3.53285 2.08103,-1.27002 4.04895,-0.54546 5.71085,0.055 2.34357,0.84693 7.05884,1.10755 5.76177,3.42514 -1.62178,2.89785 -5.47938,1.373 -8.83088,0.0526 z"
       id="path11"
       style="stroke-width:1.1059" />
  </g>
</svg>
