<?xml version="1.0" encoding="UTF-8" standalone="no"?>
<!-- Created with Inkscape (http://www.inkscape.org/) -->

<svg
   viewBox="0 0 1024 1024"
     preserveAspectRatio="xMidYMid meet"
   version="1.1"
   id="svg1"
   inkscape:version="1.4.2 (f4327f4, 2025-05-13)"
   sodipodi:docname="botella_galon.svg"
   xmlns:inkscape="http://www.inkscape.org/namespaces/inkscape"
   xmlns:sodipodi="http://sodipodi.sourceforge.net/DTD/sodipodi-0.dtd"
   xmlns="http://www.w3.org/2000/svg"
   xmlns:svg="http://www.w3.org/2000/svg">
  <sodipodi:namedview
     id="namedview1"
     pagecolor="#ffffff"
     bordercolor="#000000"
     borderopacity="0.25"
     inkscape:showpageshadow="2"
     inkscape:pageopacity="0.0"
     inkscape:pagecheckerboard="0"
     inkscape:deskcolor="#d1d1d1"
     inkscape:document-units="mm"
     inkscape:zoom="0.087192235"
     inkscape:cx="2276.5789"
     inkscape:cy="1806.3535"
     inkscape:window-width="1920"
     inkscape:window-height="1001"
     inkscape:window-x="-9"
     inkscape:window-y="-9"
     inkscape:window-maximized="1"
     inkscape:current-layer="layer1" />
  <defs
     id="defs1" />
  <g
     inkscape:label="Layer 1"
     inkscape:groupmode="layer"
     id="layer1">
    <path
       fill="#ffffff"
       opacity="1"
       stroke="none"
       d="m 117.40948,402.05878 c 0,-103.6221 0,-207.03157 0,-310.441045 251.53104,0 503.06207,0 754.59311,0 0,282.657285 0,565.314575 0,847.971805 -251.53104,0 -503.06207,0 -754.59311,0 0,-179.106 0,-358.21209 0,-537.53076 M 554.18387,224.77176 c 0.0396,-2.17948 0.0793,-4.35896 0.16546,-6.91746 0.005,-1.79187 0.0245,-3.58389 0.004,-5.37547 -0.005,-0.46764 -0.13759,-0.93389 -0.16464,-1.60176 0,0 -0.0609,-0.1977 0.004,-0.59093 0.005,-4.0295 0.0153,-8.059 0.016,-12.08851 0,-3.81746 0.0593,-7.63641 -0.0302,-11.45199 -0.12046,-5.13932 -3.56504,-9.04605 -9.08092,-10.36527 -0.86577,-0.0499 -1.73152,-0.14314 -2.5973,-0.14333 -31.6934,-0.007 -63.38679,-0.006 -95.0802,-0.006 -0.65417,1e-5 -1.31209,-0.0331 -1.96103,0.0251 -0.33886,0.0304 -0.66202,0.22636 -1.32164,0.39453 -4.3188,0.97784 -6.92881,3.70469 -8.12506,7.74307 -0.33473,1.13002 -0.33354,2.37845 -0.33852,3.57314 -0.0291,7.01063 -0.0165,14.02144 -0.0115,21.03221 0,0.56468 0.0533,1.12933 0.0242,1.8932 0,0 0.0471,0.20181 -0.0784,0.58689 0.0316,2.29287 0.0631,4.58574 0.0397,7.09726 0.0233,0.0715 0.0464,0.14308 0.0203,0.60748 0.0828,1.93853 -0.23182,3.89892 0.23562,5.94799 2.03884,0.0196 3.98071,0.0383 6.10939,0.36016 0.0908,0.68754 0.25574,1.37465 0.26034,2.06274 0.0259,3.86994 0.0134,7.74011 0.001,11.60179 0,0 -0.0146,-0.002 -0.32319,0.004 -0.5002,0.0386 -1.03824,-0.0462 -1.71468,0.46996 -0.75536,0.41233 -1.56858,0.75011 -2.25303,1.2538 -1.12769,0.82989 -1.93558,1.95162 -2.18377,3.31676 -0.82177,4.51995 1.7301,7.48111 5.57067,8.13552 0.28545,0.0487 0.57708,0.063 0.89262,0.48293 -0.017,4.60028 -0.0323,9.20056 -0.059,13.8008 -0.001,0.12139 -0.12378,0.24213 -0.18996,0.36333 -0.12276,0.0665 -0.24504,0.19041 -0.36822,0.19122 -5.88698,0.0376 -11.77401,0.0647 -18.04433,0.0784 -0.50782,0.006 -1.02934,-0.0585 -1.52123,0.031 -2.91588,0.53074 -5.77033,1.25718 -8.48783,2.46103 -4.96694,2.20033 -9.50458,5.08272 -13.90541,8.18898 -0.64273,0.45369 -1.27905,0.9187 -1.89013,1.41165 -1.89036,1.52493 -3.74409,3.09364 -5.65485,4.59358 -2.42131,1.90069 -4.79402,3.85039 -6.98655,6.00215 -1.27786,1.25413 -2.57765,2.48718 -3.84506,3.75114 -0.65511,0.6533 -1.26107,1.35335 -2.09028,2.12135 -0.0816,0.11566 -0.1633,0.23128 -0.23383,0.34885 0,0 -0.004,-0.0138 -0.2722,0.10014 -4.09698,3.62499 -7.64822,7.76174 -11.49201,11.62418 -0.10079,0.10135 -0.18227,0.22062 -0.27663,0.3283 -1.45985,1.66569 -2.9165,3.33401 -4.38189,4.99506 -1.13545,1.287 -2.31067,2.54176 -3.41697,3.85192 -1.65825,1.96385 -3.27778,3.95885 -4.90235,5.94946 -1.94119,2.37851 -3.94272,4.71461 -5.78915,7.16136 -3.48114,4.61292 -6.82943,9.32091 -10.30843,13.9354 -3.53035,4.6826 -6.61642,9.64578 -9.75915,14.5677 -3.37747,5.28954 -6.34728,10.80948 -9.17392,16.40234 -2.09067,4.1366 -3.83271,8.39578 -5.33501,12.76396 -1.44412,4.19902 -2.10177,8.50627 -2.10205,12.91021 -0.008,125.2928 -0.0137,250.58559 0.008,375.87843 10e-4,8.91679 -0.33253,17.84146 0.39337,26.74928 0.0505,0.61958 -0.14542,1.29084 0.37591,2.1884 0.0367,0.49398 0.0272,0.99603 0.11714,1.48068 0.90698,4.8874 2.30427,9.63831 4.45239,14.14763 3.6865,7.73834 8.76498,14.45635 15.51359,19.96117 3.47052,2.83092 7.18663,5.27888 11.20253,7.28791 3.81956,1.91071 7.81536,3.39825 12.2055,4.62706 0.51126,0.0643 1.02251,0.12858 1.88287,0.23719 0.41389,0.10435 0.82204,0.2472 1.24259,0.30685 3.10084,0.43968 6.196,0.93654 9.6143,1.20544 0.79343,0.0463 1.58684,0.13315 2.38028,0.13321 82.62506,0.006 165.25016,0.006 247.87523,0.006 0.58184,0 1.16821,0.04 1.74387,-0.0184 0.33779,-0.0343 0.65864,-0.22669 1.38153,-0.38873 2.76901,-0.0269 5.50059,-0.40474 8.21692,-0.88005 7.1664,-1.25398 13.81802,-3.81594 20.02161,-7.51466 4.87316,-2.90544 9.15106,-6.49016 12.98377,-10.60594 2.05817,-2.21021 3.91088,-4.57244 5.5605,-7.07423 3.12029,-4.73224 5.50682,-9.79825 7.05756,-15.2299 1.2698,-4.44791 2.10894,-8.9549 2.12692,-13.58631 0.005,-1.41719 0.0186,-2.83439 0.0186,-4.25157 0.001,-103.81282 0.001,-207.62563 0.001,-311.43847 0,-51.51664 -0.004,-103.03333 0.008,-154.54997 10e-4,-4.18119 -0.19292,-8.33438 -0.86516,-12.47558 -0.91511,-5.63651 -2.58754,-11.03187 -5.15153,-16.15167 -3.53091,-7.05067 -8.52427,-12.97416 -14.80712,-17.87283 -7.49265,-5.84192 -15.98541,-9.73697 -25.17761,-12.27744 -3.84734,-1.06328 -7.76578,-1.80399 -11.70519,-2.42984 -1.71236,-0.27204 -3.46086,-0.32861 -5.57882,-0.53581 -3.89292,-0.56116 -7.81308,-0.41978 -11.72671,-0.42094 -17.00021,-0.005 -34.00036,-0.002 -51.00055,-0.002 -0.65386,-1e-5 -1.31065,0.0332 -1.96046,-0.0176 -0.40429,-0.0316 -0.798,-0.1923 -1.28985,-0.31914 0,-4.89423 0,-9.70096 0.0263,-14.4963 0,0 0.0289,-3e-5 0.25793,-0.0353 0.18691,-0.12267 0.37385,-0.24533 0.85866,-0.453 0.32644,-0.14968 0.67275,-0.26851 0.97644,-0.45363 4.73224,-2.88425 4.13904,-9.32409 -0.31992,-11.41376 -0.32568,-0.15265 -0.64751,-0.31301 -1.10432,-0.66775 -0.21974,-0.0874 -0.43949,-0.17474 -0.69669,-0.24416 0,0 -0.0368,0.0192 -0.0135,-0.37751 0.0229,-4.38481 0.0456,-8.76966 0.44613,-13.18692 1.20707,-0.007 2.41573,0.0172 3.62025,-0.0408 0.38828,-0.0186 0.76554,-0.25483 1.23343,-0.78004 z"
       id="path1"
       style="stroke-width:0.107734" />
    <path
       fill="#83b4dd"
       opacity="1"
       stroke="none"
       d="m 368.51294,854.59859 c -3.14478,-0.044 -6.23993,-0.54082 -9.34078,-0.98051 -0.42054,-0.0596 -0.82869,-0.2025 -1.52405,-0.43866 -0.7934,-0.19528 -1.30532,-0.25887 -1.81729,-0.32241 -4.17425,-1.01176 -8.17005,-2.4993 -11.98961,-4.41003 -4.0159,-2.00903 -7.73202,-4.45698 -11.20254,-7.28789 -6.74861,-5.50484 -11.82707,-12.22285 -15.51358,-19.96119 -2.14813,-4.50931 -3.5454,-9.26023 -4.4524,-14.14763 -0.0899,-0.48465 -0.0805,-0.9867 0.0663,-1.68579 1.03538,-0.33011 1.88487,-0.4763 2.74024,-0.57352 0.71625,-0.0814 1.44366,-0.073 2.1586,-0.16186 1.71256,-0.21268 3.41859,-0.47521 5.13124,-0.68711 1.57246,-0.19451 3.15877,-0.29502 4.72361,-0.53272 3.41294,-0.51854 6.81721,-1.09196 10.22114,-1.6646 0.26258,-0.0441 0.49502,-0.25831 0.86735,-0.38571 0.29494,0.0127 0.46395,0.0177 0.63995,0.19042 0.10423,0.64797 0.11854,1.16287 0.31218,1.60298 1.19977,2.72688 2.38954,5.46201 4.06306,7.95979 2.02067,3.01598 3.99207,6.06425 6.73977,8.54334 1.33235,1.20217 2.53865,2.5374 3.87961,3.72962 1.2273,1.09114 2.49295,2.16399 3.85738,3.08173 3.709,2.49489 7.6004,4.64331 11.89626,6.1039 3.08599,1.04924 6.20333,1.88202 9.61218,2.39668 0.55465,0.0132 0.95027,-0.0654 1.27493,0.0481 1.40813,0.49269 2.86156,0.38238 4.30683,0.38285 12.9297,0.004 25.8594,0.002 38.99444,0.005 60.01479,10e-4 119.82426,-0.005 179.63374,0.018 3.4922,10e-4 6.9317,-0.25644 10.37373,-0.84471 3.23523,-0.55296 6.28712,-1.61399 9.27617,-2.84197 1.99232,-0.81848 3.89334,-1.8737 5.76423,-2.94095 3.26198,-1.86084 6.34319,-3.97407 9.00729,-6.61705 0.86644,-0.85966 1.74087,-1.71179 2.62309,-2.55609 1.55853,-1.49148 2.86714,-3.18282 4.13759,-4.9027 2.17,-2.93754 3.97213,-6.08142 5.56663,-9.3485 1.34311,-2.75199 2.23956,-5.64894 3.18047,-8.54079 0.64016,-1.96731 0.79128,-4.0079 1.20621,-6.00683 0.46084,-2.21969 0.58632,-4.47937 0.48424,-6.74665 -0.016,-0.35358 -10e-4,-0.70851 -10e-4,-1.06279 0,-113.65541 -0.004,-227.3108 0.0319,-340.96618 0,-1.73193 -0.45016,-3.16103 -1.4874,-4.51598 -3.20446,-4.18611 -6.21861,-8.50665 -9.6275,-12.5493 -2.25328,-2.6723 -4.36991,-5.45155 -6.88288,-7.90953 -0.35416,-0.34645 -0.59995,-0.79556 -0.93302,-1.16552 -0.47821,-0.53118 -0.98447,-1.03901 -1.49017,-1.54604 -0.3917,-0.39273 -0.89945,-0.42152 -1.4486,-0.5825 -0.0216,-0.83589 -0.009,-1.47333 -0.009,-2.1108 10e-4,-23.65968 10e-4,-47.31933 -10e-4,-70.97901 0,-1.55634 -0.11394,-3.09425 -0.35331,-4.64564 -1.27253,-8.24694 -5.39152,-14.83076 -12.02752,-20.01107 -2.11094,-1.64789 -4.47785,-2.86823 -6.83707,-4.30473 0.0115,-1.54262 0.0128,-2.88545 0.0264,-4.22813 0.005,-0.49377 -0.0723,-1.02481 0.0848,-1.47349 0.41115,-1.17454 0.31931,-2.37185 0.32836,-3.56721 0.017,-2.26144 0.0102,-4.52304 0.0261,-6.78449 0.004,-0.56379 -0.0717,-1.16871 0.10781,-1.68228 0.36392,-1.04133 0.2941,-2.09298 0.29702,-3.14692 0.0213,-7.70309 0.0326,-15.40621 0.0469,-23.10932 1.73209,0.15443 3.48059,0.211 5.19296,0.48304 3.93939,0.62585 7.85784,1.36656 11.70517,2.42984 9.1922,2.54046 17.68497,6.43551 25.17761,12.27744 6.28285,4.89867 11.27621,10.82216 14.80712,17.87283 2.564,5.1198 4.23642,10.51515 5.15153,16.15166 0.67225,4.14121 0.86618,8.2944 0.86516,12.47558 -0.0128,51.51664 -0.008,103.03334 -0.008,154.54998 -5e-5,103.81284 6e-5,207.62565 -10e-4,311.43846 0,1.41719 -0.013,2.83439 -0.0186,4.25158 -0.018,4.63141 -0.85713,9.1384 -2.12693,13.5863 -1.55074,5.43166 -3.93727,10.49767 -7.05755,15.22991 -1.64963,2.50178 -3.50234,4.86402 -5.5605,7.07422 -3.83273,4.11578 -8.11062,7.7005 -12.98378,10.60595 -6.20358,3.69872 -12.85521,6.26068 -20.02161,7.51465 -2.71633,0.4753 -5.44791,0.85312 -8.61602,0.87327 -0.83541,-0.0121 -1.27168,-0.022 -1.70793,-0.022 -83.12332,-0.001 -166.24662,-0.001 -249.36994,0.002 -0.72581,0 -1.45164,0.0452 -2.17746,0.0694 z"
       id="path2"
       style="stroke-width:0.107734" />
    <path
       fill="#b1d3ec"
       opacity="1"
       stroke="none"
       d="m 615.06969,267.70736 c 0.17858,7.72949 0.16738,15.43261 0.14606,23.1357 -0.003,1.05394 0.0669,2.10559 -0.29702,3.14692 -0.17949,0.51357 -0.10398,1.11849 -0.10781,1.68229 -0.0153,2.26144 -0.009,4.52304 -0.0259,6.78448 -0.009,1.19536 0.0828,2.39267 -0.32836,3.56721 -0.15704,0.44868 -0.0796,0.97972 -0.0848,1.47349 -0.0142,1.34268 -0.0156,2.68551 -0.18882,4.20557 -1.12939,-0.13964 -2.08929,-0.46503 -3.0553,-0.77204 -3.33341,-1.05938 -6.75937,-1.66692 -10.25956,-1.51938 -2.08584,0.0879 -4.18104,0.41377 -6.22688,0.83864 -2.63073,0.54637 -5.17871,1.44343 -7.55693,2.66298 -3.23063,1.65666 -6.0774,3.82203 -8.60438,6.4264 -2.07001,2.13331 -3.79456,4.48088 -5.15708,7.06219 -2.35737,4.46625 -3.5227,9.22589 -3.51849,14.27751 0.024,28.9024 0.0115,57.80479 0.0102,86.70718 -5e-5,0.77882 -0.02,1.55762 -0.20742,2.32711 -0.67294,0.0773 -1.17934,0.12766 -1.66385,0.25624 -3.86866,1.02663 -7.78414,1.67491 -11.81399,1.44697 -0.0726,-0.004 -0.14556,-0.004 -0.21816,-10e-4 -3.62017,0.13294 -7.06149,-0.78228 -10.40961,-1.92548 -4.68486,-1.59966 -8.98107,-4.01248 -13.03582,-6.7692 -4.57669,-3.11151 -9.00467,-6.42975 -13.52255,-9.62422 -4.47123,-3.16152 -9.08007,-6.10802 -14.25862,-8.08604 -4.14241,-1.5822 -8.35324,-2.86003 -12.8969,-2.56785 -1.01433,0.0653 -2.03611,0.0133 -3.05401,0.036 -0.50698,0.0108 -1.02709,0.007 -1.51701,0.11505 -3.12152,0.68616 -6.16258,1.59822 -9.02263,3.03629 -3.30044,1.65954 -6.3687,3.68129 -9.38646,5.76483 -3.90681,2.69744 -7.79185,5.41383 -11.88553,7.84837 -3.38608,2.01374 -6.98402,3.4525 -10.82665,4.32675 -1.69066,0.38458 -3.39738,0.68446 -5.16226,0.6409 -1.65196,-0.0408 -3.30475,0.0519 -4.96295,0.0247 -2.70774,-0.0446 -5.32829,-0.49839 -7.94451,-1.07707 -1.05761,-0.23392 -2.11389,-0.47343 -3.27722,-0.81866 -0.45378,-0.16771 -0.80919,-0.19992 -1.1462,-0.29443 -0.32879,-0.0922 -0.63879,-0.24799 -0.77502,-0.39495 0.64741,-0.0678 1.0474,-0.2199 1.07922,-0.74632 0.0382,-0.63347 0.0415,-1.26949 0.0424,-1.90446 0.009,-6.92085 0.0153,-13.84169 0.22088,-20.76372 3.19517,0.16709 6.14042,-0.3414 9.01788,-0.97633 6.94733,-1.53285 13.68428,-3.71516 20.04687,-6.89705 1.74658,-0.87344 3.53413,-1.67159 5.25979,-2.58178 1.91205,-1.00847 3.7948,-2.07344 5.65436,-3.17154 3.22334,-1.90344 6.30804,-3.99894 9.35059,-6.17493 3.33028,-2.38183 7.06863,-3.90081 11.35564,-3.59938 0.36192,0.0255 0.72853,0.0224 1.09097,10e-4 2.74821,-0.1643 5.36222,0.54998 7.82521,1.5367 3.08168,1.2346 6.05036,2.75773 8.81618,4.60885 3.34399,2.23818 6.56537,4.62818 9.59764,7.25783 1.13566,0.98488 2.28763,1.95297 3.4572,2.8994 1.44617,1.17033 2.89465,2.34031 4.38603,3.45467 1.49535,1.11731 3.00068,2.24456 4.76039,2.951 1.59831,0.64168 3.21866,0.32896 3.99547,-1.71884 0.12582,-0.33151 0.23666,-0.66861 0.37011,-0.99709 1.34628,-3.31394 1.61238,-6.85134 2.19312,-10.31683 0.31325,-1.86937 0.33493,-3.78501 0.4885,-5.67976 0.0115,-0.14109 -0.006,-0.29419 0.0437,-0.42094 0.54482,-1.36595 0.3442,-2.79368 0.38335,-4.20174 0.0178,-0.63645 -0.0961,-1.32038 0.10513,-1.8986 0.38747,-1.11424 0.31746,-2.23525 0.3262,-3.36222 0.0138,-1.7713 -0.004,-3.54281 0.0115,-5.31407 0.005,-0.56373 0.054,-1.12869 0.11407,-1.68996 0.0895,-0.8376 0.29417,-1.67201 0.29807,-2.50842 0.0267,-5.73915 0.0155,-11.47844 0.0115,-17.21769 0,-0.56585 0.0992,-1.17616 -0.0798,-1.68882 -0.43629,-1.24861 -0.30982,-2.51719 -0.3534,-3.78476 -0.0921,-2.67709 0.29733,-5.37811 -0.41749,-8.026 -0.0539,-0.19953 -0.0102,-0.42341 -0.0163,-0.63587 -0.045,-1.68999 0.17715,-3.39655 -0.40025,-5.05315 -0.11139,-0.31973 -0.0115,-0.70479 -0.04,-1.05721 -0.15666,-1.89452 -0.24379,-3.79882 -0.50651,-5.67966 -0.34018,-2.43523 -0.7544,-4.86535 -1.26373,-7.27219 -0.52529,-2.48237 -0.99921,-4.99742 -2.33296,-7.23896 -0.21717,-0.36505 -0.39815,-0.77981 -0.70319,-1.06129 -2.15111,-1.98505 -4.75131,-3.2245 -7.54261,-4.06849 -2.69281,-0.81424 -5.44131,-1.42882 -8.24524,-1.78583 -0.64268,-0.0819 -1.2716,-0.36594 -1.90859,-0.37161 -2.03201,-0.0182 -4.00706,-0.69837 -6.05582,-0.46382 -0.142,0.0162 -0.30189,0.0173 -0.43297,-0.0292 -1.69307,-0.60152 -3.45325,-0.32044 -5.18678,-0.38679 -0.72502,-0.0278 -1.49484,0.0725 -2.16373,-0.13343 -1.00709,-0.31015 -2.00791,-0.28298 -3.02047,-0.28413 -5.96619,-0.007 -11.9324,-0.0108 -17.89854,10e-4 -1.51854,0.004 -3.05116,-0.15127 -4.53662,0.36096 -0.32695,0.11277 -0.72102,0.0406 -1.08415,0.0543 -3.61989,0.13687 -7.2359,-0.13958 -10.86868,0.35686 -2.77671,0.37944 -5.6291,0.0508 -8.45653,0.43749 -2.34961,0.32131 -4.75476,0.0744 -7.14984,0.41357 -2.34596,0.33218 -4.75652,0.10014 -7.14759,0.42989 -1.71548,0.23651 -3.44471,0.35379 -5.11802,0.8256 -2.08111,0.58679 -4.15649,1.19281 -6.23938,1.5914 -0.006,-4.07116 -0.0132,-7.94319 -0.009,-11.81523 0.008,-6.19501 0.0229,-12.39002 0.0349,-18.58502 5.88705,-0.0282 11.77406,-0.0553 17.66106,-0.0929 0.12314,-10e-4 0.2455,-0.12473 0.36829,-0.1913 0.0661,-0.12113 0.18919,-0.24186 0.18988,-0.36326 0.0267,-4.60022 0.0421,-9.20051 0.25545,-14.01778 0.55985,-0.22299 0.92337,-0.23433 1.28686,-0.23434 34.54192,-0.001 69.08384,-0.001 103.62575,0 0.50847,4e-5 1.01693,0.029 1.5254,0.0445 0,4.80674 0,9.61346 0,14.5077 0.49186,0.12684 0.88555,0.28754 1.28984,0.31913 0.64981,0.0507 1.3066,0.0176 1.96046,0.0176 17.0002,0 34.00036,-0.002 51.00055,0.002 3.91365,0.001 7.8338,-0.14023 11.91962,0.44732 z"
       id="path3"
       style="stroke-width:0.107734" />
    <path
       fill="#b1d3ec"
       opacity="1"
       stroke="none"
       d="m 338.45522,801.35128 c -0.24643,0.13508 -0.47887,0.34921 -0.74145,0.39339 -3.40393,0.57264 -6.8082,1.14606 -10.22114,1.6646 -1.56484,0.2377 -3.15115,0.33821 -4.72361,0.53272 -1.71265,0.2119 -3.41868,0.47443 -5.13124,0.68711 -0.71494,0.0888 -1.44235,0.0804 -2.1586,0.16186 -0.85537,0.0973 -1.70486,0.24341 -2.74115,0.3895 -0.70375,-0.50843 -0.50784,-1.17969 -0.55834,-1.79927 -0.7259,-8.90781 -0.39182,-17.83249 -0.39337,-26.74928 -0.0217,-125.29284 -0.0163,-250.58563 -0.008,-375.87843 0,-4.40394 0.65793,-8.71119 2.10204,-12.91021 1.5023,-4.36818 3.24435,-8.62736 5.33502,-12.76395 2.82663,-5.59288 5.79644,-11.11281 9.17392,-16.40235 3.14272,-4.92192 6.22879,-9.8851 9.75915,-14.5677 3.47899,-4.61449 6.82729,-9.32248 10.30842,-13.9354 1.84643,-2.44676 3.84796,-4.78285 5.78916,-7.16137 1.62457,-1.9906 3.2441,-3.9856 4.90234,-5.94945 1.1063,-1.31016 2.28152,-2.56492 3.41698,-3.85192 1.46539,-1.66105 2.92202,-3.32936 4.38189,-4.99507 0.0944,-0.10772 0.1758,-0.22699 0.27663,-0.32828 3.84379,-3.86245 7.39503,-7.9992 11.63659,-11.48375 0.16866,1.413 0.0286,2.71538 0.26507,3.94935 0.21623,1.12854 0.28101,2.23661 0.28143,3.36399 0.004,9.41136 -0.005,18.82269 0.0102,28.23399 10e-4,1.138 -0.0396,2.25677 -0.55831,3.40176 -0.5029,0.39988 -0.92455,0.69984 -1.23097,1.08641 -1.28051,1.61547 -2.49634,3.28001 -3.79061,4.88472 -4.1164,5.10358 -7.85497,10.46887 -11.5395,15.86711 -2.76537,4.05164 -5.40695,8.18447 -8.05299,12.31192 -1.49546,2.3327 -2.9205,4.70994 -4.31939,7.09923 -1.57937,2.69747 -3.05102,5.45508 -4.64704,8.1429 -2.10684,3.54801 -4.1172,7.14413 -5.97143,10.82255 -0.2201,0.43662 -0.33427,0.9239 -0.55885,1.41088 -0.0207,0.007 0.0201,-0.007 0.22296,-0.0237 0.50296,-0.098 0.88122,-0.13271 1.17846,-0.30223 3.61372,-2.06115 7.1955,-4.15577 11.06635,-5.77532 3.79188,-1.58649 7.61832,-3.03944 11.60969,-4.04832 2.71883,-0.6872 5.49599,-1.1765 8.29618,-1.32208 2.74554,-0.14275 5.50583,-0.0165 8.26741,0.18934 0.0115,0.97562 0.0188,1.7537 0.0189,2.53182 10e-4,4.66878 -0.006,9.33758 0.009,14.00633 0.003,0.61292 -0.17846,1.28521 0.48813,1.91268 0.67718,0.0154 1.47448,-0.006 2.26246,0.0677 0.40696,0.038 0.79738,0.24445 0.9978,0.38742 -1.38264,0.015 -2.56788,0.0176 -3.95257,0.005 -3.08066,-0.24963 -5.83008,0.37215 -8.53546,1.23224 -6.26914,1.99305 -11.62592,5.45841 -16.33816,9.86905 -2.45883,2.30145 -4.72443,4.80021 -7.04955,7.23497 -1.43348,1.50109 -2.84888,3.02122 -4.21114,4.58345 -1.97125,2.26064 -3.78166,4.66397 -5.8678,6.816 -1.16367,1.2004 -1.66942,2.41062 -1.4969,3.98156 0.0308,0.28028 0.004,0.56653 0.004,0.85002 0,113.61268 -2e-5,227.2253 0,340.83797 0,1.63013 -0.0115,3.26042 0.0115,4.8903 0.0281,1.97608 0.003,3.94063 0.39994,5.91292 0.4872,2.42106 0.85236,4.86019 1.58832,7.23241 0.33356,1.07525 0.4962,2.2007 0.73638,3.30346 z"
       id="path4"
       style="stroke-width:0.107734" />
    <path
       fill="#e6f4f7"
       opacity="1"
       stroke="none"
       d="m 378.99348,335.293 c 0.38444,-1.08487 0.42589,-2.20364 0.42405,-3.34164 -0.0153,-9.4113 -0.008,-18.82263 -0.0102,-28.23399 0,-1.12738 -0.0652,-2.23545 -0.28144,-3.36399 -0.23639,-1.23397 -0.0964,-2.53635 -0.13062,-4.00635 -0.0102,-0.19743 -0.006,-0.18363 0.0894,-0.22621 0.17706,-0.16015 0.25784,-0.27773 0.33864,-0.39531 0.62815,-0.67895 1.23411,-1.37901 1.88922,-2.0323 1.26741,-1.26397 2.5672,-2.49702 3.84508,-3.75115 2.19251,-2.15177 4.56522,-4.10146 6.98653,-6.00214 1.91077,-1.49995 3.76451,-3.06866 5.65485,-4.59359 0.61109,-0.49295 1.24741,-0.95796 1.89014,-1.41164 4.40082,-3.10627 8.93846,-5.98866 13.9054,-8.18898 2.7175,-1.20386 5.57195,-1.93031 8.48784,-2.46103 0.49188,-0.0896 1.0134,-0.0245 1.71286,-0.0237 0.17962,6.20226 0.16442,12.39727 0.15677,18.59229 -0.005,3.87202 10e-4,7.74405 0.006,12.01475 0.003,18.36937 10e-4,36.34011 0.003,54.31084 10e-4,15.3529 0.008,30.70582 0.0102,46.05871 -0.006,6.92086 -0.0128,13.8417 -0.0221,20.76255 -10e-4,0.63497 -0.004,1.27099 -0.0424,1.90447 -0.0318,0.52643 -0.43183,0.67852 -1.24066,0.71237 -2.70608,-0.9184 -5.07797,-1.79956 -7.42926,-2.73013 -4.85631,-1.92198 -9.4279,-4.40395 -13.97476,-6.91411 -3.22361,-1.77966 -6.43291,-3.57904 -9.79117,-5.10501 -2.57347,-1.16944 -5.2572,-2.01765 -8.10744,-2.27784 -0.39788,-0.13035 -0.7883,-0.33677 -1.19526,-0.3748 -0.78798,-0.0736 -1.58528,-0.0523 -2.26246,-0.0677 -0.66659,-0.62748 -0.48612,-1.29977 -0.48813,-1.91269 -0.0152,-4.66875 -0.008,-9.33754 -0.009,-14.00633 0,-0.77812 -0.008,-1.5562 -0.006,-2.73367 0.009,-16.33449 0.0115,-32.26965 0.0139,-48.20479 5e-5,-0.4247 0.0309,-0.85662 -0.039,-1.27137 -0.0431,-0.25538 -0.25047,-0.48456 -0.38409,-0.72548 z"
       id="path5"
       style="stroke-width:0.107734" />
    <path
       fill="#5f5654"
       opacity="1"
       stroke="none"
       d="m 435.70344,218.35797 c -0.0316,-2.29286 -0.0631,-4.58574 0.17389,-7.06169 3.24284,-0.18079 6.21733,-0.17194 9.19172,-0.18202 0.55583,-0.002 1.18815,0.15871 1.56034,-0.6551 0.0102,-1.17943 0.014,-2.1732 0.0254,-3.28671 -0.005,-0.19882 -0.0176,-0.27791 -0.0317,-0.55328 -10e-4,-5.08651 -10e-4,-9.97676 0.001,-14.86704 0,-0.56688 -0.0238,-1.13655 0.0235,-1.70012 0.15488,-1.84418 1.63566,-3.51816 3.45466,-3.94351 1.98469,-0.46411 3.99747,0.40857 5.01104,2.1716 0.51174,0.89012 0.67864,1.84495 0.67294,2.86136 -0.0128,2.26708 0.0264,4.53442 0.0287,6.99968 10e-4,4.32302 0.0171,8.44803 0.16019,12.69888 2.70852,0.16869 5.2903,0.22274 7.8723,0.23515 0.23078,10e-4 0.46289,-0.26781 0.70232,-0.60876 -0.0152,-4.75298 -0.0382,-9.30852 -0.0363,-14.05818 0.0368,-2.24742 -0.035,-4.30538 0.0848,-6.35269 0.10986,-1.87626 1.25582,-3.15768 3.03132,-3.79101 1.71158,-0.61053 3.29169,-0.24144 4.6301,0.99279 1.01055,0.9318 1.43648,2.09825 1.44994,3.43208 0.0199,1.98157 0.0457,3.96311 0.0479,6.14484 -0.0143,4.75542 -0.008,9.31064 0.12251,13.99564 2.77434,0.16198 5.42554,0.20095 8.07686,0.21029 0.16711,0.001 0.33508,-0.23004 0.512,-0.55197 -0.006,-4.75351 -0.022,-9.30814 -0.0133,-14.05842 0.0301,-2.08144 10e-4,-3.96805 0.0503,-5.8528 0.054,-2.09762 1.22062,-3.74678 3.10854,-4.32998 0.66288,-0.20477 1.40956,-0.15237 2.22444,-0.12821 0.46809,0.16134 0.82969,0.23349 1.32689,0.37097 1.85782,1.14925 2.55517,2.70633 2.49857,4.67834 -0.0438,1.52783 0.0367,3.05904 0.0341,4.78951 -0.0258,5.03796 -0.0238,9.87513 0.093,14.84988 2.75993,0.48311 5.41364,0.29219 8.06424,0.23812 0.17461,-0.004 0.3446,-0.22097 0.53015,-0.53886 0.0165,-6.34815 0.0195,-12.49637 0.0231,-18.64461 0,-0.49466 -0.0272,-0.9917 0.0128,-1.48356 0.11228,-1.40409 0.73547,-2.53431 1.8529,-3.45871 2.2273,-1.84245 5.8491,-0.62579 6.73899,1.36275 0.42254,0.94419 0.55539,1.87554 0.55488,2.87461 -0.004,6.50149 0.0102,13.00297 0.13016,19.64409 2.75629,0.49389 5.40959,0.29513 8.05948,0.24637 0.17608,-0.004 0.34804,-0.217 0.53713,-0.5332 0.0186,-4.23408 0.0227,-8.26777 0.0253,-12.30147 10e-4,-2.26454 0.0211,-4.52934 -0.008,-6.79353 -0.014,-1.08446 0.18697,-2.13916 0.63992,-3.09142 0.80921,-1.70131 3.07734,-2.65877 4.98451,-2.24581 1.8533,0.40131 3.34884,2.01738 3.52713,3.85635 0.0544,0.5615 0.0211,1.13144 0.0212,1.69753 10e-4,5.73213 -0.006,11.46427 0.0102,17.19636 0.003,0.68137 -0.2124,1.41726 0.2874,2.01982 2.13952,0.33816 6.67929,0.29065 8.27384,-0.0979 0.29865,-0.7079 0.17646,-1.49134 0.17778,-2.25395 0.0102,-5.59056 0.019,-11.18123 -0.006,-16.77171 -0.005,-1.08315 0.13802,-2.12794 0.59253,-3.09883 0.71034,-1.51729 1.88809,-2.4922 3.66756,-2.59933 2.91668,-0.17559 4.84699,1.57244 4.91181,4.42982 0.0115,0.49514 0.003,0.9907 0.003,1.48607 0.006,6.22744 0.0115,12.45488 0.11892,18.8298 0.44508,0.21258 0.78897,0.33345 1.13303,0.33385 2.49561,0.002 4.99121,-0.0184 7.48682,-0.0321 0.074,0.46688 0.20604,0.93313 0.21151,1.40078 0.0208,1.79157 10e-4,3.58359 -0.0989,5.56659 -0.095,0.19115 -0.22122,0.25802 -0.42,0.27348 -1.14334,0.0194 -2.0879,0.0268 -3.03249,0.0268 -30.5912,0.001 -61.18239,0 -91.77359,0.001 -7.77492,0 -15.54987,0.007 -23.32478,0.0108 z"
       id="path6"
       style="stroke-width:0.107734" />
    <path
       fill="#9d9d9d"
       opacity="1"
       stroke="none"
       d="m 446.64795,207.29216 c -0.005,0.9938 -0.009,1.98757 -0.21793,3.18731 -3.69805,0.20856 -7.1916,0.21118 -10.6851,0.2138 -0.0285,-0.56466 -0.0814,-1.12932 -0.0817,-1.69401 -0.005,-7.01075 -0.0183,-14.02156 0.0115,-21.03219 0.005,-1.1947 0.004,-2.44312 0.33852,-3.57314 1.19625,-4.03839 3.80626,-6.76524 8.49433,-7.74131 33.29129,10e-4 66.21334,10e-4 99.13537,-0.001 0.58019,-6e-5 1.16036,-0.0339 1.74053,-0.0521 5.23087,1.10038 8.6755,5.00711 8.79592,10.14642 0.0894,3.81559 0.0307,7.63455 0.0301,11.452 0,4.0295 -0.0102,8.059 -0.25571,12.29674 -3.00406,0.18364 -5.76828,0.15905 -8.53253,0.13448 -0.006,-6.22745 -0.0115,-12.4549 -0.0179,-18.68234 0,-0.49537 0.008,-0.99093 -0.003,-1.48606 -0.0648,-2.85739 -1.99512,-4.60542 -4.9118,-4.42983 -1.77948,0.10712 -2.95723,1.08204 -3.66756,2.59934 -0.45453,0.97088 -0.59744,2.01567 -0.59253,3.09882 0.0254,5.59048 0.0162,11.18115 0.006,16.77171 -10e-4,0.76261 0.12084,1.54605 -0.17778,2.25395 -1.59456,0.38854 -6.13432,0.43604 -8.27384,0.0979 -0.49981,-0.60255 -0.28535,-1.33846 -0.2874,-2.01983 -0.0171,-5.73208 -0.009,-11.46423 -0.0102,-17.19636 -8e-5,-0.56609 0.0333,-1.13603 -0.0212,-1.69753 -0.17828,-1.83897 -1.67382,-3.45504 -3.52711,-3.85635 -1.90718,-0.41296 -4.17531,0.5445 -4.98452,2.24581 -0.45295,0.95226 -0.65397,2.00696 -0.63992,3.09142 0.0294,2.26419 0.0102,4.52899 0.008,6.79353 -0.003,4.0337 -0.006,8.0674 -0.22883,12.3001 -2.98091,0.18218 -5.74309,0.16537 -8.50526,0.14857 -0.008,-6.50148 -0.0213,-13.00297 -0.018,-19.50445 0,-0.99908 -0.13233,-1.93043 -0.55488,-2.87462 -0.88989,-1.98854 -4.51168,-3.2052 -6.73897,-1.36275 -1.11744,0.9244 -1.7406,2.05462 -1.85291,3.45871 -0.0393,0.49186 -0.0115,0.9889 -0.0128,1.48356 -0.004,6.14824 -0.006,12.29646 -0.22634,18.64592 -2.97969,0.18812 -5.74272,0.17501 -8.50575,0.16191 -0.003,-4.83721 -0.004,-9.6744 0.16739,-14.72511 1.60257,-0.84863 2.6607,-1.7905 3.38885,-3.20961 1.07861,-2.10221 0.97185,-4.22545 0.50752,-6.39707 -0.48214,-2.25497 -2.40937,-4.18647 -5.53333,-4.13721 -3.40316,0.0536 -6.8225,0.18699 -10.20825,-0.36539 -10.2466,-0.004 -20.49326,-0.0213 -30.73973,0.0135 -1.0695,0.004 -2.17081,0.21298 -3.20018,0.51293 -2.46364,0.71789 -4.16834,2.24364 -4.7535,4.76112 -0.17417,0.74942 -0.30543,1.52676 -0.30975,2.29209 -0.0231,4.10441 0.0252,8.20922 0,12.31362 -0.0217,3.50523 2.07481,4.47651 4.24302,5.09101 0.34383,0.0975 0.71924,0.0891 1.11769,0.20086 0.10181,0.16252 0.18632,0.22929 0.2913,0.27153 z"
       id="path7"
       style="stroke-width:0.107734" />
    <path
       fill="#84b4dd"
       opacity="1"
       stroke="none"
       d="m 548.91235,252.41899 c -0.52161,-0.0212 -1.03006,-0.0501 -1.53854,-0.0501 -34.5419,-0.001 -69.08383,-0.001 -103.62575,0 -0.36349,1e-5 -0.72701,0.0108 -1.30026,0.0396 -0.49853,-0.008 -0.79014,-0.0225 -1.0756,-0.0712 -3.84056,-0.65439 -6.39244,-3.61557 -5.57068,-8.13551 0.24821,-1.36514 1.05608,-2.48687 2.18378,-3.31675 0.68445,-0.50369 1.49767,-0.84149 2.5646,-1.26879 0.81695,-0.0488 1.38434,0.10159 1.71169,-0.46163 0,0 0.0146,0.002 0.22653,0.0174 34.29103,0.0173 68.37008,0.0198 102.44917,0.0212 1.30785,5e-5 2.61568,-0.0108 3.92351,-0.0168 0,0 0.0368,-0.0192 0.0952,0.0916 0.29606,0.18432 0.53382,0.25782 0.77156,0.33134 0.3236,0.15675 0.64542,0.31711 0.97111,0.46976 4.45897,2.08967 5.05216,8.52951 0.31992,11.41377 -0.30369,0.18511 -0.65,0.30394 -1.25198,0.48183 -0.45443,0.17218 -0.63336,0.31614 -0.81226,0.46012 0,0 -0.0287,5e-5 -0.0419,-0.006 z"
       id="path8"
       style="stroke-width:0.107734" />
    <path
       fill="#b1d3ec"
       opacity="1"
       stroke="none"
       d="m 548.87245,238.97785 c -1.31948,0.20422 -2.62731,0.21522 -3.93516,0.21517 -34.07909,-10e-4 -68.15814,-0.004 -102.4431,-0.0171 -0.20647,-3.88089 -0.19389,-7.75105 -0.21986,-11.62099 -0.005,-0.6881 -0.16949,-1.37521 -0.14613,-2.23368 34.72262,-0.17076 69.33107,-0.17112 103.9395,-0.16778 0.94431,8e-5 1.88858,0.0399 2.83448,0.16511 10e-4,0.10399 0.0503,0.30637 0.0503,0.30637 -0.0229,4.38482 -0.0456,8.76966 -0.0801,13.35284 z"
       id="path9"
       style="stroke-width:0.107734" />
    <path
       fill="#9d9d9d"
       opacity="1"
       stroke="none"
       d="m 548.90056,225.21469 c -0.94428,-0.0213 -1.88855,-0.0611 -2.83286,-0.0612 -34.60843,-0.004 -69.21688,-0.002 -104.03296,0.0162 -2.14944,0.001 -4.09131,-0.018 -6.13015,-0.0378 -0.46743,-2.04908 -0.15288,-4.00946 -0.004,-6.15108 38.57737,-0.20521 76.92266,-0.20717 115.26795,-0.21036 0.72734,-5e-5 1.45792,0.0209 2.18012,-0.0423 0.23916,-0.0209 0.4566,-0.27654 0.68397,-0.42486 0,0 0.12621,-0.0668 0.19799,-0.0685 0.0321,2.17785 -0.008,4.35733 -0.2909,6.72252 -1.84234,0.20953 -3.44097,0.23338 -5.03962,0.25722 z"
       id="path10"
       style="stroke-width:0.107734" />
    <path
       fill="#e6f4f7"
       opacity="1"
       stroke="none"
       d="m 368.6497,854.7111 c 0.58905,-0.13665 1.31488,-0.18191 2.0407,-0.18191 83.12332,-0.004 166.24663,-0.004 249.36994,-0.002 0.43626,0 0.87252,0.01 1.51071,0.0423 -0.12659,0.14848 -0.44741,0.34091 -0.78521,0.37517 -0.57565,0.0584 -1.16202,0.0184 -1.74387,0.0184 -82.62507,0 -165.25016,0 -247.87522,-0.006 -0.79343,-6e-5 -1.58686,-0.0869 -2.51705,-0.24565 z"
       id="path11"
       style="stroke-width:0.107734" />
    <path
       fill="#697979"
       opacity="1"
       stroke="none"
       d="m 553.83431,218.31891 c -0.0286,0.13285 -0.24604,0.38844 -0.48519,0.40939 -0.7222,0.0634 -1.45279,0.0423 -2.18013,0.0423 -38.34529,0.004 -76.69057,0.005 -115.24328,0.0139 -0.23064,-0.0649 -0.25383,-0.13643 -0.24967,-0.31729 7.80232,-0.11325 15.57727,-0.12022 23.35219,-0.12053 30.59119,-0.001 61.18239,0 91.77358,-0.001 0.9446,-4e-5 1.88916,-0.007 3.0325,-0.0268 z"
       id="path12"
       style="stroke-width:0.107734" />
    <path
       fill="#d2d2d4"
       opacity="1"
       stroke="none"
       d="m 545.24036,176.48979 c -0.43769,0.12754 -1.01785,0.16145 -1.59804,0.16151 -32.92203,0.002 -65.8441,0.002 -98.97072,-0.0221 0.1257,-0.14646 0.44887,-0.3424 0.78771,-0.37281 0.64895,-0.0582 1.30685,-0.0251 1.96103,-0.0251 31.69342,-4.1e-4 63.38679,-0.001 95.08021,0.006 0.86578,2.2e-4 1.73153,0.0934 2.73981,0.25276 z"
       id="path13"
       style="stroke-width:0.107734" />
    <path
       fill="#697979"
       opacity="1"
       stroke="none"
       d="m 435.71611,210.79286 c 3.52231,-0.10219 7.01586,-0.10483 10.70873,-0.12776 -0.16764,0.60787 -0.79996,0.44728 -1.35579,0.44916 -2.97439,0.01 -5.94888,0.001 -9.12897,-0.0108 -0.2057,-0.01 -0.2528,-0.21126 -0.22397,-0.31088 z"
       id="path14"
       style="stroke-width:0.107734" />
    <path
       fill="#697979"
       opacity="1"
       stroke="none"
       d="m 545.52177,210.77631 c 2.66316,-0.12288 5.42739,-0.0983 8.39874,-0.0854 0.20709,-0.012 0.26797,0.18609 0.24454,0.28658 -2.51905,0.11421 -5.01464,0.13553 -7.51025,0.1326 -0.34407,0 -0.68795,-0.12126 -1.13303,-0.33385 z"
       id="path15"
       style="stroke-width:0.107734" />
    <path
       fill="#e0ecf7"
       opacity="1"
       stroke="none"
       d="m 548.90218,225.31864 c 1.59702,-0.12779 3.19566,-0.15164 4.99519,-0.1669 -0.1814,0.14525 -0.55865,0.38139 -0.94692,0.40008 -1.20452,0.0579 -2.4132,0.0333 -3.80906,0.057 -0.18885,0.0162 -0.2376,-0.18621 -0.23921,-0.29015 z"
       id="path16"
       style="stroke-width:0.107734" />
    <path
       fill="#d2d2d4"
       opacity="1"
       stroke="none"
       d="m 442.1073,239.15762 c -0.17306,0.55987 -0.74045,0.40945 -1.40523,0.42842 0.21271,-0.47119 0.75073,-0.3865 1.40523,-0.42842 z"
       id="path17"
       style="stroke-width:0.107734" />
    <path
       fill="#c8e2f1"
       opacity="1"
       stroke="none"
       d="m 355.93877,852.96555 c 0.40402,-0.045 0.91594,0.0186 1.5348,0.19176 -0.40436,0.0453 -0.91559,-0.019 -1.5348,-0.19176 z"
       id="path18"
       style="stroke-width:0.107734" />
    <path
       fill="#d3e7f5"
       opacity="1"
       stroke="none"
       d="m 549.06883,252.40697 c 0.0644,-0.1263 0.24327,-0.27028 0.54879,-0.39995 -0.0603,0.13696 -0.2473,0.25962 -0.54879,0.39995 z"
       id="path19"
       style="stroke-width:0.107734" />
    <path
       fill="#e0ecf7"
       opacity="1"
       stroke="none"
       d="m 549.66088,239.50015 c -0.17113,0.0255 -0.4089,-0.048 -0.68624,-0.2413 0.18015,-0.0325 0.3999,0.0549 0.68624,0.2413 z"
       id="path20"
       style="stroke-width:0.107734" />
    <path
       fill="#c8e2f1"
       opacity="1"
       stroke="none"
       d="m 379.32241,295.77004 c 0.0198,0.0731 -0.0611,0.19063 -0.24366,0.34982 -0.0202,-0.0741 0.0616,-0.18966 0.24366,-0.34982 z"
       id="path21"
       style="stroke-width:0.107734" />
    <path
       fill="#5e92ce"
       opacity="1"
       stroke="none"
       d="m 633.60117,413.97521 c 0.52074,-0.0374 1.02849,-0.008 1.42019,0.38413 0.50571,0.50702 1.01196,1.01486 1.49018,1.54603 0.33306,0.36996 0.57886,0.81906 0.93303,1.16552 2.51295,2.45798 4.62959,5.23724 6.88286,7.90953 3.40889,4.04266 6.42304,8.36319 9.6275,12.5493 1.03724,1.35495 1.48794,2.78405 1.48741,4.51599 -0.0351,113.65538 -0.0318,227.31077 -0.0319,340.96617 0,0.35429 -0.0153,0.70921 10e-4,1.06279 0.10206,2.26729 -0.0234,4.52696 -0.48425,6.74665 -0.41493,1.99893 -0.56604,4.03952 -1.20621,6.00683 -0.94091,2.89185 -1.83736,5.7888 -3.18047,8.54079 -1.5945,3.26708 -3.39662,6.41096 -5.56663,9.3485 -1.27045,1.71989 -2.57906,3.41122 -4.13758,4.90271 -0.88222,0.84429 -1.75666,1.69642 -2.6231,2.55609 -2.66408,2.64297 -5.74531,4.7562 -9.00729,6.61704 -1.87088,1.06725 -3.77191,2.12247 -5.76422,2.94095 -2.98906,1.22798 -6.04094,2.28901 -9.27616,2.84197 -3.44205,0.58827 -6.88153,0.84601 -10.37375,0.84471 -59.80948,-0.0228 -119.61895,-0.0167 -179.6339,-0.21745 -0.20149,-6.44709 -0.19752,-12.6937 -0.014,-18.9363 1.95947,0.29138 3.74496,0.54958 5.51817,0.87202 4.33491,0.78817 8.68521,1.45186 13.09351,1.70026 0.21522,0.0121 0.42602,0.0854 0.64121,0.11276 0.78647,0.10015 1.57223,0.21029 2.36156,0.28256 0.57798,0.0529 1.20697,-0.076 1.73254,0.10194 1.13966,0.38613 2.29369,0.30862 3.45226,0.3314 0.58127,0.012 1.20759,-0.09 1.73432,0.0852 1.28262,0.42686 2.58584,0.31089 3.88808,0.33794 0.50926,0.0108 1.05516,-0.0986 1.52166,0.0429 1.99841,0.60592 4.04251,0.30224 6.06616,0.38358 0.72611,0.0292 1.50009,-0.0951 2.16795,0.11036 1.07713,0.33135 2.15061,0.30317 3.23665,0.3096 1.89217,0.0108 3.78453,-0.002 5.67665,0.0132 0.57869,0.005 1.15828,0.0599 1.73481,0.11769 0.86073,0.0861 1.71899,0.27974 2.57852,0.28115 11.86289,0.0189 23.72577,0.0136 35.58867,0.01 0.58113,0 1.207,0.0921 1.73452,-0.0818 1.28325,-0.42282 2.58674,-0.3179 3.88883,-0.33083 1.7465,-0.0173 3.49335,-10e-4 5.23996,-0.0132 0.50766,-0.004 1.05979,0.0619 1.51353,-0.10507 1.0652,-0.39232 2.15153,-0.28844 3.2362,-0.30925 1.30913,-0.0251 2.66378,0.16653 3.91627,-0.10134 1.52317,-0.32589 3.02617,-0.28587 4.54479,-0.32916 0.58109,-0.0166 1.2084,0.0842 1.7332,-0.095 1.13977,-0.38886 2.29431,-0.30145 3.45239,-0.33275 0.50708,-0.0137 1.05342,0.0406 1.51105,-0.12338 0.92315,-0.33089 1.85916,-0.28029 2.80112,-0.29938 0.43593,-0.008 0.87633,10e-4 1.30641,-0.0564 1.85838,-0.24845 3.71029,-0.54476 5.57091,-0.775 2.65116,-0.32792 5.32809,-0.49975 7.95725,-0.94448 3.55804,-0.60181 7.09161,-1.35432 10.61581,-2.12771 2.55246,-0.56008 5.04832,-1.33149 7.3253,-2.63349 0.61868,-0.35378 1.23452,-0.75577 1.73891,-1.24568 0.79336,-0.77079 0.79096,-1.87027 0.0577,-2.66961 -0.33505,-0.36515 -0.71111,-0.7428 -1.14939,-0.96073 -1.29211,-0.64257 -2.59096,-1.29696 -3.94846,-1.785 -2.72151,-0.97843 -5.55026,-1.59856 -8.39821,-2.12521 -1.84488,-0.34117 -3.68806,-0.69267 -5.53817,-1.00491 -2.27581,-0.38399 -4.55105,-0.78256 -6.83965,-1.07888 -1.78968,-0.23163 -3.59946,-0.31568 -5.40002,-0.46856 -0.21658,-0.0184 -0.45227,-0.012 -0.64328,-0.0945 -0.90182,-0.39204 -1.85347,-0.29807 -2.79546,-0.31651 -0.43593,-0.008 -0.90854,0.0677 -1.30043,-0.069 -1.27341,-0.4439 -2.58141,-0.33546 -3.88492,-0.35694 -0.43609,-0.007 -0.90751,0.0718 -1.30157,-0.061 -1.41756,-0.47753 -2.87363,-0.33162 -4.32091,-0.36448 -0.50841,-0.012 -1.06043,0.0735 -1.51599,-0.0891 -1.27863,-0.45615 -2.58767,-0.29668 -3.88848,-0.33126 -1.16307,-0.0309 -2.37097,0.14078 -3.47845,-0.11192 -1.30487,-0.29777 -2.58913,-0.29839 -3.89121,-0.31023 -1.89211,-0.0172 -3.78479,0.0108 -5.67655,-0.0197 -0.6464,-0.0108 -1.29044,-0.14115 -1.93628,-0.21056 -0.64633,-0.0695 -1.29349,-0.18694 -1.9404,-0.18755 -12.2268,-0.0108 -24.45358,-0.01 -36.68038,-0.002 -0.57741,0 -1.15608,0.073 -1.73185,0.133 -0.78882,0.0821 -1.57407,0.24965 -2.36324,0.26522 -2.037,0.0404 -4.07533,0.0165 -6.11312,0.0203 -0.43659,10e-4 -0.90171,-0.0838 -1.30504,0.0319 -2.14178,0.61405 -4.33197,0.31385 -6.50132,0.39489 -0.50708,0.019 -1.05446,-0.0418 -1.5111,0.12329 -0.99497,0.3599 -2.00874,0.24524 -3.01972,0.30181 -2.52932,0.14167 -5.05726,0.30737 -7.58542,0.4681 -0.14284,0.01 -0.28127,0.072 -0.4244,0.09 -0.78672,0.0992 -1.57284,0.20651 -2.362,0.2827 -0.64882,0.0628 -1.30379,0.066 -1.95219,0.13172 -0.78846,0.0799 -1.57159,0.20946 -2.35966,0.29397 -0.43252,0.0464 -0.88339,-0.0139 -1.30393,0.0739 -1.98268,0.41457 -4.00533,0.52494 -6.00598,0.79768 -1.49927,0.20443 -2.98582,0.49649 -4.47915,0.74317 -1.92235,0.31755 -3.84581,0.62875 -5.77396,0.74338 -0.006,-10.78453 -0.0102,-21.36977 -0.006,-31.95495 0.001,-4.58677 0.0195,-9.17359 0.18023,-13.77948 1.34569,-0.56786 2.35884,-1.34809 3.26734,-2.27898 4.20342,-4.30697 8.8315,-8.20903 12.74355,-12.79818 1.43204,-1.67998 3.09601,-3.16278 4.57198,-4.82437 1.98874,-2.23876 3.97519,-4.48306 5.98661,-6.70286 2.06375,-2.27754 3.94104,-4.68951 5.91043,-7.03473 2.70392,-3.22 5.32857,-6.49448 7.89501,-9.82006 4.22178,-5.47068 8.36497,-10.99347 12.26439,-16.68618 3.1787,-4.64065 6.3692,-9.27554 9.43874,-13.98453 2.40812,-3.6943 4.59304,-7.52601 6.96067,-11.24617 2.90557,-4.56533 5.60775,-9.24046 8.21744,-13.96906 0.9964,-1.80554 1.99665,-3.60913 3.00445,-5.40858 1.66407,-2.97123 3.40859,-5.90218 4.98882,-8.91492 3.14208,-5.99074 6.19585,-12.02534 9.28511,-18.04227 0.22762,-0.44333 0.45654,-0.88645 0.66886,-1.33684 1.5437,-3.27496 3.07735,-6.55444 4.62633,-9.82707 1.06356,-2.24705 2.15479,-4.4817 3.21776,-6.72907 0.63728,-1.34736 1.25903,-2.70206 1.86122,-4.06464 1.23226,-2.78819 2.43535,-5.58873 3.67157,-8.37526 1.0931,-2.46389 2.25657,-4.89881 3.31491,-7.3765 1.92061,-4.49644 3.81776,-9.00287 5.66738,-13.52734 2.8419,-6.95172 5.64859,-13.9172 8.44354,-20.88699 1.29189,-3.2215 2.52137,-6.46671 3.77812,-9.70154 1.12855,-2.90483 2.27051,-5.80483 3.37947,-8.71673 1.18473,-3.11096 2.33378,-6.23475 3.50553,-9.35043 1.67057,-4.44183 3.35851,-8.8775 5.0173,-13.32346 0.81703,-2.18969 1.57851,-4.39892 2.37784,-6.59498 0.55701,-1.53017 1.12146,-3.05813 1.71209,-4.57615 0.2005,-0.51521 0.36686,-1.11108 1.16762,-1.00862 0.18216,0.4824 0.30359,0.8161 0.4271,1.14912 3.94802,10.64787 11.51482,17.45972 22.88219,20.46524 0.62438,0.16053 1.13201,0.2224 1.64658,0.29297 0.006,0.008 0.0275,-10e-4 0.16103,0.10399 1.1356,0.20935 2.14655,0.26295 3.13784,0.4284 2.98386,0.49794 5.89589,-0.0496 8.81329,-0.52103 0.33823,-0.0547 0.65003,-0.26452 1.13878,-0.42322 0.44154,-0.10231 0.71847,-0.18346 0.99514,-0.26527 10.12831,-2.99601 17.21055,-9.23753 21.23481,-18.88713 0.19066,-0.17087 0.21834,-0.29746 0.21545,-0.59912 1.33169,-3.80578 1.84861,-7.55223 1.84349,-11.41058 -0.0327,-24.83092 -0.0172,-49.66189 -0.0149,-74.49286 0,-0.91917 0.0278,-1.83835 0.0428,-2.75753 z"
       id="path22"
       style="stroke-width:0.107734" />
    <path
       fill="#74a2d6"
       opacity="1"
       stroke="none"
       d="m 338.58112,801.35896 c -0.36609,-1.11045 -0.52871,-2.23588 -0.86228,-3.31114 -0.73596,-2.37221 -1.10112,-4.81135 -1.58833,-7.2324 -0.39687,-1.97229 -0.37182,-3.93684 -0.39993,-5.91292 -0.0233,-1.62988 -0.0115,-3.26018 -0.0115,-4.89031 0,-113.61266 0,-227.22529 0,-340.83796 0,-0.28349 0.0264,-0.56976 -0.004,-0.85002 -0.17253,-1.57094 0.33322,-2.78117 1.49689,-3.98158 2.08614,-2.15201 3.89655,-4.55535 5.8678,-6.81599 1.36226,-1.56223 2.77766,-3.08236 4.21114,-4.58345 2.32512,-2.43477 4.59072,-4.93351 7.04955,-7.23498 4.71224,-4.41063 10.06902,-7.87598 16.33816,-9.86903 2.70538,-0.8601 5.45481,-1.48187 8.53764,-1.03422 0.20229,7.13258 0.20001,14.05163 0.20422,20.97064 0.005,8.26037 0.0156,16.5207 -0.0533,24.91018 -0.37631,0.31615 -0.66202,0.52885 -0.97683,0.68612 -2.45085,1.22442 -4.94932,2.36511 -7.35069,3.67494 -2.61116,1.42422 -4.85528,3.33264 -6.90376,5.4577 -1.09401,1.13493 -2.30831,2.17215 -3.30522,3.38105 -2.05036,2.48642 -3.6712,5.23928 -5.12257,8.10424 -0.96784,1.91038 -1.40393,3.86538 -1.16807,5.94626 0.18227,1.60812 0.88499,2.93837 2.43803,3.78682 1.88414,1.02938 3.89465,1.57372 6.02329,1.52239 1.72851,-0.0417 3.47665,-0.1931 5.17096,-0.51878 3.75671,-0.72209 7.48503,-1.58425 11.23114,-2.19197 0.009,0.83476 0.0158,1.47223 0.0158,2.10969 0,101.36197 0,202.72392 0,304.08587 0,0.77904 -0.0151,1.55808 -0.18226,2.34859 -0.84136,0.24685 -1.53501,0.45506 -2.2039,0.7221 -3.55209,1.41817 -7.05096,2.97745 -10.65682,4.24985 -5.78657,2.04187 -11.68324,3.77 -17.66174,5.20765 -3.15354,0.75827 -6.33194,1.4187 -9.49909,2.12341 -0.169,-0.005 -0.33803,-0.01 -0.63295,-0.0227 z"
       id="path23"
       style="stroke-width:0.107734" />
    <path
       fill="#8db2df"
       opacity="1"
       stroke="none"
       d="m 379.39475,789.06723 c 0.008,-0.77904 0.0231,-1.55808 0.0231,-2.33712 0.001,-101.36195 0.001,-202.7239 0,-304.08587 0,-0.63746 -0.006,-1.27493 0.1726,-2.12155 1.48504,-0.23785 2.71732,-0.86364 4.05109,-0.63775 0.85284,0.1444 1.70297,0.34409 2.56264,0.40251 2.40049,0.16304 4.70682,0.73882 6.98662,1.42993 6.00689,1.82091 11.3623,4.97504 16.87349,7.81779 3.26769,1.68555 6.62247,3.21031 9.91067,4.85923 1.28444,0.64412 2.81918,0.68287 3.97279,1.82369 0.008,1.0508 0.0115,1.90083 0.0115,2.75086 0,85.35808 0,170.71612 10e-4,256.07417 0,0.99158 0.0148,1.98319 0.0226,2.97476 -0.0102,4.58678 -0.0285,9.1736 -0.03,13.76037 -0.004,10.5852 10e-4,21.17043 -0.004,32.15393 0.001,4.37591 0.008,8.35344 0.0142,12.33103 -0.004,6.24655 -0.008,12.49316 -0.0115,18.93909 -12.92955,0.19898 -25.85925,0.20003 -38.78895,0.19608 -1.44526,0 -2.8987,0.10988 -4.30683,-0.38285 -0.32466,-0.11349 -0.72028,-0.0349 -1.2676,-0.2461 -0.18761,-15.36835 -0.19087,-30.53527 -0.19409,-45.7022 z"
       id="path24"
       style="stroke-width:0.107734" />
    <path
       fill="#ffffff"
       opacity="1"
       stroke="none"
       d="m 633.57277,413.77683 c 0.0135,1.11756 -0.0142,2.03674 -0.0143,2.95591 -0.003,24.83097 -0.0179,49.66195 0.0149,74.49286 0.005,3.85835 -0.51179,7.60479 -1.92179,11.47324 -0.21717,0.3326 -0.24846,0.45792 -0.22085,0.59717 -3.94056,9.5889 -11.0228,15.83041 -21.15111,18.82642 -0.27667,0.0819 -0.55358,0.163 -1.18384,0.25227 -0.92315,0.0807 -1.4913,0.17052 -2.063,0.2234 -1.85954,0.1719 -3.71828,0.42986 -5.58123,0.46539 -1.79435,0.0343 -3.59349,-0.16685 -5.39051,-0.26455 0,0 -0.0204,0.01 -0.13752,-0.10531 -0.62913,-0.17167 -1.14124,-0.22867 -1.65335,-0.28567 -11.25057,-2.90683 -18.81738,-9.7187 -22.7654,-20.36657 -0.12353,-0.33301 -0.24494,-0.6667 -0.43877,-1.31249 -0.90947,-3.03808 -1.24865,-5.82624 -1.24742,-8.66798 0.009,-19.86086 0.005,-39.7217 0.003,-59.58257 0,-0.91848 -0.0243,-1.83694 -0.0372,-2.7554 0.0102,-0.77882 0.0307,-1.55762 0.0308,-2.33644 10e-4,-28.90239 0.0137,-57.80477 -0.0102,-86.70718 -0.004,-5.05161 1.16113,-9.81126 3.51849,-14.27751 1.36252,-2.58131 3.08707,-4.92888 5.15708,-7.06219 2.52698,-2.60437 5.37375,-4.76974 8.60439,-6.4264 2.37821,-1.21955 4.92619,-2.1166 7.55692,-2.66298 2.04584,-0.42487 4.14106,-0.75075 6.22688,-0.83864 3.5002,-0.14753 6.92615,0.46 10.25956,1.51939 0.96601,0.307 1.92591,0.63239 3.05093,0.97189 2.52597,1.25921 4.89288,2.47955 7.00382,4.12743 6.63601,5.18031 10.75499,11.76414 12.02752,20.01107 0.2394,1.55139 0.35315,3.0893 0.35331,4.64565 0.003,23.65968 10e-4,47.31932 10e-4,70.979 0,0.63748 -0.013,1.27492 0.009,2.11081 z"
       id="path25"
       style="stroke-width:0.107734" />
    <path
       fill="#5e92ce"
       opacity="1"
       stroke="none"
       d="m 379.23562,789.0787 c 0.16236,15.15546 0.1656,30.32238 0.16153,45.68729 -3.22449,-0.31323 -6.34183,-1.14601 -9.42782,-2.19525 -4.29586,-1.46059 -8.18726,-3.60901 -11.89626,-6.1039 -1.36443,-0.91774 -2.63008,-1.99059 -3.85738,-3.08173 -1.34096,-1.19222 -2.54726,-2.52745 -3.87961,-3.72962 -2.7477,-2.47909 -4.7191,-5.52736 -6.73977,-8.54334 -1.67352,-2.49778 -2.86329,-5.23291 -4.06306,-7.95979 -0.19366,-0.44011 -0.20799,-0.95501 -0.31218,-1.60303 3.16015,-0.87233 6.33855,-1.53276 9.4921,-2.29103 5.97849,-1.43765 11.87517,-3.16578 17.66174,-5.20765 3.60585,-1.2724 7.10472,-2.83168 10.65681,-4.24985 0.66889,-0.26704 1.36255,-0.47525 2.2039,-0.7221 z"
       id="path26"
       style="stroke-width:0.107734" />
    <path
       fill="#74a2d6"
       opacity="1"
       stroke="none"
       d="m 569.60724,429.71361 c 0.18961,0.92779 0.21377,1.84625 0.21387,2.76473 0.003,19.86086 0.006,39.72171 -0.003,59.58257 -0.001,2.84173 0.33796,5.6299 1.18778,8.51892 -0.72944,0.20998 -0.8958,0.80585 -1.0963,1.32105 -0.59063,1.51803 -1.15509,3.04598 -1.71209,4.57615 -0.79933,2.19606 -1.56081,4.40529 -2.37784,6.59499 -1.65878,4.44597 -3.34673,8.88162 -5.0173,13.32345 -1.17175,3.11568 -2.3208,6.23947 -3.50553,9.35044 -1.10896,2.9119 -2.25092,5.81189 -3.37947,8.71673 -1.25675,3.23482 -2.48623,6.48004 -3.77812,9.70153 -2.79495,6.96979 -5.60164,13.93527 -8.44354,20.88699 -1.84962,4.52447 -3.74677,9.0309 -5.66738,13.52734 -1.05832,2.47771 -2.22181,4.91263 -3.31491,7.37652 -1.23622,2.78653 -2.43931,5.58706 -3.67157,8.37524 -0.60219,1.36259 -1.22394,2.71728 -1.86122,4.06465 -1.06297,2.24736 -2.1542,4.48201 -3.21775,6.72906 -1.54899,3.27264 -3.08264,6.55211 -4.62635,9.82708 -0.21231,0.45038 -0.44123,0.89351 -0.66885,1.33683 -3.08926,6.01695 -6.14303,12.05154 -9.28511,18.04227 -1.58022,3.01274 -3.32475,5.94369 -4.98882,8.91492 -1.0078,1.79947 -2.00805,3.60304 -3.00445,5.40858 -2.60969,4.72861 -5.31187,9.40373 -8.21744,13.96907 -2.36763,3.72015 -4.55255,7.55187 -6.96067,11.24616 -3.06954,4.70899 -6.26004,9.34388 -9.43874,13.98454 -3.89942,5.69271 -8.04261,11.2155 -12.26439,16.68617 -2.56644,3.32558 -5.19109,6.60008 -7.89503,9.82006 -1.96937,2.34522 -3.84666,4.75721 -5.91041,7.03473 -2.01142,2.2198 -3.99787,4.4641 -5.98661,6.70286 -1.47597,1.66159 -3.13994,3.1444 -4.57198,4.82437 -3.91205,4.58917 -8.54013,8.49121 -12.74355,12.79819 -0.9085,0.93088 -1.92165,1.71112 -3.26734,2.27898 -0.15808,-0.97247 -0.17284,-1.96408 -0.17284,-2.95566 -10e-4,-85.35805 -10e-4,-170.71609 -10e-4,-256.07417 0,-0.85003 -0.004,-1.70006 0.18231,-2.74798 0.97704,-0.10735 1.76553,-0.0137 2.5548,0.0729 1.79528,0.19694 3.59299,0.37437 5.38584,0.5903 1.47487,0.17761 2.87596,-0.29146 4.31558,-0.41828 1.58307,-0.1395 3.19302,-0.21725 4.73051,-0.57175 3.17032,-0.73092 6.33176,-1.53016 9.43952,-2.4792 4.84312,-1.47901 9.62564,-3.13803 14.52597,-4.45083 5.12196,-1.37215 10.3062,-2.23748 15.6231,-2.28272 2.25518,-0.0191 4.51492,0.0824 6.7649,-0.0245 2.48661,-0.11806 4.91331,0.36785 7.36659,0.54369 2.22011,0.15914 4.40314,0.77334 6.61072,1.13996 5.65537,0.9393 11.15134,2.47457 16.60232,4.1774 2.8337,0.88526 5.66118,1.79072 8.47764,2.72657 3.13454,1.04161 6.34876,1.41909 9.64351,1.21588 0.36028,-0.0222 0.72281,-0.0632 1.07581,-0.13519 3.55561,-0.72484 6.3554,-2.76029 8.84526,-5.15505 1.32035,-1.26994 2.49368,-2.76527 3.30137,-4.44303 0.95725,-1.9884 1.76877,-4.02364 1.6553,-6.29064 -0.0424,-0.84822 -0.0457,-1.70202 -10e-4,-2.54989 0.10385,-1.9523 -0.46348,-3.77285 -1.09774,-5.58133 -0.16377,-0.46694 -0.42799,-0.89974 -0.60659,-1.36265 -1.5292,-3.963 -3.93841,-7.42721 -6.8129,-10.52135 -2.6734,-2.87763 -5.40415,-5.74974 -8.64464,-8.06797 -1.45804,-1.04306 -2.91448,-2.12144 -4.49699,-2.95939 -3.14198,-1.6637 -6.51691,-2.6447 -10.07325,-3.2131 -3.12778,-0.49992 -6.24631,-0.41904 -9.33885,-0.22609 -2.72344,0.16989 -5.42139,0.87072 -8.04042,1.72112 -4.62176,1.50067 -9.06171,3.42784 -13.45017,5.47042 -2.03377,0.94653 -4.04289,1.94427 -6.05028,2.94332 -4.99451,2.48575 -10.17179,4.48806 -15.65284,5.71038 -3.10322,0.69201 -6.19332,1.44849 -9.40236,1.51352 -0.21724,0.005 -0.45345,-0.007 -0.64749,0.0685 -1.11933,0.4394 -2.29123,0.32788 -3.44937,0.33438 -2.25526,0.0126 -4.51304,0.0662 -6.76532,-0.0147 -2.09548,-0.0753 -4.21107,-0.15533 -6.27153,-0.49753 -3.41832,-0.56771 -6.81858,-1.27077 -10.18945,-2.06562 -2.09641,-0.49431 -4.20514,-1.04213 -6.1155,-2.28719 0.004,-11.36878 0.004,-22.53783 0.006,-33.70687 0,-0.63575 0.008,-1.27188 0.0323,-1.90714 0.0201,-0.5255 0.41047,-0.6953 0.86163,-0.78887 1.05691,0.23696 2.1132,0.47647 3.1708,0.71038 2.61622,0.57869 5.23677,1.03253 7.94451,1.07706 1.65821,0.0273 3.311,-0.0654 4.96295,-0.0246 1.76488,0.0435 3.4716,-0.25631 5.16225,-0.64089 3.84264,-0.87427 7.44058,-2.31302 10.82666,-4.32676 4.09369,-2.43453 7.97872,-5.15092 11.88554,-7.84836 3.01775,-2.08354 6.08601,-4.10529 9.38646,-5.76484 2.86004,-1.43806 5.90111,-2.35012 9.02263,-3.0363 0.48991,-0.10771 1.01003,-0.10375 1.51701,-0.11505 1.0179,-0.0225 2.03967,0.0293 3.05401,-0.0359 4.54365,-0.2922 8.75448,0.98564 12.89689,2.56784 5.17855,1.97802 9.78739,4.92453 14.25862,8.08604 4.51789,3.19448 8.94586,6.5127 13.52256,9.62423 4.05475,2.75671 8.35095,5.16954 13.0358,6.76918 3.34812,1.14322 6.78946,2.05844 10.40963,1.9255 0.0726,-0.002 0.14565,-0.004 0.21815,0.001 4.02986,0.22795 7.94533,-0.42033 11.81399,-1.44696 0.48452,-0.1286 0.99091,-0.17894 1.66385,-0.25625 z"
       id="path27"
       style="stroke-width:0.107734" />
    <path
       fill="#c8e2f1"
       opacity="1"
       stroke="none"
       d="m 424.16975,398.23638 c -0.2025,-15.35172 -0.20805,-30.70466 -0.20956,-46.05754 -0.001,-17.97075 -9e-5,-35.94149 0.003,-54.11172 2.08025,-0.79725 4.15561,-1.40327 6.23673,-1.99006 1.67332,-0.47182 3.40254,-0.58909 5.11802,-0.82561 2.39106,-0.32971 4.80162,-0.0977 7.14758,-0.42988 2.39509,-0.33917 4.80025,-0.0922 7.14985,-0.41357 2.82744,-0.38669 5.67982,-0.0581 8.45653,-0.43751 3.63278,-0.49642 7.24879,-0.21997 10.86869,-0.35685 0.36312,-0.0137 0.75718,0.0584 1.08414,-0.0543 1.48547,-0.51224 3.01809,-0.35792 4.53661,-0.36096 5.96616,-0.012 11.93237,-0.008 17.89855,-10e-4 1.01256,10e-4 2.0134,-0.026 3.02048,0.28413 0.66889,0.20599 1.43871,0.10567 2.16373,0.13342 1.73352,0.0664 3.49371,-0.21471 5.18676,0.38681 0.13108,0.0465 0.29099,0.0454 0.43298,0.0292 2.04875,-0.23455 4.0238,0.44562 6.05582,0.46382 0.637,0.006 1.26592,0.28978 1.90858,0.37161 2.80395,0.35702 5.55246,0.9716 8.24525,1.78583 2.7913,0.84399 5.3915,2.08345 7.54261,4.06849 0.30504,0.28149 0.48601,0.69624 0.70319,1.06129 1.33375,2.24155 1.80767,4.75659 2.33296,7.23897 0.50934,2.40683 0.92355,4.83696 1.26372,7.27219 0.26272,1.88084 0.34987,3.78513 0.50653,5.67965 0.0291,0.35243 -0.0714,0.73749 0.04,1.05721 0.57739,1.65661 0.35534,3.36317 0.40024,5.05316 0.005,0.21246 -0.0376,0.43633 0.0163,0.63585 0.71483,2.6479 0.32543,5.34893 0.41749,8.02602 0.0436,1.26756 -0.0829,2.53614 0.3534,3.78476 0.17913,0.51265 0.0795,1.12295 0.0798,1.68881 0.004,5.73925 0.0153,11.47854 -0.0115,17.21768 -0.004,0.83643 -0.2085,1.67084 -0.29806,2.50843 -0.06,0.56127 -0.10922,1.12623 -0.11407,1.68997 -0.0153,1.77126 0.003,3.54277 -0.0115,5.31406 -0.009,1.12698 0.0613,2.24798 -0.32621,3.36223 -0.20111,0.57821 -0.0874,1.26215 -0.10513,1.89858 -0.0392,1.40806 0.16147,2.83581 -0.38335,4.20175 -0.0506,0.12675 -0.0323,0.27985 -0.0437,0.42094 -0.15358,1.89475 -0.17524,3.81039 -0.4885,5.67976 -0.58074,3.46548 -0.84684,7.00289 -2.19312,10.31684 -0.13346,0.32847 -0.24437,0.66558 -0.37011,0.99709 -0.77681,2.0478 -2.39716,2.36051 -3.99548,1.71883 -1.75969,-0.70644 -3.26505,-1.83368 -4.76038,-2.95099 -1.49138,-1.11437 -2.93986,-2.28435 -4.38603,-3.45467 -1.16956,-0.94643 -2.32154,-1.91453 -3.45721,-2.8994 -3.03226,-2.62966 -6.25364,-5.01965 -9.59763,-7.25783 -2.76584,-1.85112 -5.73451,-3.37426 -8.81617,-4.60886 -2.463,-0.98671 -5.07702,-1.701 -7.82522,-1.53669 -0.36245,0.0216 -0.72905,0.0248 -1.09098,-10e-4 -4.28701,-0.30142 -8.02535,1.21755 -11.35564,3.59939 -3.04254,2.17599 -6.12725,4.27149 -9.35058,6.17493 -1.85955,1.0981 -3.74232,2.16307 -5.65436,3.17153 -1.72566,0.9102 -3.51321,1.70835 -5.2598,2.58178 -6.36259,3.18188 -13.09953,5.36421 -20.04688,6.89706 -2.87745,0.63493 -5.8227,1.14341 -9.01786,0.97633 z"
       id="path28"
       style="stroke-width:0.107734" />
    <path
       fill="#8db2df"
       opacity="1"
       stroke="none"
       d="m 424.74851,422.34026 c -0.34473,0.20184 -0.73521,0.37164 -0.75522,0.89714 -0.0243,0.63525 -0.0321,1.27139 -0.0323,1.90713 -0.003,11.16905 -0.004,22.33809 -0.16711,33.68799 -0.77783,-0.0238 -1.4126,-0.18502 -2.00474,-0.44009 -4.16345,-1.79344 -8.30461,-3.63658 -12.48033,-5.40218 -2.78,-1.17546 -5.61253,-2.20171 -8.54931,-2.99321 -3.16657,-0.85342 -6.3411,-1.22297 -9.61893,-1.19545 -2.68775,0.0226 -5.3402,0.0887 -7.9213,0.89774 -0.61872,0.19394 -1.23622,0.40029 -1.868,0.54356 -0.62697,0.14225 -1.27119,0.21217 -1.90785,0.31379 -0.008,-8.26038 -0.0188,-16.52071 -0.0239,-24.78108 -0.004,-6.91901 -0.003,-13.83806 -0.005,-20.95508 1.18301,-0.20052 2.36824,-0.20298 3.7509,-0.21807 3.04769,0.24757 5.73143,1.09579 8.30489,2.26523 3.35826,1.52598 6.56757,3.32534 9.79118,5.10502 4.54686,2.51014 9.11843,4.99211 13.97475,6.9141 2.35129,0.93058 4.72319,1.81173 7.24719,2.74922 0.47974,0.16181 0.78973,0.31763 1.11853,0.4098 0.33701,0.0945 0.69243,0.12672 1.14619,0.29444 z"
       id="path29"
       style="stroke-width:0.107734" />
    <path
       fill="#c8e2f1"
       opacity="1"
       stroke="none"
       d="m 378.85923,335.35312 c 0.26786,0.1808 0.47522,0.40998 0.51832,0.66536 0.0699,0.41473 0.0391,0.84667 0.039,1.27137 -0.003,15.93514 -0.005,31.8703 -0.0217,48.00727 -2.76693,0.19358 -5.52721,0.0673 -8.27276,0.21001 -2.80018,0.14559 -5.57734,0.63488 -8.29617,1.32208 -3.99137,1.00889 -7.8178,2.46185 -11.60968,4.04834 -3.87087,1.61954 -7.45264,3.71417 -11.06635,5.77531 -0.29726,0.16952 -0.67552,0.2043 -1.17841,0.30224 -0.16227,10e-4 -0.16174,10e-4 -0.16174,10e-4 0.16329,-0.46378 0.27747,-0.95106 0.49756,-1.38768 1.85423,-3.67842 3.86461,-7.27454 5.97143,-10.82255 1.59603,-2.68781 3.06768,-5.44542 4.64704,-8.14288 1.3989,-2.38931 2.82393,-4.76655 4.31939,-7.09924 2.64605,-4.12746 5.28762,-8.26029 8.05299,-12.31192 3.68454,-5.39825 7.42311,-10.76354 11.53951,-15.86711 1.29426,-1.6047 2.51009,-3.26926 3.79061,-4.88473 0.30642,-0.38656 0.72806,-0.68653 1.23098,-1.08641 z"
       id="path30"
       style="stroke-width:0.107734" />
    <path
       fill="#c8e2f1"
       opacity="1"
       stroke="none"
       d="m 338.80913,396.95564 c -0.0408,0.0155 -0.0814,0.0309 -0.0607,0.0232 0.0613,-0.0232 0.0608,-0.0232 0.0607,-0.0232 z"
       id="path31"
       style="stroke-width:0.107734" />
    <path
       fill="#d2d2d4"
       opacity="1"
       stroke="none"
       d="m 446.319,206.94943 c -0.3608,-0.0405 -0.73621,-0.0322 -1.08003,-0.12966 -2.16822,-0.61449 -4.26478,-1.58577 -4.24303,-5.09101 0.0254,-4.10438 -0.0227,-8.20919 0,-12.31361 0.004,-0.76533 0.1356,-1.54267 0.30977,-2.29208 0.58515,-2.51749 2.28986,-4.04324 4.75348,-4.76113 1.02939,-0.29995 2.1307,-0.50932 3.20018,-0.51293 10.24647,-0.0347 20.49313,-0.0165 30.73973,-0.0135 3.38576,0.55237 6.8051,0.41901 10.20825,0.36538 3.12397,-0.0493 5.05121,1.88225 5.53334,4.13721 0.46433,2.17163 0.5711,4.29486 -0.50753,6.39708 -0.72814,1.41911 -1.78627,2.36097 -3.36103,3.00883 -0.171,-1.51694 -0.25151,-3.04816 -0.20767,-4.57598 0.0566,-1.97202 -0.64075,-3.52909 -2.5901,-4.78717 -0.59867,-0.23324 -0.97024,-0.29229 -1.34183,-0.35134 -0.70842,0.065 -1.45509,0.0126 -2.11798,0.2174 -1.88791,0.5832 -3.05454,2.23237 -3.10853,4.32999 -0.0484,1.88474 -0.0203,3.77135 -0.25078,5.86621 -2.97542,0.20301 -5.72599,0.19692 -8.47656,0.19084 -0.0232,-1.98153 -0.049,-3.96307 -0.0691,-5.94464 -0.0134,-1.33382 -0.43941,-2.50028 -1.44994,-3.43208 -1.33841,-1.23422 -2.91852,-1.60331 -4.63011,-0.99279 -1.7755,0.63333 -2.92148,1.91476 -3.03132,3.79101 -0.11982,2.04731 -0.048,4.10527 -0.27072,6.36957 -2.6548,0.37502 -5.10024,0.51934 -7.43117,1.36918 -0.32835,0.11974 -0.70924,0.10254 -1.06584,0.14883 -0.018,-2.26724 -0.0571,-4.53457 -0.0444,-6.80165 0.005,-1.01641 -0.16121,-1.97125 -0.67294,-2.86137 -1.01357,-1.76302 -3.02634,-2.63571 -5.01104,-2.1716 -1.819,0.42535 -3.29977,2.09934 -3.45465,3.94351 -0.0474,0.56358 -0.0234,1.13324 -0.0236,1.70012 -0.003,4.89028 -0.003,9.78054 -0.08,14.8954 -0.0769,0.22455 -0.22526,0.3019 -0.22526,0.3019 z"
       id="path32"
       style="stroke-width:0.107734" />
    <path
       fill="#9d9d9d"
       opacity="1"
       stroke="none"
       d="m 473.75784,196.83424 c 2.7717,-0.19413 5.52226,-0.18803 8.47322,-0.1954 0.21607,4.54122 0.23175,9.09585 0.0356,13.85682 -2.9777,0.20571 -5.74363,0.20508 -8.50957,0.20445 -0.006,-4.55523 -0.0137,-9.11045 10e-4,-13.86587 z"
       id="path33"
       style="stroke-width:0.107734" />
    <path
       fill="#9d9d9d"
       opacity="1"
       stroke="none"
       d="m 455.81508,198.14114 c 0.37232,-0.24425 0.75323,-0.22715 1.08157,-0.34686 2.33092,-0.84983 4.77636,-0.99416 7.40614,-1.17506 0.20892,4.53867 0.23196,9.09421 0.0462,13.86205 -2.97265,0.21916 -5.73653,0.22604 -8.50039,0.2329 -0.0163,-4.125 -0.0328,-8.25001 -0.0336,-12.57303 z"
       id="path34"
       style="stroke-width:0.107734" />
    <path
       fill="#697979"
       opacity="1"
       stroke="none"
       d="m 473.8803,210.82988 c 2.64282,-0.12914 5.40875,-0.12851 8.3771,-0.13533 0.0349,0.11553 -0.13312,0.3462 -0.30023,0.34562 -2.65132,-0.01 -5.30253,-0.0483 -8.07687,-0.21029 z"
       id="path35"
       style="stroke-width:0.107734" />
    <path
       fill="#697979"
       opacity="1"
       stroke="none"
       d="m 455.97527,210.84002 c 2.6372,-0.13271 5.40109,-0.13959 8.36586,-0.16131 -0.0307,0.12865 -0.26279,0.39758 -0.49355,0.39646 -2.582,-0.0124 -5.16379,-0.0665 -7.87231,-0.23515 z"
       id="path36"
       style="stroke-width:0.107734" />
    <path
       fill="#697979"
       opacity="1"
       stroke="none"
       d="m 491.79188,210.8075 c 2.64836,-0.12443 5.41139,-0.11132 8.37771,-0.0995 0.031,0.11661 -0.13886,0.33405 -0.31347,0.33761 -2.65061,0.0541 -5.30433,0.245 -8.06424,-0.23811 z"
       id="path37"
       style="stroke-width:0.107734" />
    <path
       fill="#697979"
       opacity="1"
       stroke="none"
       d="m 509.69845,210.80133 c 2.65001,-0.12284 5.41219,-0.10603 8.37789,-0.0879 0.0296,0.11722 -0.14235,0.33099 -0.31842,0.33421 -2.64988,0.0488 -5.30318,0.24752 -8.05947,-0.24635 z"
       id="path38"
       style="stroke-width:0.107734" />
    <path
       fill="#9d9d9d"
       opacity="1"
       stroke="none"
       d="m 487.83929,186.11879 c 0.26512,-0.0302 0.63669,0.0289 1.09979,0.1968 -0.2701,0.0367 -0.63172,-0.0355 -1.09979,-0.1968 z"
       id="path39"
       style="stroke-width:0.107734" />
    <path
       fill="#697979"
       opacity="1"
       stroke="none"
       d="m 446.35667,207.02064 c -0.0377,-0.0712 0.11075,-0.14856 0.1895,-0.17687 0.0909,0.0507 0.10321,0.12986 0.10858,0.32868 -0.11177,0.0775 -0.19634,0.0108 -0.29809,-0.15181 z"
       id="path40"
       style="stroke-width:0.107734" />
    <path
       fill="#4d7abd"
       opacity="1"
       stroke="none"
       d="m 424.14353,816.26716 c -0.18596,-3.98154 -0.19242,-7.95907 -0.1885,-12.13563 1.93331,-0.51295 3.85678,-0.82415 5.77914,-1.1417 1.49331,-0.24668 2.97988,-0.53874 4.47915,-0.74318 2.00064,-0.27274 4.0233,-0.3831 6.00597,-0.79767 0.42054,-0.0879 0.87141,-0.0275 1.30393,-0.0739 0.78808,-0.0845 1.5712,-0.21409 2.35966,-0.29398 0.64839,-0.0656 1.30337,-0.069 1.95218,-0.1317 0.78917,-0.0762 1.57529,-0.18351 2.36201,-0.28272 0.14313,-0.018 0.28156,-0.081 0.4244,-0.09 2.52817,-0.16074 5.05611,-0.32644 7.58543,-0.4681 1.01097,-0.0566 2.02475,0.0581 3.01972,-0.3018 0.45664,-0.16515 1.00401,-0.10435 1.5111,-0.1233 2.16935,-0.081 4.35952,0.21917 6.50132,-0.3949 0.40332,-0.11565 0.86844,-0.031 1.30502,-0.0319 2.0378,-0.004 4.07613,0.02 6.11312,-0.0203 0.78918,-0.0156 1.57443,-0.1831 2.36326,-0.26521 0.57575,-0.06 1.15444,-0.13265 1.73184,-0.133 12.22681,-0.007 24.45359,-0.008 36.68039,0.002 0.64689,0.001 1.29406,0.11805 1.9404,0.18755 0.64584,0.0694 1.28988,0.20017 1.93627,0.21055 1.89178,0.0303 3.78445,0.002 5.67655,0.0197 1.30208,0.012 2.58634,0.0125 3.89121,0.31023 1.10748,0.25276 2.31538,0.0811 3.47846,0.11192 1.3008,0.0346 2.60984,-0.12489 3.88847,0.33127 0.45557,0.16253 1.00758,0.0775 1.51599,0.0891 1.44728,0.0328 2.90335,-0.11301 4.32091,0.36448 0.39406,0.13274 0.86547,0.0539 1.30157,0.061 1.30351,0.0215 2.61152,-0.0869 3.88492,0.35696 0.39189,0.13663 0.8645,0.0605 1.30043,0.069 0.94199,0.0184 1.89363,-0.0755 2.79547,0.31651 0.191,0.0829 0.4267,0.076 0.64328,0.0945 1.80055,0.15288 3.61033,0.23692 5.40002,0.46855 2.2886,0.29632 4.56384,0.69489 6.83965,1.07889 1.8501,0.31224 3.69328,0.66374 5.53815,1.0049 2.84797,0.52665 5.67672,1.14679 8.39822,2.12523 1.35751,0.48803 2.65636,1.14242 3.94846,1.78498 0.43827,0.21793 0.81435,0.59558 1.14938,0.96074 0.73318,0.79934 0.73558,1.89882 -0.0577,2.66961 -0.50437,0.4899 -1.12023,0.8919 -1.73891,1.24567 -2.27698,1.30201 -4.77283,2.07342 -7.3253,2.6335 -3.5242,0.77338 -7.05777,1.52589 -10.61581,2.1277 -2.62916,0.44473 -5.30609,0.61657 -7.95725,0.94449 -1.86062,0.23024 -3.71253,0.52654 -5.57092,0.77499 -0.43007,0.0576 -0.87047,0.0475 -1.30641,0.0564 -0.94195,0.0191 -1.87796,-0.0315 -2.80113,0.29937 -0.45762,0.16398 -1.00395,0.10964 -1.51103,0.1234 -1.15808,0.0313 -2.31262,-0.0561 -3.45239,0.33275 -0.5248,0.17911 -1.15211,0.0784 -1.7332,0.095 -1.51862,0.0433 -3.02163,0.004 -4.5448,0.32917 -1.25248,0.26786 -2.60713,0.0762 -3.91626,0.10135 -1.08467,0.0208 -2.17101,-0.0831 -3.2362,0.30924 -0.45374,0.167 -1.00587,0.10158 -1.51353,0.10507 -1.74661,0.012 -3.49346,-0.004 -5.23996,0.0132 -1.30209,0.0129 -2.60559,-0.092 -3.88883,0.33084 -0.52752,0.17385 -1.15339,0.0816 -1.73452,0.0819 -11.8629,0.004 -23.72578,0.008 -35.58867,-0.01 -0.85953,-10e-4 -1.71779,-0.19513 -2.57854,-0.28115 -0.57651,-0.0577 -1.1561,-0.11264 -1.73479,-0.11769 -1.89212,-0.0161 -3.78448,-0.002 -5.67665,-0.0132 -1.08604,-0.006 -2.15953,0.0218 -3.23665,-0.3096 -0.66786,-0.20547 -1.44184,-0.0811 -2.16796,-0.11036 -2.02364,-0.0814 -4.06774,0.22235 -6.06615,-0.38357 -0.4665,-0.14141 -1.0124,-0.0323 -1.52166,-0.0429 -1.30224,-0.027 -2.60546,0.089 -3.88809,-0.33795 -0.52672,-0.17531 -1.15304,-0.0738 -1.73431,-0.0852 -1.15857,-0.0227 -2.3126,0.0547 -3.45226,-0.33139 -0.52557,-0.17801 -1.15457,-0.0491 -1.73254,-0.10195 -0.78933,-0.0723 -1.57509,-0.18236 -2.36156,-0.28255 -0.2152,-0.0274 -0.42599,-0.10075 -0.64121,-0.11277 -4.4083,-0.24839 -8.7586,-0.91208 -13.09351,-1.70026 -1.77321,-0.32244 -3.5587,-0.58063 -5.51817,-0.87202 z"
       id="path41"
       style="stroke-width:0.107734" />
    <path
       fill="#d2d2d4"
       opacity="1"
       stroke="none"
       d="m 596.19455,522.90355 c 1.66348,-0.007 3.46261,0.19415 5.25696,0.15994 1.86296,-0.0355 3.7217,-0.29349 5.58123,-0.46539 0.57171,-0.0529 1.13986,-0.14269 1.89829,-0.20262 -0.13534,0.15092 -0.44714,0.36077 -0.78536,0.41544 -2.9174,0.47135 -5.82943,1.01897 -8.81329,0.52103 -0.9913,-0.16545 -2.00225,-0.21904 -3.13783,-0.4284 z"
       id="path42"
       style="stroke-width:0.107734" />
    <path
       fill="#d2d2d4"
       opacity="1"
       stroke="none"
       d="m 594.38693,522.50663 c 0.39531,-0.0417 0.90743,0.0153 1.52957,0.17827 -0.39756,0.0441 -0.9052,-0.0177 -1.52957,-0.17827 z"
       id="path43"
       style="stroke-width:0.107734" />
    <path
       fill="#b1d3ec"
       opacity="1"
       stroke="none"
       d="m 631.51439,503.2353 c -0.11126,-0.0785 -0.08,-0.20386 0.0885,-0.37787 0.12986,0.0804 0.10219,0.207 -0.0885,0.37787 z"
       id="path44"
       style="stroke-width:0.107734" />
    <path
       fill="#a0c6eb"
       opacity="1"
       stroke="none"
       d="m 379.36634,450.68578 c 0.71376,-0.23072 1.35798,-0.30064 1.98494,-0.44289 0.63179,-0.14327 1.24929,-0.34962 1.86801,-0.54356 2.5811,-0.80905 5.23355,-0.87513 7.9213,-0.89774 3.27783,-0.0275 6.45236,0.34203 9.61893,1.19545 2.93678,0.7915 5.76931,1.81775 8.5493,2.99321 4.17572,1.7656 8.31689,3.60874 12.48033,5.40218 0.59215,0.25507 1.22692,0.41631 2.00227,0.63984 2.07313,1.0642 4.18185,1.61202 6.27826,2.10633 3.37088,0.79484 6.77114,1.49791 10.18945,2.06561 2.06047,0.34221 4.17605,0.42228 6.27153,0.49753 2.25227,0.0809 4.51007,0.0272 6.76532,0.0147 1.15815,-0.006 2.33005,0.10507 3.44937,-0.33438 0.19405,-0.0761 0.43025,-0.0642 0.64749,-0.0685 3.20905,-0.065 6.29914,-0.82151 9.40237,-1.51351 5.48104,-1.22233 10.65832,-3.22464 15.65282,-5.71039 2.0074,-0.99905 4.01651,-1.99679 6.05028,-2.94331 4.38848,-2.04259 8.82843,-3.96976 13.45019,-5.47043 2.61901,-0.85039 5.31696,-1.55123 8.0404,-1.7211 3.09255,-0.19296 6.21109,-0.27385 9.33886,0.22608 3.55634,0.56839 6.93128,1.5494 10.07325,3.2131 1.5825,0.83794 3.03896,1.91633 4.49698,2.95939 3.24049,2.31822 5.97126,5.19033 8.64464,8.06796 2.87451,3.09415 5.28371,6.55835 6.8129,10.52135 0.1786,0.46292 0.44282,0.89571 0.60661,1.36266 0.63426,1.80848 1.20158,3.62903 1.09773,5.58132 -0.0451,0.84788 -0.0418,1.70168 10e-4,2.5499 0.11343,2.267 -0.69805,4.30224 -1.6553,6.29064 -0.80769,1.67776 -1.98103,3.17309 -3.30136,4.44303 -2.48986,2.39476 -5.28966,4.43021 -8.84527,5.15505 -0.35299,0.0719 -0.71553,0.11289 -1.0758,0.13519 -3.29476,0.20321 -6.50897,-0.17427 -9.64352,-1.21588 -2.81645,-0.93585 -5.64395,-1.84131 -8.47763,-2.72657 -5.45099,-1.70283 -10.94695,-3.2381 -16.60232,-4.1774 -2.20759,-0.36663 -4.39062,-0.98083 -6.61072,-1.13995 -2.45329,-0.17586 -4.87998,-0.6618 -7.3666,-0.54371 -2.24998,0.10688 -4.50971,0.005 -6.76489,0.0245 -5.31692,0.0452 -10.50115,0.91057 -15.62312,2.28272 -4.90032,1.3128 -9.68283,2.97183 -14.52595,4.45083 -3.10776,0.94903 -6.26921,1.74828 -9.43952,2.47919 -1.53749,0.35451 -3.14745,0.43225 -4.73051,0.57176 -1.43962,0.12682 -2.84071,0.59589 -4.31558,0.41828 -1.79286,-0.21593 -3.59057,-0.39336 -5.38585,-0.59031 -0.78927,-0.0865 -1.57775,-0.18029 -2.56004,-0.27365 -1.34182,-0.94294 -2.87656,-0.98169 -4.16101,-1.62581 -3.28819,-1.64892 -6.64299,-3.17368 -9.91066,-4.85923 -5.51119,-2.84275 -10.8666,-5.99688 -16.8735,-7.81779 -2.27981,-0.69111 -4.58613,-1.26689 -6.98663,-1.42993 -0.85967,-0.0584 -1.70979,-0.25811 -2.56262,-0.40251 -1.33377,-0.22589 -2.56605,0.3999 -4.05728,0.44045 -3.92834,0.81688 -7.65666,1.67904 -11.41337,2.40113 -1.69429,0.3257 -3.44245,0.47709 -5.17096,0.51878 -2.12863,0.0513 -4.13914,-0.49301 -6.02327,-1.52239 -1.55305,-0.84845 -2.25577,-2.1787 -2.43805,-3.78682 -0.23586,-2.08088 0.20024,-4.03588 1.16808,-5.94626 1.45137,-2.86496 3.07221,-5.61782 5.12257,-8.10423 0.99691,-1.20891 2.21121,-2.24613 3.30522,-3.38105 2.04847,-2.12507 4.2926,-4.03349 6.90376,-5.45771 2.40138,-1.30983 4.89985,-2.45052 7.35068,-3.67494 0.31483,-0.15727 0.60053,-0.36997 0.97683,-0.68612 z"
       id="path45"
       style="stroke-width:0.107734" />
  </g>
</svg>
