<?xml version="1.0" encoding="UTF-8" standalone="no"?>
<!-- Created with Inkscape (http://www.inkscape.org/) -->

<svg
   viewBox="0 0 1024 1024"
     preserveAspectRatio="xMidYMid meet"
   version="1.1"
   id="svg1"
   inkscape:version="1.4.2 (f4327f4, 2025-05-13)"
   sodipodi:docname="celular.svg"
   xmlns:inkscape="http://www.inkscape.org/namespaces/inkscape"
   xmlns:sodipodi="http://sodipodi.sourceforge.net/DTD/sodipodi-0.dtd"
   xmlns="http://www.w3.org/2000/svg"
   xmlns:svg="http://www.w3.org/2000/svg">
  <sodipodi:namedview
     id="namedview1"
     pagecolor="#ffffff"
     bordercolor="#000000"
     borderopacity="0.25"
     inkscape:showpageshadow="2"
     inkscape:pageopacity="0.0"
     inkscape:pagecheckerboard="0"
     inkscape:deskcolor="#d1d1d1"
     inkscape:document-units="mm"
     inkscape:zoom="0.17438447"
     inkscape:cx="1281.6508"
     inkscape:cy="1780.5485"
     inkscape:window-width="1920"
     inkscape:window-height="1001"
     inkscape:window-x="-9"
     inkscape:window-y="-9"
     inkscape:window-maximized="1"
     inkscape:current-layer="layer1" />
  <defs
     id="defs1" />
  <g
     inkscape:label="Layer 1"
     inkscape:groupmode="layer"
     id="layer1">
    <g
       transform="matrix(0.0884746,0,0,-0.09111776,123.25658,908.13917)"
       fill="#000000"
       stroke="none"
       id="g2">
      <path
         d="m 2425,8520 c -11,-4 -45,-13 -75,-20 -72,-16 -154,-43 -158,-52 -2,-5 -10,-8 -19,-8 -8,0 -27,-12 -41,-28 -15,-15 -45,-40 -67,-57 -55,-41 -85,-72 -85,-87 0,-8 -9,-20 -20,-28 -11,-8 -20,-22 -20,-32 0,-10 -4,-18 -9,-18 -5,0 -11,-8 -14,-17 -3,-10 -13,-38 -23,-63 -9,-25 -22,-72 -27,-105 -15,-89 -21,-7387 -7,-7440 27,-98 63,-188 83,-206 9,-9 17,-21 17,-27 0,-16 138,-152 153,-152 7,0 19,-9 27,-20 8,-11 20,-20 28,-20 7,0 23,-7 36,-15 39,-26 128,-55 168,-55 20,0 40,-5 43,-10 9,-14 3565,-14 3565,0 0,6 26,10 58,10 37,0 73,7 98,19 22,11 52,23 67,26 15,4 30,11 33,16 3,5 12,9 21,9 8,0 28,14 43,30 15,17 32,30 36,30 11,0 94,82 94,93 0,5 14,22 30,37 17,15 30,34 30,42 0,8 4,18 8,24 24,27 62,140 62,184 0,27 5,52 10,55 14,9 14,7321 0,7330 -6,3 -10,18 -10,33 0,31 -32,123 -55,158 -8,13 -15,30 -15,39 0,8 -4,15 -10,15 -5,0 -10,7 -10,15 0,18 -155,175 -173,175 -7,0 -19,9 -27,20 -8,11 -22,20 -31,20 -10,0 -19,4 -21,9 -4,11 -113,52 -173,64 -61,13 -3590,20 -3620,7 z m 3515,-450 c 0,-5 11,-10 24,-10 31,0 106,-40 106,-57 0,-7 5,-13 10,-13 6,0 10,-9 10,-20 0,-11 5,-20 10,-20 6,0 10,-13 10,-30 0,-16 5,-30 10,-30 6,0 10,-82 10,-225 V 7440 H 4215 2300 v 234 c 0,146 4,237 10,241 6,3 10,17 10,31 0,13 5,24 10,24 6,0 10,5 10,11 0,14 25,39 39,39 6,0 11,3 11,8 0,12 52,32 86,32 18,0 36,5 39,10 4,7 587,10 1716,10 1133,0 1709,-3 1709,-10 z M 2626,6976 c 8,-8 14,-20 14,-27 0,-6 8,-19 18,-28 16,-15 26,-31 83,-136 12,-22 28,-44 35,-48 8,-4 14,-17 14,-27 0,-11 5,-20 10,-20 6,0 10,-8 10,-18 0,-10 9,-24 20,-32 11,-8 20,-22 20,-32 0,-10 3,-18 8,-18 8,0 12,-6 56,-93 15,-32 31,-57 35,-57 3,0 13,-15 20,-32 8,-18 23,-40 33,-49 10,-9 18,-24 18,-33 0,-9 5,-16 10,-16 6,0 10,-8 10,-18 0,-9 12,-26 26,-37 30,-22 176,-74 212,-74 15,-1 22,-7 22,-21 0,-11 5,-20 10,-20 6,0 10,-13 10,-30 0,-16 5,-30 10,-30 6,0 10,-11 10,-24 0,-14 5,-28 10,-31 6,-3 10,-18 10,-33 0,-24 18,-90 41,-147 7,-19 12,-40 26,-107 3,-16 9,-28 14,-28 5,0 9,-13 9,-29 0,-16 6,-32 13,-35 10,-5 10,-7 0,-12 -7,-3 -13,-14 -13,-24 0,-10 -4,-22 -10,-25 -5,-3 -10,-17 -10,-30 0,-13 -4,-26 -9,-29 -5,-3 -11,-20 -14,-38 -9,-54 -31,-136 -40,-144 -4,-4 -7,-22 -7,-41 0,-18 -4,-33 -10,-33 -5,0 -10,-13 -10,-30 0,-16 -4,-30 -10,-30 -5,0 -10,-11 -10,-25 0,-14 -4,-25 -10,-25 -5,0 -10,-13 -10,-30 0,-16 -4,-30 -10,-30 -5,0 -10,-18 -10,-40 0,-22 -4,-40 -10,-40 -5,0 -10,-12 -10,-26 0,-14 -11,-59 -25,-100 -14,-41 -25,-83 -25,-94 0,-11 -4,-20 -10,-20 -5,0 -10,-15 -10,-34 0,-19 -4,-38 -10,-41 -5,-3 -10,-17 -10,-31 0,-13 -4,-24 -10,-24 -5,0 -10,-13 -10,-30 0,-16 -4,-30 -10,-30 -5,0 -10,-18 -10,-40 0,-22 -4,-40 -10,-40 -5,0 -10,-11 -10,-24 0,-14 -4,-28 -10,-31 -5,-3 -10,-15 -10,-26 0,-10 -4,-27 -9,-37 -28,-56 -49,-179 -38,-224 13,-51 40,-68 103,-68 62,1 94,16 94,44 0,9 5,16 10,16 6,0 10,9 10,20 0,11 5,20 10,20 6,0 10,16 10,35 0,19 5,35 10,35 6,0 10,14 10,30 0,17 5,30 10,30 6,0 10,13 10,28 0,15 4,32 8,38 5,5 13,27 19,49 7,22 19,64 27,94 9,29 16,64 16,77 0,12 5,26 10,29 6,3 10,17 10,30 0,13 5,27 10,30 6,3 10,22 10,41 0,19 5,34 10,34 6,0 10,14 10,30 0,17 5,30 10,30 6,0 10,14 10,30 0,17 5,30 10,30 6,0 10,14 10,30 0,17 4,38 9,48 8,15 18,49 53,177 6,22 12,46 14,53 2,6 10,12 19,12 11,0 15,-11 15,-40 0,-22 5,-40 10,-40 6,0 10,-11 10,-24 0,-14 5,-28 10,-31 6,-3 10,-22 10,-41 0,-19 5,-34 10,-34 6,0 10,-9 10,-20 0,-11 5,-20 10,-20 6,0 10,-15 10,-34 0,-19 5,-38 10,-41 6,-3 10,-20 10,-36 0,-39 53,-92 111,-113 101,-35 119,-43 125,-49 4,-4 16,-7 26,-7 10,0 18,-4 18,-10 0,-5 9,-10 20,-10 11,0 20,-4 20,-9 0,-5 12,-11 26,-13 15,-2 30,-10 34,-18 4,-8 12,-25 18,-37 7,-13 12,-39 12,-58 0,-19 5,-35 10,-35 6,0 10,-20 10,-45 0,-25 5,-45 10,-45 6,0 10,-22 10,-50 0,-27 5,-50 10,-50 6,0 10,-19 10,-43 0,-24 4,-47 9,-52 5,-6 11,-32 14,-60 7,-74 28,-188 38,-207 5,-10 9,-32 9,-49 0,-22 5,-32 20,-36 11,-3 20,-9 20,-14 0,-5 9,-9 20,-9 11,0 20,-4 20,-10 0,-5 14,-10 30,-10 23,0 42,11 75,45 38,38 45,50 45,85 0,22 -4,40 -10,40 -5,0 -10,20 -10,45 0,25 -4,45 -10,45 -5,0 -10,20 -10,44 0,25 -4,48 -10,51 -5,3 -10,26 -10,51 0,24 -4,44 -9,44 -5,0 -11,24 -14,53 -6,57 -12,102 -23,160 -5,30 -3,37 9,37 9,0 19,-4 22,-10 3,-5 40,-10 81,-10 78,0 104,11 104,44 0,9 5,16 10,16 6,0 10,20 10,45 0,25 -4,45 -9,45 -5,0 -11,9 -14,20 -3,10 -22,27 -43,37 -22,10 -40,21 -42,26 -2,4 -17,7 -33,7 -16,0 -29,5 -29,10 0,6 -9,10 -20,10 -11,0 -20,5 -20,10 0,6 -13,10 -30,10 -16,0 -30,5 -30,10 0,6 -7,10 -15,10 -8,0 -15,5 -15,10 0,6 -13,10 -29,10 -17,0 -33,5 -36,10 -3,6 -14,10 -24,10 -10,0 -39,11 -65,25 -26,14 -56,25 -66,25 -10,0 -22,5 -25,10 -3,6 -17,10 -31,10 -13,0 -24,5 -24,10 0,6 -9,10 -20,10 -11,0 -20,5 -20,10 0,6 -7,10 -16,10 -21,0 -44,25 -44,48 0,10 -3,22 -7,26 -9,8 -31,90 -40,144 -3,18 -9,35 -14,38 -5,3 -9,18 -9,35 0,16 -4,29 -10,29 -5,0 -10,16 -10,35 0,19 -4,35 -10,35 -5,0 -10,14 -10,30 0,17 -4,30 -10,30 -5,0 -10,14 -10,30 0,17 -4,30 -10,30 -5,0 -10,15 -10,34 0,19 -4,38 -10,41 -5,3 -10,17 -10,30 0,13 -4,26 -9,30 -6,3 -13,26 -17,52 -4,25 -15,69 -25,97 -11,28 -19,59 -19,68 0,10 -4,18 -10,18 -5,0 -10,18 -10,40 0,22 -4,40 -10,40 -5,0 -10,14 -10,30 0,17 -4,30 -10,30 -5,0 -10,9 -10,20 0,11 -6,29 -12,40 -23,37 3,39 92,10 47,-16 95,-29 108,-29 12,-1 22,-5 22,-11 0,-5 14,-10 30,-10 17,0 30,-4 30,-10 0,-5 11,-10 24,-10 14,0 28,-4 31,-10 3,-5 17,-10 31,-10 13,0 24,-4 24,-10 0,-5 14,-10 30,-10 17,0 30,-4 30,-10 0,-5 7,-10 15,-10 18,0 172,-47 197,-61 29,-15 167,-11 184,5 9,10 14,36 14,76 0,50 -4,65 -23,83 -28,28 -103,67 -128,67 -10,0 -19,5 -19,10 0,6 -13,10 -30,10 -16,0 -30,5 -30,10 0,6 -12,10 -27,10 -16,0 -66,14 -113,31 -47,17 -97,33 -112,36 -16,3 -28,9 -28,14 0,5 -11,9 -24,9 -14,0 -28,5 -31,10 -3,6 -17,10 -30,10 -13,0 -27,5 -30,10 -3,6 -17,10 -31,10 -13,0 -24,5 -24,10 0,6 -18,10 -40,10 -22,0 -40,3 -40,8 0,10 -50,32 -73,32 -25,0 -170,47 -220,71 -22,11 -52,19 -68,19 -16,0 -29,5 -29,10 0,6 -13,10 -28,10 -17,0 -33,8 -42,21 -8,12 -25,34 -37,49 -13,15 -23,35 -23,44 0,9 -4,16 -10,16 -5,0 -10,7 -10,16 0,9 -8,24 -18,33 -9,9 -28,39 -42,66 -14,28 -30,56 -37,63 -6,6 -15,21 -18,32 -3,11 -10,20 -15,20 -10,0 -40,57 -40,77 0,7 -4,13 -10,13 -5,0 -10,7 -10,16 0,9 -8,24 -17,33 -24,22 -43,57 -36,65 4,3 730,6 1615,6 H 6130 V 4680 2370 H 4215 2300 v 2310 2310 h 156 c 121,0 159,-3 170,-14 z m 3447,-5065 57,-1 v -620 c 0,-407 -3,-620 -10,-620 -5,0 -10,-11 -10,-25 0,-14 -4,-25 -8,-25 -5,0 -15,-12 -23,-27 -24,-48 -62,-73 -109,-73 -16,0 -30,-4 -30,-10 0,-7 -585,-10 -1735,-10 -1150,0 -1735,3 -1735,10 0,6 -13,10 -30,10 -16,0 -30,5 -30,10 0,6 -5,10 -11,10 -17,0 -79,72 -79,92 0,10 -4,18 -10,18 -7,0 -10,217 -10,633 v 632 l 1858,-1 c 1021,-1 1883,-2 1915,-3 z"
         id="path1" />
      <path
         d="m 4130,1640 c 0,-5 -11,-10 -24,-10 -14,0 -28,-4 -31,-10 -3,-5 -17,-10 -31,-10 -13,0 -24,-4 -24,-9 0,-5 -9,-13 -20,-16 -26,-8 -97,-79 -105,-105 -4,-11 -11,-20 -16,-20 -5,0 -9,-11 -9,-24 0,-14 -4,-28 -10,-31 -5,-3 -10,-26 -10,-51 0,-24 -4,-44 -10,-44 -5,0 -10,-25 -10,-55 0,-30 5,-55 10,-55 6,0 10,-13 10,-28 0,-16 10,-48 21,-73 28,-58 136,-166 174,-174 17,-3 38,-10 47,-16 10,-5 36,-9 58,-9 22,0 40,-4 40,-10 0,-5 11,-10 25,-10 14,0 25,5 25,10 0,6 17,10 38,10 50,0 157,52 202,98 50,52 80,98 80,122 0,11 5,20 10,20 6,0 10,9 10,20 0,11 5,20 10,20 12,0 14,187 3,192 -5,2 -19,26 -33,53 -49,99 -180,205 -252,205 -15,0 -28,5 -28,10 0,6 -32,10 -75,10 -43,0 -75,-4 -75,-10 z m 115,-220 c 3,-5 15,-10 26,-10 24,0 69,-43 69,-65 0,-8 5,-15 10,-15 6,0 10,-27 10,-60 0,-59 -1,-62 -46,-107 -44,-44 -49,-46 -102,-46 -33,0 -58,5 -60,12 -2,6 -10,11 -19,11 -19,0 -43,24 -43,44 0,9 -3,16 -7,16 -12,0 -33,51 -33,77 0,29 16,58 58,100 29,30 55,41 124,52 4,1 10,-3 13,-9 z"
         id="path2" />
    </g>
  </g>
</svg>
