<?xml version="1.0" encoding="UTF-8" standalone="no"?>
<svg
   version="1.1"
   id="Layer_1"
   viewBox="0 0 1024 1024"
   preserveAspectRatio="xMidYMid meet"
   sodipodi:docname="lata.svg"
   inkscape:version="1.4.2 (f4327f4, 2025-05-13)"
   xmlns:inkscape="http://www.inkscape.org/namespaces/inkscape"
   xmlns:sodipodi="http://sodipodi.sourceforge.net/DTD/sodipodi-0.dtd"
   xmlns="http://www.w3.org/2000/svg"
   xmlns:svg="http://www.w3.org/2000/svg">
  <defs
     id="defs3" />
  <sodipodi:namedview
     id="namedview3"
     pagecolor="#ffffff"
     bordercolor="#000000"
     borderopacity="0.25"
     inkscape:showpageshadow="2"
     inkscape:pageopacity="0.0"
     inkscape:pagecheckerboard="0"
     inkscape:deskcolor="#d1d1d1"
     inkscape:zoom="0.76464844"
     inkscape:cx="511.3461"
     inkscape:cy="512"
     inkscape:window-width="1920"
     inkscape:window-height="1001"
     inkscape:window-x="-9"
     inkscape:window-y="-9"
     inkscape:window-maximized="1"
     inkscape:current-layer="Layer_1" />
  <path
     fill="#000000"
     opacity="1"
     stroke="none"
     d="m 302.64147,508.17943 c 0.83942,-76.92114 0.38255,-153.44519 0.44664,-229.96792 0.005,-5.44206 1.59646,-10.1368 4.34879,-14.69216 8.41301,-13.92422 17.96013,-27.09602 26.81775,-40.72348 2.46726,-3.7959 4.66575,-7.76622 7.122,-11.56969 1.81316,-2.80763 1.54682,-4.69139 -1.1658,-7.06248 -7.85996,-6.87039 -8.90132,-16.02246 -2.92358,-22.97468 3.34958,-3.89564 7.66091,-6.52701 12.28681,-8.74063 14.44893,-6.91418 29.88941,-10.38889 45.4928,-13.32035 20.44275,-3.84064 41.11755,-5.71607 61.83511,-7.19553 31.12644,-2.22277 62.29555,-2.78172 93.4874,-2.21215 2.78477,0.0508 4.90415,-1.09628 6.85449,-2.74796 8.66538,-7.33839 18.06265,-13.67884 27.47212,-19.97742 10.58965,-7.08854 22.74673,-8.24359 34.94102,-7.53713 14.07842,0.81561 28.11035,2.55978 41.82768,6.11679 2.4459,0.63424 4.89473,1.3298 7.24502,2.24624 6.60235,2.57437 7.99571,6.9828 4.02134,12.89541 -3.6894,5.48874 -8.70415,9.706 -13.85132,13.7474 -3.32886,2.61376 -6.75068,5.10918 -10.10044,7.63467 0.67158,1.61184 1.97295,1.61081 3.09048,1.88473 8.31831,2.03903 16.2582,5.10464 23.97754,8.77853 3.15752,1.50273 5.9648,3.52588 8.58574,5.80825 8.09956,7.05319 8.67032,16.93454 0.99634,24.45446 -2.54321,2.49215 -2.65249,4.41863 -1.1312,7.2454 5.18569,9.63584 11.29595,18.68636 17.3772,27.7546 5.86206,8.74147 11.92729,17.34744 17.27236,26.42766 2.56006,4.34912 3.81875,8.9387 3.81523,14.05888 -0.0291,42.26385 -0.17187,84.52977 0.1793,126.79125 0.52178,62.79179 0.37315,125.58288 0.32349,188.37434 -0.0447,56.51631 -0.23374,113.03252 -0.35132,169.54878 -0.0214,10.26284 -0.51382,20.55805 0.13354,30.77988 0.68125,10.75723 -3.90356,19.12515 -10.27021,26.88183 -3.42598,4.17398 -6.10845,8.39537 -7.56255,13.77788 -2.90923,10.76939 -9.88169,19.1337 -18.29307,26.13521 -19.129,15.92275 -41.69502,24.92607 -65.32251,31.61313 -30.40307,8.60469 -61.48901,12.45469 -93.00869,13.78682 -24.18281,1.02202 -48.17029,-0.53418 -72.1603,-3.24292 -26.33003,-2.9729 -52.02996,-8.63506 -76.73855,-18.19453 -18.25083,-7.06103 -35.54902,-15.94033 -48.90508,-30.87583 -6.04197,-6.75644 -10.90661,-14.20752 -12.0353,-23.4477 -0.49746,-4.07227 -2.1854,-7.40391 -4.99102,-10.18536 -7.9644,-7.8957 -10.88979,-17.31064 -10.81165,-28.55341 0.32329,-46.52583 0.10087,-93.05542 0.0894,-139.5836 -0.007,-28.79028 0.0569,-57.58061 -0.0104,-86.37075 -0.0445,-19.05571 -0.26515,-38.11099 -0.40665,-57.56646 M 543.014,867.22211 c 19.19419,-0.81206 38.16938,-3.5229 57.01597,-7.03613 19.01831,-3.54527 37.67578,-8.59024 55.53603,-16.11001 16.16777,-6.80713 31.59385,-14.93384 43.61362,-28.22193 6.18877,-6.84174 10.14048,-13.99585 10.1356,-24.11445 -0.0598,-123.981 -0.74395,-247.96279 0.0969,-371.94414 0.30381,-44.79307 0.08,-89.58975 0.0823,-134.38478 10e-5,-1.80206 0.148,-3.65283 -0.65689,-5.42313 -0.58628,0.19352 -1.01865,0.23323 -1.32295,0.45149 -14.21401,10.19514 -30.45771,15.77063 -47.0684,20.33796 -40.58106,11.15828 -82.17994,15.07278 -124.04463,16.27618 -44.15752,1.26926 -88.15647,-0.95291 -131.74849,-8.69117 -19.02961,-3.37807 -37.84812,-7.68481 -55.99597,-14.44299 -11.22373,-4.17966 -22.12642,-9.09424 -31.49578,-17.32711 -1.6384,11.66022 -0.31897,22.85259 -0.44062,34.01173 -0.32112,29.45376 -0.12351,58.91335 0.0799,88.37261 0.35821,51.85869 0.2188,103.72165 0.12539,155.58249 -0.14074,78.11968 0.59112,156.24234 -0.52385,234.35708 -0.15273,10.70152 3.53335,19.02744 10.59006,26.55366 12.13504,12.94224 27.22842,21.28067 43.2877,28.04009 31.49961,13.25835 64.7343,19.36382 98.50061,22.6709 24.4217,2.39185 48.95205,2.73897 74.2334,1.04165 m -2.44756,-564.02257 c 11.83784,-0.50376 23.65391,-1.20361 35.46382,-2.28562 27.88174,-2.55449 55.49141,-6.61273 82.57192,-13.83719 15.12783,-4.03581 29.63946,-9.56653 42.87339,-18.15774 2.98433,-1.93737 3.4898,-3.49963 1.40757,-6.62179 -10.34297,-15.50871 -21.40586,-30.59109 -29.20698,-47.65972 -0.85142,-1.86287 -1.93667,-2.52581 -4.09239,-1.72 -26.93559,10.06836 -55.14248,14.30535 -83.52866,16.80319 -29.17939,2.56764 -58.45791,4.02876 -87.81909,2.86772 -22.22366,-0.87879 -44.43838,-1.54183 -66.56201,-4.06115 -25.5658,-2.91131 -50.96821,-6.55426 -75.33894,-15.28109 -2.25728,-0.80832 -3.32139,-0.25115 -4.3666,1.81385 -2.82618,5.58339 -5.78758,11.10289 -8.84781,16.56227 -5.80759,10.3606 -13.07458,19.77704 -19.46377,29.76438 -1.49458,2.33627 -1.53552,3.6923 1.09112,5.41959 9.61972,6.32597 19.65093,11.76112 30.56164,15.50222 21.10894,7.23791 42.819,11.78804 64.89905,14.83905 24.29019,3.35639 48.6395,5.88742 73.17857,6.08626 15.46145,0.1253 30.92502,-0.008 47.17917,-0.0342 m -191.72183,-108.993 c 4.76165,3.78898 10.23103,6.27313 15.92063,8.19157 17.09329,5.7636 34.69559,9.10968 52.58196,11.3949 19.83242,2.53385 39.72774,4.47433 59.67078,5.13872 23.69661,0.78944 47.42986,0.9227 71.14617,-0.39429 24.60903,-1.36657 49.15712,-3.267 73.46879,-7.42329 15.62945,-2.67197 31.17364,-5.79797 45.86539,-12.08468 2.33193,-0.99785 4.63188,-2.05814 6.45747,-3.90727 2.11567,-2.14293 2.44892,-4.23099 0.18486,-6.57831 -1.99116,-2.06441 -4.3479,-3.53043 -6.88672,-4.71363 -9.8354,-4.5837 -20.31138,-7.20497 -30.78779,-9.75865 -3.62378,-0.88332 -7.38189,-1.07159 -11.67329,0.83604 7.86797,1.82891 15.10923,3.04866 21.84951,6.03878 6.46889,2.86971 7.1997,8.32071 1.61157,12.53743 -1.05352,0.79494 -2.2709,1.38583 -3.45015,1.99869 -4.56562,2.37271 -9.60498,3.16603 -14.56113,4.09143 -25.60967,4.78176 -51.54097,6.45159 -77.50874,6.85657 -48.62925,0.75841 -97.2866,1.2429 -145.65276,-5.27969 -9.86477,-1.33035 -19.89533,-2.52548 -28.98222,-7.06868 -6.7251,-3.36239 -6.84541,-7.70461 -0.59329,-11.90102 0.87607,-0.58803 1.84512,-1.07388 2.82922,-1.45832 4.35242,-1.70027 8.82581,-2.9784 13.4209,-3.86521 25.45115,-4.91186 51.26311,-5.96614 77.05418,-7.21497 19.04555,-0.92221 38.1081,-0.8538 57.16733,-0.66681 3.79395,0.0372 6.39897,-1.57956 9.08789,-4.97759 -7.00776,-0.39509 -13.35185,-0.99547 -19.70181,-1.0662 -20.78596,-0.23153 -41.54795,0.15319 -62.32829,1.24098 -27.65491,1.44765 -54.8489,5.29559 -81.41726,13.0637 -8.27322,2.41894 -16.55347,5.16293 -23.61602,10.50616 -2.20671,1.66952 -3.37771,3.41187 -1.15718,6.46364 m 206.61866,696.80781 c 22.39223,-2.51402 44.57866,-6.10567 66.17788,-12.73286 16.47383,-5.05464 32.55,-11.0042 47.06064,-20.58218 6.95913,-4.59356 9.25235,-6.44619 10.99072,-9.74351 -14.00532,6.8355 -28.21586,12.79175 -43.05126,17.27525 -36.61241,11.06499 -74.19888,15.58847 -112.25308,16.64365 -29.89185,0.82876 -59.63848,-1.39829 -89.14495,-6.29146 -23.427,-3.8851 -46.37732,-9.63344 -68.455,-18.56235 -9.96883,-4.03174 -19.45025,-9.03984 -28.86524,-14.25098 2.91846,3.86949 6.38435,7.10913 10.18846,10.00855 15.93095,12.14194 34.11408,19.54189 53.10136,25.25757 30.28118,9.11543 61.34156,13.40947 92.84561,14.67798 20.24724,0.81523 40.4925,0.43437 61.40486,-1.69966 m 77.25805,-758.006 c -16.58383,-1.05876 -33.40737,-3.48404 -47.68774,8.47088 -0.80962,0.67777 -1.7853,1.15722 -2.68423,1.72826 -15.37051,9.7644 -28.10352,22.75695 -41.95635,34.37527 -2.85171,2.39169 -6.41865,4.16335 -8.44887,8.06499 10.94575,3.32693 21.85346,4.77464 32.73715,6.32438 4.27266,0.60841 8.00728,-0.50927 11.62207,-3.03534 8.61382,-6.01953 17.40757,-11.75865 26.67632,-16.78592 14.84029,-8.04925 30.40191,-14.82565 44.28633,-24.56877 3.69688,-2.59423 8.06406,-4.68591 10.17222,-9.80621 -7.98965,-2.84324 -16.05103,-3.49434 -24.7169,-4.76754 M 507.8058,179.68853 c -33.27456,0.22473 -98.48413,7.97352 -107.34436,12.86478 16.35302,2.978 32.67859,3.92961 48.99724,4.99916 3.3478,0.21941 5.85569,-0.28759 7.28445,-3.80075 0.7573,-1.8622 2.67683,-2.94644 4.6612,-3.51476 3.70554,-1.06124 7.3836,-2.32402 11.16287,-3.00361 14.69685,-2.64278 29.54817,-3.79064 44.46721,-4.11886 2.12295,-0.0467 4.25918,-0.004 5.952,-3.42451 -5.2291,0 -9.8228,0 -15.18061,-0.001 m 99.52519,15.18736 c 7.34751,-1.30761 14.8772,-1.68464 22.05025,-4.22873 -7.56729,-2.76115 -15.31695,-4.38065 -23.15122,-5.58328 -2.16246,-0.33195 -4.15152,0.78409 -6.0566,1.73692 -4.15976,2.08061 -8.33276,4.1413 -12.41748,6.36245 -1.65107,0.89784 -3.93867,0.88583 -5.1455,3.67568 8.27168,-0.63295 16.14126,-1.23512 24.72055,-1.96304 M 503.2163,192.38128 c -4.65933,0.79933 -9.55616,0.33784 -13.95396,2.80383 10.76008,0.34432 21.30078,-1.49444 31.87827,-2.84734 -5.72251,0 -11.44497,0 -17.92431,0.0435 z"
     id="path1"
     style="stroke-width:0.8" />
  <path
     fill="#000000"
     opacity="1"
     stroke="none"
     d="m 620.98397,137.48537 c 3.72349,-0.002 7.01914,0.1975 10.32026,0.7929 3.23868,0.58412 3.88306,2.29244 2.97974,5.13075 -0.83013,2.60856 -2.21182,4.78089 -4.42119,6.47123 -8.07817,6.1805 -17.04365,10.89304 -26.1189,15.31435 -8.45424,4.11879 -17.36689,3.27083 -26.1144,0.66305 -4.46875,-1.3322 -6.0418,-5.96104 -3.63262,-9.96699 1.3978,-2.32426 3.37984,-4.1372 5.54619,-5.68294 8.64883,-6.17113 17.78262,-11.11098 28.72334,-11.91905 4.10674,-0.30332 8.19126,-0.8867 12.71758,-0.8033 m -38.46616,21.93666 c -0.15752,3.32424 2.73144,2.52791 4.2792,2.72403 5.35268,0.67824 10.60996,0.041 15.57485,-2.34278 5.88399,-2.82508 11.76568,-5.65207 17.2001,-9.29568 1.0188,-0.68305 2.50532,-1.01715 2.73931,-3.02012 -7.22041,-0.90141 -14.35455,-1.47116 -21.46202,0.0695 -7.36416,1.59631 -13.75874,4.89928 -18.33144,11.86507 z"
     id="path2"
     style="stroke-width:0.8" />
  <path
     fill="#000000"
     opacity="1"
     stroke="none"
     d="m 579.60477,171.06124 c 3.91592,2.30628 4.27891,4.27028 1.46861,7.32827 -3.1877,3.46864 -7.30669,5.75141 -11.12935,8.39876 -1.25737,0.87073 -2.75474,0.82225 -4.2479,0.48418 -5.57671,-1.26266 -11.18316,-2.40111 -16.73677,-3.75672 -3.7104,-0.9057 -4.16421,-2.79889 -1.5562,-5.62721 3.17861,-3.44706 6.85029,-6.31049 10.68823,-8.97054 2.07119,-1.4355 4.31294,-1.93644 6.82593,-1.32186 4.7813,1.16932 9.58472,2.24801 14.68745,3.46512 m -11.52549,11.14166 c 2.25191,-1.12558 4.1253,-2.68329 5.69659,-4.69043 -6.58072,-4.07838 -13.43775,-3.73246 -16.6398,2.46461 3.25474,1.69172 6.88291,1.62725 10.94321,2.22582 z"
     id="path3"
     style="stroke-width:0.8" />
</svg>
